<?xml version="1.0" encoding="utf-8"?>
<!-- Generator: Adobe Illustrator 17.0.0, SVG Export Plug-In . SVG Version: 6.00 Build 0)  -->
<!DOCTYPE svg PUBLIC "-//W3C//DTD SVG 1.1//EN" "http://www.w3.org/Graphics/SVG/1.1/DTD/svg11.dtd">
<svg version="1.1" id="Layer_1" xmlns="http://www.w3.org/2000/svg" xmlns:xlink="http://www.w3.org/1999/xlink" x="0px" y="0px"
	 width="512px" height="512px" viewBox="0 0 512 512" enable-background="new 0 0 512 512" xml:space="preserve">
<polygon fill="none" stroke="#EBEBEB" stroke-width="10" stroke-miterlimit="10" points="255.99,21.13 59.16,134.78 59.17,256 
	59.16,256 59.16,377.21 256.04,490.87 452.87,377.22 452.87,134.79 "/>
<path fill="none" stroke="#EBEBEB" stroke-width="10" stroke-miterlimit="10" d="M363.66,246.83c-0.01-5-2.49-7.87-7.41-8.66
	c-5.56-0.89-11.13-1.78-16.69-2.67c-1.44-0.23-2.3-1.08-2.68-2.47c-1.19-4.41-2.94-8.6-4.75-12.77c-0.6-1.38-1.39-2.67-2.21-3.95
	c-1.05-1.64-1.13-3.4,0.15-5.13c3.27-4.43,6.36-9,9.73-13.36c2.7-3.49,2.19-8.15-0.82-10.98c-4.53-4.25-8.99-8.6-13.17-13.2
	c-2.94-3.23-8.28-3.31-11.42-0.82c-4.36,3.44-9.07,6.44-13.53,9.77c-1.37,1.03-2.63,1.08-3.93,0.35
	c-5.69-3.18-11.61-5.79-17.94-7.37c-2.72-0.68-2.73-2.93-3.07-4.97c-0.87-5.28-1.54-10.59-2.53-15.85
	c-0.76-4.05-3.84-6.04-6.96-6.19c-7.07-0.33-14.15-0.36-21.22,0.01c-3.61,0.19-6.6,2.95-7.21,6.58c-0.97,5.84-1.93,11.68-2.88,17.52
	c-0.24,1.47-0.73,2.4-2.45,2.96c-5.91,1.92-11.78,4.04-17.14,7.31c-0.8,0.49-1.77,0.71-2.66,1.05l-0.21-0.2
	c-4.46-3.16-8.91-6.33-13.39-9.47c-1.27-0.88-2.54-1.81-3.93-2.45c-2.94-1.35-5.74-0.74-7.99,1.44c-4.96,4.79-9.81,9.69-14.64,14.61
	c-2.63,2.68-2.84,6.44-0.62,9.66c3.46,5.04,6.92,10.09,10.54,15.01c0.93,1.27,0.79,2.22,0.16,3.33c-3.08,5.42-5.39,11.17-7.16,17.12
	c-0.67,2.28-1.85,3.05-4.16,3.36c-5.59,0.73-11.14,1.79-16.69,2.82c-3.81,0.72-5.98,3.31-6.18,7.19
	c-0.36,7.01-0.33,14.01-0.01,21.02c0.14,3.06,2.85,6.36,6.6,7c6.04,1.04,12.08,2.11,18.13,3.06c1.26,0.19,1.92,0.84,2.25,1.89
	c1.98,6.38,4.42,12.56,7.81,18.35c0.65,1.12,0.62,2.25-0.34,3.52c-3.41,4.51-6.63,9.17-9.93,13.76c-2.88,4-2.25,7.72,1.02,10.93
	c4.5,4.42,9.07,8.79,13.34,13.43c2.34,2.54,7.39,3.21,10.38,1.01c4.8-3.54,9.75-6.87,14.59-10.35c1.27-0.91,2.17-1.11,3.77-0.26
	c5.23,2.77,10.69,5.13,16.44,6.63c2.19,0.57,2.98,1.93,3.31,3.95c0.84,5.36,1.94,10.69,2.61,16.08c0.56,4.52,4.13,7.32,8.7,7.23
	c5.9-0.12,11.82-0.21,17.71,0.03c4.56,0.18,8.67-2.6,9.49-8.3c0.78-5.36,1.63-10.71,2.47-16.07c0.24-1.53,1.16-2.5,2.67-2.88
	c5.88-1.49,11.39-3.93,16.66-6.85c2.07-1.14,3.59-0.95,5.41,0.43c4.39,3.33,8.87,6.53,13.38,9.7c3.5,2.47,7.29,2.07,10.13-0.76
	c4.74-4.74,9.57-9.38,14.18-14.25c2.81-2.98,3.08-6.4,0.77-9.88c-2.93-4.43-6.01-8.77-9.28-12.96c-1.76-2.25-2.1-4.11-0.62-6.66
	c2.97-5.15,5.06-10.71,6.64-16.45c0.32-1.18,0.95-1.88,2.27-2.09c5.7-0.9,11.38-2,17.1-2.82c4.08-0.59,7.53-3.05,7.44-8.48
	C363.58,259.19,363.67,253.01,363.66,246.83z M298.11,265.15c-2.11,10.19-7.41,18.53-15.62,24.92c-10.2,7.93-21.88,10.45-34.38,8.16
	c-10.19-1.86-18.67-7.1-25.15-15.35c-7.82-9.93-10.74-21.16-8.62-33.58c2.71-15.82,11.79-26.62,26.54-32.76
	c4.16-1.73,8.52-2.54,12.98-2.88h0.21c7.26-0.29,14.26,0.91,20.79,4.14c9.94,4.92,17.1,12.51,21.22,22.85
	C299.25,248.6,299.83,256.84,298.11,265.15z"/>
</svg>
