<?xml version="1.0" encoding="utf-8"?>
<!-- Generator: Adobe Illustrator 17.0.0, SVG Export Plug-In . SVG Version: 6.00 Build 0)  -->
<!DOCTYPE svg PUBLIC "-//W3C//DTD SVG 1.1//EN" "http://www.w3.org/Graphics/SVG/1.1/DTD/svg11.dtd">
<svg version="1.1" id="Layer_1" xmlns="http://www.w3.org/2000/svg" xmlns:xlink="http://www.w3.org/1999/xlink" x="0px" y="0px"
	 width="512px" height="512px" viewBox="0 0 512 512" enable-background="new 0 0 512 512" xml:space="preserve">
<polygon fill="none" stroke="#222222" stroke-width="10" stroke-miterlimit="10" points="255.99,21.13 59.16,134.78 59.17,256
	59.16,256 59.16,377.21 256.04,490.87 452.87,377.22 452.87,134.79 "/>
<g>
	<path fill="#222222" d="M310.434,357.1c0,3.088-1.068,5.936-3.204,8.545c-2.137,2.613-5.223,3.915-9.256,3.915h-82.815
		c-4.038,0-7.119-1.246-9.255-3.737c-2.137-2.493-3.204-5.396-3.204-8.723c0-3.081,1.068-5.929,3.204-8.543
		c2.136-2.609,5.217-3.915,9.255-3.915h30.906V240.336h-32.038c-4.038,0-7.12-1.246-9.256-3.738
		c-2.136-2.491-3.204-5.395-3.204-8.722c0-3.082,1.068-5.93,3.204-8.543c2.136-2.609,5.218-3.916,9.256-3.916h40.939
		c4.272,0,8.009,1.602,11.213,4.805c3.204,3.204,4.806,6.942,4.806,11.214v113.204h26.99c4.033,0,7.119,1.246,9.256,3.737
		C309.366,350.871,310.434,353.78,310.434,357.1z M282.375,169.495c0,7.598-2.615,13.945-7.831,19.045
		c-5.223,5.106-11.632,7.654-19.225,7.654c-7.597,0-13.944-2.548-19.044-7.654c-5.107-5.1-7.654-11.447-7.654-19.045
		c0-7.592,2.547-14.001,7.654-19.223c5.1-5.218,11.447-7.832,19.044-7.832c7.593,0,14.001,2.615,19.225,7.832
		C279.761,155.495,282.375,161.903,282.375,169.495z"/>
</g>
</svg>
