<?xml version="1.0" encoding="utf-8"?>
<!-- Generator: Adobe Illustrator 17.0.0, SVG Export Plug-In . SVG Version: 6.00 Build 0)  -->
<!DOCTYPE svg PUBLIC "-//W3C//DTD SVG 1.1//EN" "http://www.w3.org/Graphics/SVG/1.1/DTD/svg11.dtd">
<svg version="1.1" id="Layer_1" xmlns="http://www.w3.org/2000/svg" xmlns:xlink="http://www.w3.org/1999/xlink" x="0px" y="0px"
	 width="512px" height="512px" viewBox="21.144 -161.893 512 512" enable-background="new 21.144 -161.893 512 512"
	 xml:space="preserve">
<g>
	<polygon fill="#DFE1E3" points="334.107,140.672 334.397,140.863 277.686,178.58 220.853,140.779 221.2,140.553 51.839,28.468 
		51.839,-27.437 277.781,122.266 503.426,-27.219 503.472,28.468 	"/>
	<polygon fill="#1B9BD7" points="432.995,112.876 475.321,84.637 475.321,197.26 277.64,328.718 80.082,197.394 80.067,84.778 
		122.438,112.944 122.408,169.247 277.739,272.4 432.995,169.189 	"/>
	<polygon fill="#1B9BD7" points="320.123,-37.24 277.781,-65.395 235.349,-37.27 193,-65.391 277.728,-121.762 362.369,-65.425 	"/>
	<polygon fill="#CACDCF" points="348.251,149.997 376.444,168.823 277.652,234.397 178.947,168.766 192.95,159.356 220.853,140.779 
		277.686,178.58 334.397,140.863 	"/>
	<polygon fill="#F5F6F8" points="531.665,-46.595 503.426,-27.792 503.426,-27.219 277.781,122.266 51.839,-27.437 51.839,-27.846 
		23.623,-46.649 23.623,-140.504 249.428,9.146 277.633,-9.581 305.91,9.222 531.654,-140.404 	"/>
</g>
</svg>
