<?xml version="1.0" encoding="utf-8"?>
<!-- Generator: Adobe Illustrator 17.0.0, SVG Export Plug-In . SVG Version: 6.00 Build 0)  -->
<!DOCTYPE svg PUBLIC "-//W3C//DTD SVG 1.1//EN" "http://www.w3.org/Graphics/SVG/1.1/DTD/svg11.dtd">
<svg version="1.1" id="Layer_1" xmlns="http://www.w3.org/2000/svg" xmlns:xlink="http://www.w3.org/1999/xlink" x="0px" y="0px"
	 width="512px" height="512px" viewBox="0 0 512 512" enable-background="new 0 0 512 512" xml:space="preserve">
<g>
	<path fill="#EBEBEB" d="M64.16,258.89l-10-5.78V380.1l201.88,116.54l201.83-116.53V253.111l-10,5.77V374.33L256.04,485.1
		L64.16,374.32V258.89z M255.99,15.36l-83.734,47.87l10,5.77l73.734-42.1l73.747,42.37l10-5.77L255.99,15.36z"/>
</g>
<polygon fill="none" stroke="#EBEBEB" stroke-width="10" stroke-miterlimit="10" points="479.135,180.201 295.325,286.331 
	347.855,316.611 256.015,369.641 164.145,316.621 216.805,286.381 32.915,180.221 32.925,119.671 6.645,104.501 6.645,28.741 
	229.755,157.531 256.015,142.381 282.235,157.531 505.335,28.731 505.355,104.471 479.105,119.631 "/>
</svg>
