<?xml version="1.0" encoding="utf-8"?>
<!-- Generator: Adobe Illustrator 17.0.0, SVG Export Plug-In . SVG Version: 6.00 Build 0)  -->
<!DOCTYPE svg PUBLIC "-//W3C//DTD SVG 1.1//EN" "http://www.w3.org/Graphics/SVG/1.1/DTD/svg11.dtd">
<svg version="1.1" id="Layer_1" xmlns="http://www.w3.org/2000/svg" xmlns:xlink="http://www.w3.org/1999/xlink" x="0px" y="0px"
	 width="1595.277px" height="436.832px" viewBox="0 0 1595.277 436.832" enable-background="new 0 0 1595.277 436.832"
	 xml:space="preserve">
<path fill="#344A61" d="M868.162,415.614c0,2.361-0.376,4.473-1.127,6.333c-0.752,1.861-1.809,3.435-3.167,4.723
	c-1.36,1.288-2.951,2.272-4.776,2.952c-1.825,0.681-3.811,1.02-5.957,1.02h-23.293c-1.003,0-1.878-0.376-2.63-1.127
	c-0.751-0.752-1.127-1.627-1.127-2.63v-56.03c0-1.001,0.376-1.879,1.127-2.63c0.752-0.751,1.627-1.127,2.63-1.127h23.293
	c2.146,0,4.132,0.34,5.957,1.02c1.825,0.681,3.416,1.664,4.776,2.952c1.358,1.288,2.415,2.862,3.167,4.723
	c0.751,1.861,1.127,3.972,1.127,6.333V415.614z M860.648,382.125c0-2.504-0.663-4.383-1.986-5.636
	c-1.324-1.251-3.166-1.878-5.527-1.878h-19.536v48.517h19.536c2.361,0,4.203-0.626,5.527-1.879c1.323-1.251,1.986-3.129,1.986-5.635
	V382.125z"/>
<path fill="#344A61" d="M928.163,426.885c0,0.931-0.322,1.789-0.966,2.576c-0.645,0.788-1.575,1.181-2.791,1.181h-33.383
	c-1.003,0-1.878-0.376-2.63-1.127c-0.751-0.752-1.127-1.627-1.127-2.63v-56.138c0-1.001,0.376-1.879,1.127-2.63
	c0.752-0.751,1.627-1.127,2.63-1.127h32.31c1.216,0,2.146,0.376,2.79,1.127c0.645,0.751,0.967,1.629,0.967,2.63
	c0,0.931-0.322,1.789-0.967,2.576c-0.644,0.788-1.574,1.181-2.79,1.181H894.78v20.18h12.666c1.216,0,2.147,0.376,2.791,1.127
	c0.645,0.751,0.966,1.629,0.966,2.63c0,0.931-0.321,1.789-0.966,2.576c-0.644,0.788-1.575,1.181-2.791,1.181H894.78v20.931h29.626
	c1.216,0,2.146,0.376,2.791,1.127C927.841,425.006,928.163,425.884,928.163,426.885z"/>
<path fill="#344A61" d="M978.933,370.747c0,0.931-0.321,1.789-0.966,2.576c-0.644,0.788-1.574,1.181-2.791,1.181h-27.479v20.18
	h12.666c1.216,0,2.147,0.376,2.791,1.127c0.645,0.751,0.966,1.629,0.966,2.63c0,0.931-0.321,1.789-0.966,2.576
	c-0.644,0.788-1.575,1.181-2.791,1.181h-12.666v25.117c0,1.217-0.375,2.146-1.127,2.79c-0.751,0.645-1.628,0.967-2.63,0.967
	c-0.931,0-1.789-0.322-2.576-0.967c-0.788-0.644-1.181-1.573-1.181-2.79v-56.567c0-1.001,0.376-1.879,1.127-2.63
	c0.752-0.751,1.627-1.127,2.63-1.127h31.235c1.217,0,2.147,0.376,2.791,1.127C978.612,368.868,978.933,369.746,978.933,370.747z"/>
<path fill="#344A61" d="M1029.489,426.885c0,0.931-0.322,1.789-0.966,2.576c-0.645,0.788-1.575,1.181-2.791,1.181h-33.383
	c-1.003,0-1.878-0.376-2.63-1.127c-0.751-0.752-1.127-1.627-1.127-2.63v-56.138c0-1.001,0.376-1.879,1.127-2.63
	c0.752-0.751,1.627-1.127,2.63-1.127h32.31c1.216,0,2.146,0.376,2.79,1.127c0.645,0.751,0.967,1.629,0.967,2.63
	c0,0.931-0.322,1.789-0.967,2.576c-0.644,0.788-1.574,1.181-2.79,1.181h-28.553v20.18h12.666c1.216,0,2.147,0.376,2.791,1.127
	c0.645,0.751,0.966,1.629,0.966,2.63c0,0.931-0.321,1.789-0.966,2.576c-0.644,0.788-1.575,1.181-2.791,1.181h-12.666v20.931h29.626
	c1.216,0,2.146,0.376,2.791,1.127C1029.167,425.006,1029.489,425.884,1029.489,426.885z"/>
<path fill="#344A61" d="M1080.045,427.422c0,1.146-0.376,2.039-1.127,2.683c-0.752,0.645-1.629,0.967-2.63,0.967
	c-0.789,0-1.54-0.252-2.255-0.752c-0.716-0.5-1.181-1.288-1.395-2.361c-0.43-2.504-0.859-5.008-1.288-7.514
	c-0.43-2.504-0.824-5.008-1.182-7.514h-21.253l-3.112,15.027c-0.215,1.003-0.662,1.755-1.342,2.254
	c-0.681,0.5-1.414,0.752-2.2,0.752c-1.003,0-1.897-0.322-2.684-0.966c-0.788-0.645-1.181-1.538-1.181-2.684
	c0-0.143-0.019-0.285-0.054-0.43c-0.037-0.143-0.019-0.285,0.054-0.43c0.429-2.146,0.912-4.543,1.449-7.191
	c0.536-2.646,1.09-5.402,1.663-8.265c0.572-2.861,1.162-5.76,1.771-8.694c0.607-2.934,1.197-5.76,1.771-8.479
	c1.288-6.368,2.647-12.916,4.079-19.644c0.572-2.646,1.825-4.578,3.757-5.796c1.933-1.216,4.257-1.825,6.978-1.825
	c1.932,0,3.559,0.252,4.884,0.752c1.323,0.501,2.415,1.234,3.273,2.2c0.859,0.966,1.538,2.111,2.04,3.435
	c0.499,1.325,0.894,2.774,1.181,4.348l8.802,49.268v0.859H1080.045z M1063.3,376.222c-0.215-1.002-0.608-1.61-1.181-1.825
	s-1.325-0.322-2.254-0.322c-1.288,0-2.184,0.359-2.684,1.073c-0.502,0.717-0.931,1.862-1.288,3.436l-5.475,26.834h18.677
	L1063.3,376.222z"/>
<path fill="#344A61" d="M1130.6,370.854c0,0.931-0.322,1.789-0.966,2.576c-0.645,0.788-1.575,1.181-2.791,1.181h-14.491v52.811
	c0,1.217-0.375,2.146-1.127,2.79c-0.751,0.645-1.628,0.967-2.63,0.967c-0.931,0-1.789-0.322-2.575-0.967
	c-0.789-0.644-1.182-1.573-1.182-2.79v-52.811h-14.49c-1.218,0-2.146-0.376-2.791-1.127c-0.644-0.752-0.966-1.627-0.966-2.63
	c0-0.93,0.322-1.788,0.966-2.576c0.645-0.787,1.573-1.181,2.791-1.181h36.495c1.216,0,2.146,0.376,2.791,1.127
	C1130.278,368.976,1130.6,369.854,1130.6,370.854z"/>
<path fill="#344A61" d="M1160.761,426.885c0,0.931-0.322,1.789-0.966,2.576c-0.645,0.788-1.61,1.181-2.898,1.181h-17.174
	c-1.288,0-2.254-0.376-2.898-1.127c-0.644-0.752-0.966-1.627-0.966-2.63c0-0.929,0.322-1.788,0.966-2.576
	c0.645-0.786,1.61-1.181,2.898-1.181h4.83v-48.517h-4.83c-1.288,0-2.254-0.376-2.898-1.127c-0.644-0.752-0.966-1.627-0.966-2.63
	c0-0.93,0.322-1.788,0.966-2.576c0.645-0.787,1.61-1.181,2.898-1.181h17.174c1.288,0,2.254,0.376,2.898,1.127
	c0.644,0.751,0.966,1.629,0.966,2.63c0,0.931-0.322,1.789-0.966,2.576c-0.645,0.788-1.61,1.181-2.898,1.181h-4.83v48.517h4.83
	c1.288,0,2.254,0.395,2.898,1.181C1160.439,425.097,1160.761,425.956,1160.761,426.885z"/>
<path fill="#344A61" d="M1216.469,426.992c0,1.003-0.376,1.878-1.127,2.63c-0.752,0.751-1.629,1.127-2.63,1.127h-4.294
	c-0.501,0-1.146-0.269-1.932-0.805c-0.788-0.537-1.288-1.021-1.503-1.449l-21.79-49.483v48.41c0,1.217-0.375,2.146-1.127,2.79
	c-0.751,0.645-1.628,0.967-2.63,0.967c-0.931,0-1.789-0.322-2.576-0.967c-0.788-0.644-1.181-1.573-1.181-2.79v-56.567
	c0-1.001,0.376-1.879,1.127-2.63c0.752-0.751,1.627-1.127,2.63-1.127h4.294c0.5,0,1.144,0.269,1.932,0.805
	c0.787,0.537,1.288,1.02,1.503,1.449l21.79,49.482v-48.302c0-1.216,0.376-2.146,1.127-2.791c0.751-0.644,1.627-0.966,2.63-0.966
	c0.929,0,1.788,0.322,2.576,0.966c0.786,0.645,1.181,1.575,1.181,2.791V426.992z"/>
<path fill="#344A61" d="M1277.651,415.614c0,2.361-0.376,4.473-1.127,6.333c-0.752,1.861-1.809,3.435-3.167,4.723
	c-1.359,1.288-2.951,2.272-4.776,2.952c-1.824,0.681-3.811,1.02-5.957,1.02h-11.808c-2.076,0-4.024-0.339-5.85-1.02
	c-1.825-0.68-3.418-1.664-4.776-2.952c-1.36-1.288-2.434-2.861-3.221-4.723c-0.788-1.86-1.181-3.972-1.181-6.333v-33.489
	c0-2.361,0.393-4.472,1.181-6.333c0.787-1.86,1.86-3.435,3.221-4.723c1.358-1.288,2.951-2.271,4.776-2.952
	c1.825-0.68,3.773-1.02,5.85-1.02h11.808c4.294,0,7.853,1.288,10.68,3.864c2.826,2.576,4.275,6.118,4.348,10.626v0.107v0.107
	c0,1.218-0.395,2.13-1.181,2.737c-0.788,0.608-1.647,0.912-2.576,0.912c-0.931,0-1.771-0.304-2.522-0.912
	c-0.751-0.607-1.164-1.52-1.234-2.737c-0.072-2.361-0.77-4.149-2.093-5.367c-1.325-1.216-3.132-1.824-5.421-1.824h-11.808
	c-2.291,0-4.115,0.627-5.474,1.878c-1.36,1.253-2.04,3.132-2.04,5.636v33.489c0,2.506,0.68,4.384,2.04,5.635
	c1.358,1.253,3.183,1.879,5.474,1.879h11.808c2.361,0,4.203-0.626,5.528-1.879c1.323-1.251,1.985-3.129,1.985-5.635v-11.378h-9.66
	c-1.218,0-2.147-0.375-2.791-1.127c-0.645-0.751-0.966-1.627-0.966-2.63c0-0.929,0.321-1.787,0.966-2.576
	c0.644-0.786,1.573-1.181,2.791-1.181h13.417c1.001,0,1.878,0.376,2.63,1.127c0.751,0.752,1.127,1.629,1.127,2.63L1277.651,415.614
	L1277.651,415.614z"/>
<path fill="#344A61" d="M1369.21,372.465c0,1.359-0.429,2.576-1.288,3.649c-0.858,1.073-2.184,1.609-3.971,1.609h-12.988v48.088
	c0,1.789-0.544,3.131-1.627,4.025s-2.312,1.342-3.687,1.342c-1.373,0-2.619-0.448-3.74-1.342c-1.12-0.895-1.681-2.236-1.681-4.025
	v-48.088h-12.88c-1.79,0-3.132-0.536-4.025-1.609c-0.896-1.073-1.342-2.29-1.342-3.649c0-1.359,0.446-2.594,1.342-3.703
	c0.894-1.109,2.235-1.664,4.025-1.664h36.603c1.787,0,3.112,0.555,3.971,1.664C1368.781,369.871,1369.21,371.105,1369.21,372.465z"
	/>
<path fill="#344A61" d="M1422.664,425.704c0,1.861-0.555,3.257-1.663,4.187c-1.11,0.929-2.345,1.395-3.703,1.395
	c-1.36,0-2.595-0.466-3.703-1.395c-1.11-0.93-1.664-2.325-1.664-4.187V402.09h-24.044v23.614c0,1.861-0.555,3.257-1.664,4.187
	c-1.11,0.929-2.345,1.395-3.703,1.395c-1.36,0-2.595-0.466-3.703-1.395c-1.11-0.93-1.663-2.325-1.663-4.187v-53.562
	c0-1.86,0.553-3.256,1.663-4.187c1.108-0.929,2.343-1.396,3.703-1.396c1.358,0,2.593,0.468,3.703,1.402
	c1.109,0.935,1.664,2.335,1.664,4.203v19.297h24.044v-19.297c0-1.868,0.554-3.269,1.664-4.203c1.108-0.935,2.343-1.402,3.703-1.402
	c1.358,0,2.593,0.467,3.703,1.396c1.108,0.931,1.663,2.326,1.663,4.187V425.704z"/>
<path fill="#344A61" d="M1482.772,425.274c0,1.36-0.43,2.595-1.288,3.703c-0.859,1.11-2.185,1.664-3.972,1.664h-33.437
	c-1.445,0-2.712-0.537-3.795-1.61c-1.084-1.073-1.625-2.324-1.625-3.757v-52.917c0-1.431,0.541-2.684,1.625-3.757
	c1.083-1.073,2.35-1.61,3.795-1.61h32.363c1.787,0,3.112,0.555,3.971,1.664c0.859,1.11,1.288,2.345,1.288,3.703
	c0,1.359-0.429,2.576-1.288,3.649c-0.858,1.073-2.184,1.609-3.971,1.609h-27.05v15.564h11.163c1.788,0,3.113,0.55,3.972,1.647
	c0.859,1.097,1.288,2.32,1.288,3.666c0,1.347-0.43,2.569-1.288,3.666c-0.858,1.099-2.184,1.647-3.972,1.647h-11.163v16.207h28.123
	c1.787,0,3.112,0.537,3.972,1.61C1482.343,422.698,1482.772,423.916,1482.772,425.274z"/>
<path fill="#344A61" d="M1582.058,372.356c0,1.36-0.45,2.58-1.34,3.65c-0.9,1.07-2.24,1.61-4.03,1.61h-12.88v48.2
	c0,1.78-0.54,3.13-1.62,4.02c-1.09,0.89-2.32,1.34-3.69,1.34s-2.62-0.45-3.74-1.34s-1.68-2.24-1.68-4.02v-48.2h-49.48v15.56h11.05
	c1.79,0,3.13,0.55,4.03,1.65c0.89,1.1,1.34,2.32,1.34,3.67c0,1.34-0.45,2.57-1.34,3.66c-0.9,1.1-2.24,1.65-4.03,1.65h-11.05v21.9
	c0,1.79-0.56,3.13-1.67,4.02c-1.11,0.9-2.34,1.35-3.7,1.35s-2.59-0.45-3.7-1.35c-1.11-0.89-1.67-2.23-1.67-4.02v-53.35
	c0-1.43,0.54-2.68,1.61-3.76c1.08-1.07,2.33-1.61,3.76-1.61h78.46c1.79,0,3.13,0.56,4.03,1.67
	C1581.608,369.766,1582.058,370.996,1582.058,372.356z"/>
<polygon fill="#1F2938" points="1581.508,120.39 1581.508,324.187 1348.596,324.187 1348.596,295.073 1552.394,295.073 
	1552.394,265.959 1348.596,265.959 1348.596,120.39 1377.71,120.39 1377.71,236.845 1552.394,236.845 1552.394,120.39 "/>
<path fill="#1F2938" d="M562.519,120.39v203.798h29.114V265.96h203.798V120.39H562.519z M766.317,236.845H591.633v-87.342h174.684
	V236.845z"/>
<polygon fill="#1F2938" points="1057.457,120.39 1057.457,149.503 853.659,149.503 853.659,265.959 824.545,265.959 824.545,120.39 
	"/>
<path fill="#1F2938" d="M1086.57,120.39v145.57h232.912v-29.114h-203.798v-29.114h203.798V120.39H1086.57z M1290.368,178.617
	h-174.684v-29.114h174.684V178.617z"/>
<polygon fill="#3D77B7" points="230.146,14.574 161.765,54.042 207.386,80.247 230.095,67.145 253.221,80.496 298.757,54.205 "/>
<polygon fill="#344A61" points="230.168,317.047 309.809,271.031 264.333,244.747 230.147,264.477 196.014,244.451 150.424,270.726 
	"/>
<polygon fill="#3D77B7" points="230.237,422.258 400.753,323.448 400.913,218.186 355.397,244.498 355.4,297.082 230.242,369.653 
	104.956,297.082 104.842,244.467 59.32,218.185 59.4,323.418 "/>
<polygon fill="#1F2938" points="230.162,119.855 207.357,132.993 13.769,21.146 13.769,86.842 230.088,211.898 446.37,86.957 
	446.394,21.18 252.984,133.037 "/>
<polygon fill="#28394D" points="230.154,211.843 195.989,192.118 36.697,99.979 36.697,152.576 230.154,264.451 423.717,152.591 
	423.73,100.003 264.358,192.154 "/>
</svg>
