<?xml version="1.0" encoding="utf-8"?>
<!-- Generator: Adobe Illustrator 17.0.0, SVG Export Plug-In . SVG Version: 6.00 Build 0)  -->
<!DOCTYPE svg PUBLIC "-//W3C//DTD SVG 1.1//EN" "http://www.w3.org/Graphics/SVG/1.1/DTD/svg11.dtd">
<svg version="1.1" id="Layer_1" xmlns="http://www.w3.org/2000/svg" xmlns:xlink="http://www.w3.org/1999/xlink" x="0px" y="0px"
	 width="1595.277px" height="436.832px" viewBox="0 0 1595.277 436.832" enable-background="new 0 0 1595.277 436.832"
	 xml:space="preserve">
<polygon fill="#EFEAE8" points="1581.508,120.39 1581.508,324.187 1348.596,324.187 1348.596,295.073 1552.394,295.073 
	1552.394,265.959 1348.596,265.959 1348.596,120.39 1377.71,120.39 1377.71,236.845 1552.394,236.845 1552.394,120.39 "/>
<path fill="#EFEAE8" d="M562.519,120.39v203.798h29.114V265.96h203.798V120.39H562.519z M766.317,236.845H591.633v-87.342h174.684
	V236.845z"/>
<polygon fill="#EFEAE8" points="1057.457,120.39 1057.457,149.503 853.659,149.503 853.659,265.959 824.545,265.959 824.545,120.39 
	"/>
<path fill="#EFEAE8" d="M1086.57,120.39v145.57h232.912v-29.114h-203.798v-29.114h203.798V120.39H1086.57z M1290.368,178.617
	h-174.684v-29.114h174.684V178.617z"/>
<polygon fill="#EFEAE8" points="230.146,14.574 161.765,54.042 207.386,80.247 230.095,67.145 253.221,80.496 298.757,54.205 "/>
<polygon fill="#EFEAE8" points="446.369,86.956 446.398,21.176 252.989,133.036 230.159,119.856 207.359,132.996 13.768,21.146 
	13.768,86.846 36.698,100.106 36.698,152.576 195.799,244.576 150.429,270.726 230.169,317.046 309.809,271.036 264.328,244.746 
	423.719,152.596 423.729,100.036 "/>
<polygon fill="#EFEAE8" points="230.237,422.258 400.753,323.448 400.913,218.186 355.397,244.498 355.4,297.082 230.242,369.653 
	104.956,297.082 104.842,244.467 59.32,218.185 59.4,323.418 "/>
</svg>
