<?xml version="1.0" encoding="utf-8"?>
<!-- Generator: Adobe Illustrator 17.0.0, SVG Export Plug-In . SVG Version: 6.00 Build 0)  -->
<!DOCTYPE svg PUBLIC "-//W3C//DTD SVG 1.1//EN" "http://www.w3.org/Graphics/SVG/1.1/DTD/svg11.dtd">
<svg version="1.1" id="Layer_1" xmlns="http://www.w3.org/2000/svg" xmlns:xlink="http://www.w3.org/1999/xlink" x="0px" y="0px"
	 width="244px" height="131px" viewBox="-15.039 0 244 131" enable-background="new -15.039 0 244 131" xml:space="preserve">
<g>
	<path fill="#23B37F" d="M160.709,69.489c0,1.2-0.2,2.275-0.6,3.226c-0.4,0.949-0.942,1.767-1.625,2.449
		c-0.684,0.684-1.5,1.2-2.45,1.551c-0.95,0.35-1.975,0.524-3.075,0.524h-5.5c-1.067,0-2.067-0.175-3-0.524
		c-0.934-0.351-1.75-0.858-2.45-1.525c-0.7-0.666-1.258-1.482-1.675-2.45c-0.417-0.966-0.625-2.05-0.625-3.25v-6.2
		c0-1.199,0.208-2.282,0.625-3.25c0.417-0.966,0.975-1.783,1.675-2.45s1.517-1.175,2.45-1.525c0.933-0.35,1.933-0.525,3-0.525h5.5
		c1.1,0,2.125,0.175,3.075,0.525c0.95,0.35,1.766,0.867,2.45,1.55c0.683,0.684,1.225,1.5,1.625,2.45s0.6,2.025,0.6,3.225V69.489z
		 M155.709,63.289c0-1.866-0.917-2.8-2.75-2.8l-5.5,0.05c-1.833,0-2.75,0.918-2.75,2.75v6.2c0,1.867,0.917,2.8,2.75,2.8h5.5
		c1.833,0,2.75-0.933,2.75-2.8V63.289z"/>
	<path fill="#23B37F" d="M188.709,74.84c0,0.833-0.259,1.458-0.775,1.875c-0.517,0.417-1.092,0.625-1.725,0.625
		c-0.634,0-1.208-0.208-1.725-0.625c-0.517-0.417-0.775-1.042-0.775-1.875V63.289c0-1.866-0.917-2.8-2.75-2.8l-5.5,0.05
		c-1.833,0-2.75,0.918-2.75,2.75V74.89c0,0.833-0.259,1.458-0.775,1.875c-0.517,0.417-1.092,0.625-1.725,0.625
		c-0.634,0-1.208-0.208-1.725-0.625c-0.517-0.417-0.775-1.042-0.775-1.875V62.84v-5c0-0.833,0.258-1.458,0.775-1.875
		s1.091-0.625,1.725-0.625c0.833,0,1.466,0.333,1.9,1c0.466-0.266,0.992-0.466,1.575-0.6c0.583-0.133,1.175-0.2,1.775-0.2h5.5
		c1.1,0,2.125,0.175,3.075,0.525c0.95,0.35,1.766,0.867,2.45,1.55c0.683,0.684,1.225,1.5,1.625,2.45s0.6,2.025,0.6,3.225
		L188.709,74.84L188.709,74.84z"/>
</g>
<g>
	<path fill="#DDDDDD" d="M44.211,69.489c0,1.2-0.2,2.275-0.6,3.226c-0.4,0.949-0.942,1.767-1.625,2.449
		c-0.684,0.684-1.5,1.2-2.45,1.551c-0.95,0.35-1.975,0.524-3.075,0.524h-5.5c-1.067,0-2.067-0.175-3-0.524
		c-0.934-0.351-1.75-0.858-2.45-1.525c-0.7-0.666-1.258-1.482-1.675-2.45c-0.417-0.966-0.625-2.05-0.625-3.25v-6.2
		c0-1.199,0.208-2.282,0.625-3.25c0.417-0.966,0.975-1.783,1.675-2.45c0.7-0.667,1.517-1.175,2.45-1.525
		c0.933-0.35,1.933-0.525,3-0.525h5.5c1.1,0,2.125,0.175,3.075,0.525c0.95,0.35,1.766,0.867,2.45,1.55
		c0.683,0.684,1.225,1.5,1.625,2.45s0.6,2.025,0.6,3.225V69.489z M39.211,63.289c0-1.866-0.917-2.8-2.75-2.8l-5.5,0.05
		c-1.833,0-2.75,0.918-2.75,2.75v6.2c0,1.867,0.917,2.8,2.75,2.8h5.5c1.833,0,2.75-0.933,2.75-2.8V63.289z"/>
	<path fill="#DDDDDD" d="M63.96,48.739c0,0.6-0.208,1.159-0.625,1.675c-0.417,0.517-1.042,0.775-1.875,0.775h-0.7
		c-1.833,0-2.75,0.934-2.75,2.8v1.55h3.35c0.833,0,1.458,0.267,1.875,0.8c0.417,0.534,0.625,1.1,0.625,1.7s-0.208,1.159-0.625,1.675
		c-0.417,0.517-1.042,0.775-1.875,0.775h-3.35V74.84c0,0.833-0.267,1.458-0.8,1.875c-0.534,0.417-1.1,0.625-1.7,0.625
		c-0.6,0-1.167-0.208-1.7-0.625c-0.534-0.417-0.8-1.042-0.8-1.875V60.489h-1.55c-0.833,0-1.458-0.258-1.875-0.775
		c-0.417-0.516-0.625-1.075-0.625-1.675s0.208-1.167,0.625-1.7s1.042-0.8,1.875-0.8h1.55v-1.55c0-1.2,0.2-2.275,0.6-3.225
		c0.4-0.95,0.941-1.767,1.625-2.45c0.683-0.683,1.5-1.2,2.45-1.55s1.975-0.525,3.075-0.525h0.7c0.833,0,1.458,0.268,1.875,0.8
		C63.752,47.573,63.96,48.14,63.96,48.739z"/>
	<path fill="#DDDDDD" d="M82.71,48.739c0,0.6-0.208,1.159-0.625,1.675c-0.417,0.517-1.042,0.775-1.875,0.775h-0.7
		c-1.833,0-2.75,0.934-2.75,2.8v1.55h3.35c0.833,0,1.458,0.267,1.875,0.8c0.417,0.534,0.625,1.1,0.625,1.7s-0.208,1.159-0.625,1.675
		c-0.417,0.517-1.042,0.775-1.875,0.775h-3.35V74.84c0,0.833-0.267,1.458-0.8,1.875c-0.534,0.417-1.1,0.625-1.7,0.625
		s-1.167-0.208-1.7-0.625c-0.534-0.417-0.8-1.042-0.8-1.875V60.489h-1.55c-0.833,0-1.458-0.258-1.875-0.775
		c-0.417-0.516-0.625-1.075-0.625-1.675s0.208-1.167,0.625-1.7s1.042-0.8,1.875-0.8h1.55v-1.55c0-1.2,0.2-2.275,0.6-3.225
		c0.4-0.95,0.941-1.767,1.625-2.45c0.683-0.683,1.5-1.2,2.45-1.55s1.975-0.525,3.075-0.525h0.7c0.833,0,1.458,0.268,1.875,0.8
		C82.502,47.573,82.71,48.14,82.71,48.739z"/>
</g>
<rect x="-1.04" y="18" fill="none" stroke="#F4F4F4" stroke-miterlimit="10" width="215" height="90"/>
<g>
	<path fill="#EFEAE8" d="M-0.039,107V95.82h-2V109h13.5v-2H-0.039z M212.961,107h-11.5v2h13.5V95.82h-2V107z M201.461,17v2h11.5
		v11.82h2V17H201.461z M-2.039,17v13.82h2V19h11.5v-2H-2.039z"/>
</g>
<line fill="none" stroke="#3578BB" stroke-width="5" stroke-miterlimit="10" x1="134.46" y1="85" x2="193.959" y2="85"/>
</svg>
