<?xml version="1.0" standalone="no"?>
<!DOCTYPE svg PUBLIC "-//W3C//DTD SVG 1.1//EN" "http://www.w3.org/Graphics/SVG/1.1/DTD/svg11.dtd" >
<svg xmlns="http://www.w3.org/2000/svg" xmlns:xlink="http://www.w3.org/1999/xlink" version="1.1">
<metadata></metadata>
<defs>
<font id="magdacleanmonobold" horiz-adv-x="1126" >
<font-face units-per-em="2048" ascent="1638" descent="-410" />
<missing-glyph horiz-adv-x="500" />
<glyph unicode="&#xfb01;" d="M12 784q0 39 24.5 71t76.5 32h67v63q0 74 23.5 132.5t66.5 100.5t100.5 63.5t125.5 21.5h92q86 0 146.5 -34t101.5 -93q10 -16 20 -31.5t10 -36.5q0 -43 -30.5 -71.5t-71.5 -28.5q-25 0 -46.5 11t-35.5 34q-16 27 -36.5 37t-57.5 10h-92q-113 0 -113 -115v-63h403 q49 0 85 -36t36 -87v-561h105q51 0 75.5 -31t24.5 -70t-24.5 -70.5t-75.5 -31.5h-381q-51 0 -77 31.5t-26 70.5t26 70t77 31h74v481h-322v-590q0 -51 -32 -76.5t-70 -25.5q-39 0 -70 25.5t-31 76.5v590h-67q-51 0 -76 30.5t-25 69.5z" />
<glyph unicode="&#xfb02;" d="M12 784q0 39 24.5 71t76.5 32h67v63q0 74 23.5 133.5t66.5 100.5t100.5 62.5t125.5 21.5h309q41 0 71.5 -31t30.5 -72v-962h103q51 0 76.5 -31t25.5 -70t-25.5 -70.5t-76.5 -31.5h-379q-51 0 -76 31.5t-25 70.5t25 70t76 31h76v862h-211q-113 0 -113 -115v-63h121 q51 0 76.5 -32t25.5 -71t-25.5 -69.5t-76.5 -30.5h-121v-590q0 -51 -32 -76.5t-70 -25.5q-39 0 -70 25.5t-31 76.5v590h-67q-51 0 -76 30.5t-25 69.5z" />
<glyph horiz-adv-x="0" />
<glyph unicode="&#xd;" />
<glyph unicode=" " />
<glyph unicode="!" d="M365 1092q0 86 58 134t138 48q92 0 147.5 -50.5t55.5 -144.5q0 -33 -6 -55.5t-10 -50.5q-16 -70 -29 -142q-10 -61 -19.5 -132.5t-11.5 -131.5q-2 -47 -38 -84t-85 -37q-45 0 -83 34t-40 87q-2 59 -11 130t-20.5 131.5t-19.5 101.5l-8 41q-4 33 -11 60.5t-7 60.5z M373 170q0 39 15 74t41 60.5t60.5 39.5t73.5 14t74 -14t60.5 -39.5t40 -60.5t14.5 -74t-14.5 -74t-40 -60.5t-60.5 -40.5t-74 -15t-73.5 15t-60.5 40.5t-41 60.5t-15 74z" />
<glyph unicode="&#x22;" d="M240 1167v11q0 59 36.5 94t90.5 35h2h2q51 0 91 -36t40 -97v-11q-2 -35 -7.5 -82t-9.5 -94t-8 -86t-6 -55q-6 -53 -35.5 -78t-64.5 -25t-66 26t-37 79q-2 20 -6 59t-8 85t-8 93.5t-6 81.5zM629 1178q0 59 38 94t91 35h2h2q51 0 91 -36t40 -97q0 -4 -1 -5.5t-1 -5.5 q-2 -35 -6 -82t-9.5 -94t-8.5 -86t-5 -55q-6 -53 -35.5 -78t-64.5 -25t-65.5 26t-37.5 79q-2 20 -6 59t-8 85t-8 93.5t-6 81.5q0 4 -1 5.5t-1 5.5z" />
<glyph unicode="#" d="M41 496q0 37 24.5 67.5t73.5 30.5h131v192h-131q-49 0 -73.5 31t-24.5 68t24.5 67.5t73.5 30.5h131v129q0 49 31 73.5t68 24.5t67.5 -24.5t30.5 -73.5v-129h192v129q0 49 31 73.5t68 24.5t67.5 -24.5t30.5 -73.5v-129h129q49 0 73.5 -30.5t24.5 -67.5t-24.5 -68 t-73.5 -31h-129v-192h129q49 0 73.5 -30.5t24.5 -67.5t-24.5 -68t-73.5 -31h-129v-131q0 -49 -30.5 -73.5t-67.5 -24.5t-68 24.5t-31 73.5v131h-192v-131q0 -49 -30.5 -73.5t-67.5 -24.5t-68 24.5t-31 73.5v131h-131q-49 0 -73.5 31t-24.5 68zM465 592h194v194h-194v-194z " />
<glyph unicode="$" d="M141 877q0 6 1 23.5t1 21.5q2 66 27 118t62.5 88.5t89 59t108.5 26.5q6 0 22.5 1.5t22.5 1.5v100q0 51 32 76.5t71 25.5t70.5 -25.5t31.5 -76.5v-103h33q82 -4 148.5 -45t103.5 -118q6 -12 10 -23.5t4 -26.5q0 -43 -30.5 -71.5t-71.5 -28.5q-63 0 -93 62q-23 49 -84 49 h-241q-113 0 -113 -113q0 -16 -1 -37.5t3 -27.5q4 -31 13.5 -51.5t34 -31t66.5 -14.5t109 -4q213 0 321.5 -85t108.5 -275v-60q0 -137 -80.5 -219t-203.5 -92q-4 0 -17.5 -1t-17.5 -1v-129q0 -51 -32 -76.5t-70 -25.5q-39 0 -71 25.5t-32 76.5v129h-47q-98 6 -175 62.5 t-105 158.5q-4 20 -5 33q0 47 33 72.5t74 25.5q31 0 57.5 -17.5t36.5 -58.5q10 -33 36 -53t73 -20h229q113 0 113 110v60q0 45 -10.5 74.5t-35 48t-68.5 25.5t-112 7q-98 0 -178 12.5t-136 50.5t-86 106.5t-30 179.5z" />
<glyph unicode="%" d="M-4 907v152q0 121 72.5 189.5t179.5 68.5h55q51 0 125 17.5t151.5 45t148.5 62.5t116 67q25 18 51.5 39t60.5 47q41 29 76 29q37 0 60.5 -24.5t23.5 -63.5q0 -33 -16 -63l-899 -1719q-16 -29 -39 -41t-45 -12q-39 0 -71 26.5t-32 67.5q0 25 13 49l731 1393l-4 4 q-55 -25 -127 -47.5t-138 -38.5q8 -33 12.5 -51.5t4.5 -44.5v-152q0 -121 -70.5 -190.5t-181.5 -69.5q-53 0 -100.5 18.5t-82 52.5t-55 82t-20.5 107zM197 907q0 -59 57 -59q31 0 41 13t10 46v152q0 33 -11 45t-42 12q-55 0 -55 -57v-152zM621 250v151q0 121 72.5 189.5 t178.5 68.5q111 0 183.5 -68.5t72.5 -189.5v-151q0 -121 -70.5 -189.5t-180.5 -68.5q-53 0 -99.5 17.5t-81 51t-55 81.5t-20.5 108zM821 250q0 -57 56 -57q31 0 41 12t10 45v151q0 33 -12.5 45.5t-43.5 12.5q-29 0 -40 -13.5t-11 -44.5v-151z" />
<glyph unicode="&#x26;" d="M135 315v86q0 72 22.5 126.5t61.5 95.5q-63 82 -63 208v68q0 72 28.5 131.5t77.5 102.5t115.5 67.5t140.5 24.5q98 0 179 -15.5t167 -60.5q33 -14 51.5 -39t18.5 -53q0 -41 -27.5 -72t-75.5 -31q-16 0 -37.5 6.5t-35.5 16.5q-6 4 -13.5 7t-15.5 7q-47 23 -105.5 27 t-105.5 4q-82 0 -120 -40t-38 -83v-68q0 -68 25 -90t68 -22h75q51 0 76 -32t25 -71t-24.5 -70.5t-76.5 -31.5h-75q-113 0 -113 -113v-86q0 -113 113 -112h206q113 0 113 112v299q0 41 31 72t71 31h140q51 0 76.5 -32t25.5 -71q0 -29 -16.5 -54t-46.5 -36q-8 -6 -37 -9 t-41 -3v-197q0 -74 -24.5 -132t-66.5 -99t-100.5 -62.5t-126.5 -21.5h-204q-66 0 -123.5 21.5t-100.5 61.5t-68.5 99.5t-25.5 132.5z" />
<glyph unicode="'" d="M436 1180q0 59 39 94t92 35h2q51 0 91 -36t40 -97v-11q-2 -35 -7 -82t-9 -94t-8 -86t-6 -55q-6 -53 -36 -78t-65 -25t-65.5 25t-36.5 78l-6 60t-8 86t-8.5 93.5t-6.5 81.5q0 4 -1 5.5t-1 5.5z" />
<glyph unicode="(" d="M264 694q0 170 35 314.5t89 259t117.5 201.5t121.5 143q31 31 67 30q41 0 71 -29.5t30 -68.5q0 -37 -31 -67q-47 -45 -100.5 -118t-98.5 -171t-75.5 -222t-30.5 -272q0 -147 30.5 -271t75.5 -222.5t98.5 -171t100.5 -117.5q31 -31 31 -68q0 -39 -30 -68.5t-71 -29.5 q-37 0 -67 31q-57 55 -121 142t-118 202t-89 259t-35 314z" />
<glyph unicode=")" d="M289 -156q0 37 30 68q45 45 99.5 117.5t99.5 171t76 222.5t31 271t-31 271.5t-76 222.5t-99 171t-100 118q-31 31 -30 67q0 39 29.5 68.5t70.5 29.5q37 0 68 -30q57 -55 120.5 -142.5t117 -202t89 -259t35.5 -314.5t-35.5 -314t-89 -259t-117 -202t-120.5 -142 q-31 -31 -68 -31q-41 0 -70.5 29.5t-29.5 68.5z" />
<glyph unicode="*" d="M76 969q0 39 25.5 70.5t76.5 31.5h211l-106 182q-16 29 -17 54q0 43 34 71.5t75 28.5q25 0 46 -12.5t38 -40.5l106 -185l105 187q16 29 37.5 40t46.5 11q41 0 74.5 -28.5t33.5 -71.5q0 -25 -16 -54l-107 -182h213q51 0 76 -31.5t25 -70.5t-24.5 -71t-76.5 -32h-213 l107 -182q16 -29 16 -53q0 -43 -33.5 -72t-74.5 -29q-25 0 -46.5 11.5t-37.5 40.5l-105 186l-106 -186q-16 -29 -38 -40.5t-46 -11.5q-41 0 -75 29t-34 72q0 25 17 53l106 182h-211q-51 0 -76.5 32t-25.5 71z" />
<glyph unicode="+" d="M68 569q0 39 25.5 71t78.5 32h289v289q0 53 31.5 78.5t70.5 25.5t71 -25.5t32 -78.5v-289h286q53 0 80 -32t27 -71t-26.5 -70.5t-80.5 -31.5h-286v-287q0 -53 -32 -79.5t-71 -26.5t-70.5 26.5t-31.5 79.5v287h-289q-53 0 -78.5 31.5t-25.5 70.5z" />
<glyph unicode="," d="M352 166q0 39 15.5 74.5t42 63.5t63.5 43t78 15t78 -16t64.5 -44t43 -63.5t15.5 -76.5q0 -82 -35 -152q-35 -68 -83 -117t-102 -102q-33 -33 -73 -33q-41 0 -72 31t-31 72q0 37 33 69q16 16 35.5 37t36.5 37q-53 25 -81 63.5t-28 98.5z" />
<glyph unicode="-" d="M16 584q0 39 27 70.5t80 31.5h881q53 0 79.5 -31.5t26.5 -70.5t-26.5 -71t-79.5 -32h-881q-53 0 -80 32t-27 71z" />
<glyph unicode="." d="M352 172q0 41 15.5 77t42 63.5t63.5 43t78 15.5q59 0 109.5 -34t72.5 -87q17 -39 17 -78q0 -41 -15.5 -78t-43 -63.5t-63.5 -42t-77 -15.5t-77 15.5t-63.5 43t-43 63.5t-15.5 77z" />
<glyph unicode="/" d="M4 -131q0 23 16 55l904 1659q16 31 41.5 44t50.5 13q41 0 72.5 -28.5t31.5 -71.5q0 -27 -14 -55l-905 -1659q-16 -31 -41 -45t-49 -14q-41 0 -74 29.5t-33 72.5z" />
<glyph unicode="0" d="M133 315v580q0 74 25.5 132t68.5 100t100.5 63.5t123.5 21.5h225q68 0 126 -21.5t100 -63.5t66.5 -100t24.5 -132v-580q0 -74 -24.5 -132t-66.5 -99t-100.5 -62.5t-125.5 -21.5h-225q-66 0 -123.5 21.5t-100.5 62.5t-68.5 99.5t-25.5 131.5zM338 315q0 -113 113 -112h225 q113 0 112 112v580q0 113 -112 113h-225q-113 0 -113 -113v-580z" />
<glyph unicode="1" d="M109 100q0 39 25.5 71t76.5 32h266v807h-164q-51 0 -76.5 30.5t-25.5 69.5t25.5 70.5t76.5 31.5h267q41 0 71.5 -30.5t30.5 -71.5v-907h246q53 0 79.5 -32t26.5 -71t-26.5 -69.5t-79.5 -30.5h-348h-369q-51 0 -76.5 30.5t-25.5 69.5z" />
<glyph unicode="2" d="M133 96q0 39 33 76l545 567q31 33 49 70t18 84q0 117 -112 117h-197q-53 0 -84 -29t-31 -86q0 -51 -30.5 -75.5t-69.5 -24.5t-70.5 24.5t-31.5 75.5q0 74 24.5 132t67.5 100t101 63.5t124 21.5h197q68 0 125 -21.5t100 -63.5t66.5 -100t23.5 -132q0 -63 -13.5 -110.5 t-37 -85t-55 -70.5t-66.5 -70l-346 -356h432q51 0 76.5 -31t25.5 -70t-25.5 -70.5t-76.5 -31.5h-657q-47 0 -76 27.5t-29 68.5z" />
<glyph unicode="3" d="M133 317q0 51 32 76t71 25t70.5 -24.5t31.5 -76.5q0 -115 113 -114h225q113 0 112 114v152q0 113 -112 113h-107q-47 0 -73.5 29.5t-26.5 70.5q0 27 12.5 46.5t26.5 37.5l174 244h-328v-54q0 -51 -31.5 -76.5t-70.5 -25.5t-69.5 25.5t-30.5 76.5v156q0 41 29.5 71.5 t70.5 30.5h614q41 0 71 -29.5t30 -72.5q0 -20 -6.5 -35.5t-10.5 -21.5q-49 -68 -88 -125q-35 -49 -67.5 -95.5t-42.5 -60.5q6 -2 13 -3t13 -3q94 -27 154.5 -103.5t60.5 -195.5v-152q0 -74 -25.5 -133t-68.5 -100t-100.5 -62.5t-122.5 -21.5h-225q-68 0 -126.5 21.5 t-100.5 63.5t-66.5 100.5t-24.5 131.5z" />
<glyph unicode="4" d="M51 311q0 33 23 66q4 8 37.5 60t82 130t105.5 170t111.5 178t98.5 157t66 106q33 49 82 49q41 0 74 -30t33 -73q0 -31 -16 -55l-408 -651h354v387q0 51 31 76.5t70 25.5t70.5 -25.5t31.5 -76.5v-387h47q51 0 77 -31t26 -70t-26 -70.5t-77 -31.5h-47v-123 q0 -51 -31.5 -76.5t-70.5 -25.5t-70 25.5t-31 76.5v123h-538h-2q-45 0 -74 27.5t-29 68.5z" />
<glyph unicode="5" d="M135 295q0 49 33 74.5t72 25.5q35 0 64.5 -22.5t33.5 -69.5q6 -100 113 -100h225q113 0 112 112v179q0 113 -112 112h-225q-35 0 -65 -6t-46 -16h-2q-27 -20 -64 -21q-41 0 -74.5 27.5t-33.5 91.5v428q0 41 29.5 71.5t70.5 30.5h582q51 0 75.5 -30.5t24.5 -69.5 t-24.5 -69.5t-75.5 -30.5h-481v-213q20 4 40.5 6t43.5 2h225q66 0 123 -21.5t100 -62.5t68.5 -100.5t25.5 -133.5v-174q0 -74 -25.5 -133t-68.5 -99t-100.5 -61.5t-122.5 -21.5h-225q-123 0 -210 70.5t-104 199.5q0 6 -1 12.5t-1 12.5z" />
<glyph unicode="6" d="M133 315v275q0 70 4 132t21.5 121.5t52.5 117t96 118.5q43 43 102.5 73t127 48.5t136 26.5t130.5 8h37q49 -2 72.5 -34t23.5 -68q0 -39 -24.5 -70t-73.5 -31h-50q-166 0 -275.5 -58.5t-147.5 -193.5q43 16 86 17h225q68 0 126 -21.5t100 -62.5t66.5 -99.5t24.5 -132.5 v-166q0 -74 -24.5 -132t-66.5 -99t-100.5 -62.5t-125.5 -21.5h-225q-66 0 -123.5 21.5t-100.5 61.5t-68.5 99.5t-25.5 132.5zM338 315q0 -113 113 -112h225q113 0 112 112v166q0 113 -112 113h-225q-113 0 -113 -113v-166z" />
<glyph unicode="7" d="M141 926v184q0 41 31 71.5t72 30.5h721q51 0 79.5 -24.5t28.5 -63.5q0 -27 -20 -63q-82 -145 -156 -274.5t-131 -248t-94 -230t-43 -222.5q-4 -49 -35 -72.5t-68 -23.5t-69.5 24.5t-32.5 71.5v2q2 125 38 245t89 235.5t116.5 226t123.5 215.5h-445v-84q0 -51 -31.5 -76 t-70.5 -25t-71 24.5t-32 76.5z" />
<glyph unicode="8" d="M133 317v109q0 74 25.5 132t68.5 99q-29 39 -46 89.5t-17 109.5q0 10 1 36t3 36q6 66 31.5 119t67.5 90t96.5 56t117.5 19h164q66 0 123 -21.5t100 -62.5t69 -100t26 -133q0 -6 -1 -29.5t-1 -29.5q-6 -106 -64 -177q45 -41 70.5 -99t25.5 -134v-109q0 -74 -25.5 -133 t-68.5 -100t-100.5 -62.5t-122.5 -21.5h-225q-68 0 -126.5 21.5t-100.5 63.5t-66.5 100.5t-24.5 131.5zM338 317q0 -115 113 -114l225 2q113 0 112 112v109q0 113 -112 113h-225q-113 0 -113 -113v-109zM367 844q6 -100 112 -101h84h84q104 0 111 101v6v43q0 117 -115 117 h-162q-113 0 -112 -117q0 -4 -1 -18.5t-1 -24.5v-6z" />
<glyph unicode="9" d="M133 756v139q0 74 24.5 132t66.5 100t100.5 63.5t126.5 21.5h225q66 0 124 -21.5t101 -62.5t67.5 -100t24.5 -133l-2 -250q0 -72 -5 -138.5t-21.5 -129t-50 -122.5t-95.5 -122q-43 -43 -103.5 -72.5t-128 -48t-137 -27t-131.5 -8.5h-36q-49 2 -74 34t-25 69q0 39 26 69.5 t75 30.5h51q182 0 291.5 63.5t144.5 213.5q-45 -16 -96 -17h-225q-68 0 -126.5 21.5t-100.5 62.5t-66.5 99.5t-24.5 132.5zM338 754q0 -113 113 -113h225q113 0 112 113v141q0 115 -112 115h-225q-113 0 -113 -115v-141z" />
<glyph unicode=":" d="M352 172q0 41 15.5 77t42 63.5t63.5 43t78 15.5t78 -15.5t63.5 -43t42 -63.5t15.5 -77t-15.5 -78t-43 -63.5t-63.5 -42t-77 -15.5t-77 15.5t-63.5 43t-43 63.5t-15.5 77zM352 715q0 41 15.5 76.5t42 63.5t63.5 44t78 16t78 -16t63.5 -44t42 -63.5t15.5 -76.5t-15.5 -78 t-43 -63.5t-63.5 -42t-77 -15.5t-77 15.5t-63.5 43t-43 63.5t-15.5 77z" />
<glyph unicode=";" d="M352 166q0 39 15.5 74.5t42 63.5t63.5 43t78 15t78 -16t64.5 -44t43 -63.5t15.5 -76.5q0 -82 -35 -152q-35 -68 -83 -117t-102 -102q-33 -33 -73 -33q-41 0 -72 31t-31 72q0 37 33 69q16 16 35.5 37t36.5 37q-53 25 -81 63.5t-28 98.5zM352 715q0 41 15.5 76.5t42 63.5 t63.5 44t78 16q59 0 109.5 -34.5t72.5 -87.5q17 -39 17 -78q0 -41 -15.5 -78t-43 -63.5t-63.5 -42t-77 -15.5t-77 15.5t-63.5 43t-43 63.5t-15.5 77z" />
<glyph unicode="&#x3c;" d="M207 565q0 47 39 80l442 395q16 16 35.5 22.5t36.5 6.5q41 0 71.5 -30.5t30.5 -71.5t-39 -78l-364 -322l372 -315q41 -35 41 -80q0 -41 -30.5 -72.5t-71.5 -31.5q-39 0 -70 28l-452 385q-41 35 -41 84z" />
<glyph unicode="=" d="M37 350q0 39 26.5 71t79.5 32h840q53 0 80 -32t27 -71t-27 -70.5t-80 -31.5h-840q-53 0 -79.5 31.5t-26.5 70.5zM37 760q0 39 26.5 70.5t79.5 31.5h840q53 0 80 -31.5t27 -70.5t-27 -71t-80 -32h-840q-53 0 -79.5 32t-26.5 71z" />
<glyph unicode="&#x3e;" d="M225 172q0 20 8.5 40.5t30.5 39.5l373 315l-365 322q-39 37 -39 78t31 71.5t72 30.5q16 0 35.5 -6t36.5 -23l442 -395q39 -33 39 -80q0 -49 -41 -84l-451 -385q-31 -29 -69 -28q-41 0 -72 31.5t-31 72.5z" />
<glyph unicode="?" d="M145 948v33t2 33q6 61 33 114.5t72 92.5t103.5 61.5t127.5 22.5h170q160 0 252 -92.5t92 -237.5q0 -98 -43 -156.5t-100 -102.5t-112.5 -87t-82.5 -111q0 -12 -7 -31.5t-17 -29.5q-27 -33 -78 -33q-41 0 -70.5 26.5t-29.5 69.5q0 94 47 158.5t102 105.5q27 20 59.5 41 t61.5 43.5t47.5 49t18.5 57.5q0 55 -35 94t-119 39h-150q-70 0 -105.5 -40t-35.5 -87q0 -10 -3 -34.5t-7 -33.5q-10 -31 -36 -47t-54 -16q-39 0 -71 24.5t-32 73.5zM383 160q0 37 14.5 68.5t38 55t55 38t66.5 14.5q37 0 68.5 -14.5t55.5 -38t38 -55t14 -68.5q0 -35 -14 -67 t-38 -55.5t-55.5 -37.5t-68.5 -14q-72 0 -123 51t-51 123z" />
<glyph unicode="@" d="M2 342v459q0 72 26.5 134t74 109.5t109.5 74t134 26.5h436q72 0 134.5 -26.5t109.5 -74t73.5 -110t26.5 -133.5v-314q0 -104 -63.5 -162.5t-155.5 -58.5h-28q-70 0 -123 35q-57 -35 -125 -35h-137q-92 0 -157 58.5t-65 162.5v166q0 104 64.5 162.5t157.5 58.5h258 q37 0 64.5 -27.5t27.5 -64.5v-317q4 -6 9 -10t21 -4h33q35 0 35 36v314q0 66 -47 113t-113 47h-436q-66 0 -113 -47.5t-47 -112.5v-459q0 -66 47.5 -113t112.5 -47h504q47 0 69.5 -28.5t22.5 -63.5t-22.5 -63.5t-69.5 -28.5h-504q-72 0 -134 26.5t-109.5 73.5t-74 109.5 t-26.5 134.5zM457 487q0 -37 37 -36h137q14 0 33 14v227h-170q-37 0 -37 -37v-168z" />
<glyph unicode="A" d="M129 90v13.5t2 13.5l207 940q18 86 79.5 126t151.5 40q104 0 156.5 -44t75.5 -122q35 -182 69 -355q14 -74 29.5 -152.5t30 -156.5t28 -149.5t25.5 -130.5q2 -9 2 -25q0 -47 -32.5 -72.5t-71.5 -25.5q-33 0 -60.5 20.5t-36.5 63.5l-43 233h-360q-12 -57 -23 -106 q-10 -41 -17 -80t-9 -49q-10 -41 -38 -60.5t-61 -19.5q-39 0 -71.5 25.5t-32.5 72.5zM424 512h281l-93 485q-6 27 -39 27q-18 0 -27 -5t-14 -22z" />
<glyph unicode="B" d="M143 102v1008q0 41 31 71.5t72 30.5h434q68 0 126 -21.5t100 -63.5t66.5 -100t24.5 -132v-55q0 -127 -73 -211q80 -84 80 -217v-95q0 -74 -25 -132t-67 -100t-100 -63.5t-126 -21.5h-440q-41 0 -72 30.5t-31 71.5zM348 203h338q113 0 113 114v95q0 110 -111 110h-2h-6 h-332v-319zM348 727h332q113 0 113 113v55q0 115 -113 115h-332v-283z" />
<glyph unicode="C" d="M145 317v578q0 74 25 132t68 100t100 63.5t123 21.5h225q59 0 112.5 -17t95.5 -51t69.5 -83t35.5 -113q2 -10 2 -28q0 -47 -31.5 -74t-70.5 -27q-35 0 -65.5 21.5t-34.5 68.5t-31 74t-82 27h-225q-113 0 -113 -115v-578q0 -114 111 -114h2h225q55 0 82 26.5t31 73.5 t34.5 68.5t65.5 21.5q39 0 70.5 -26.5t31.5 -73.5q0 -18 -2 -29q-8 -63 -35.5 -112.5t-69.5 -83t-95.5 -51t-112.5 -17.5h-225q-66 0 -123 21.5t-100 63.5t-68 100.5t-25 131.5z" />
<glyph unicode="D" d="M135 102v1008q0 41 31 71.5t72 30.5h444q68 0 126 -21.5t100 -63.5t66.5 -100t24.5 -132v-578q0 -74 -24.5 -132t-66.5 -100t-100 -63.5t-126 -21.5h-444q-41 0 -72 30.5t-31 71.5zM340 203h342q113 0 113 114v578q0 115 -113 115h-342v-807z" />
<glyph unicode="E" d="M168 102v1010q0 41 30.5 71.5t71.5 30.5h617q51 0 76.5 -31.5t25.5 -70.5t-25.5 -69.5t-76.5 -30.5h-514v-295h211q51 0 76.5 -32t25.5 -71t-25.5 -70.5t-76.5 -31.5h-211v-309h534q51 0 77 -31t26 -70t-26 -70.5t-77 -31.5h-637q-41 0 -71.5 30.5t-30.5 71.5z" />
<glyph unicode="F" d="M203 94v1018q0 41 30.5 71.5t71.5 30.5h596q51 0 77 -31.5t26 -70.5t-26 -69.5t-77 -30.5h-493v-295h210q51 0 77 -32t26 -71t-25.5 -70.5t-77.5 -31.5h-210v-418q0 -51 -32 -76.5t-71 -25.5t-70.5 25.5t-31.5 76.5z" />
<glyph unicode="G" d="M139 317v578q0 74 25.5 133t68.5 100t100.5 62.5t123.5 21.5h225q123 0 211 -71.5t102 -200.5q0 -4 1 -8t1 -8q0 -47 -32.5 -73t-71.5 -26q-35 0 -64.5 21.5t-33.5 66.5q-10 96 -113 97h-225q-113 0 -113 -115v-578q0 -114 111 -114h2h225q113 0 113 114v156h-154 q-51 0 -76.5 32t-25.5 70q0 39 25.5 71t76.5 32h256q41 0 71.5 -31t30.5 -72v-258q0 -74 -24.5 -132t-66.5 -100t-100 -63.5t-126 -21.5h-225q-66 0 -123.5 21.5t-100.5 62.5t-68.5 100.5t-25.5 132.5z" />
<glyph unicode="H" d="M129 94v1022q0 53 32 80t70 27q39 0 71 -27t32 -80v-366h459v366q0 53 31.5 80t70.5 27t70.5 -27t31.5 -80v-1022q0 -53 -31.5 -79.5t-70.5 -26.5t-70.5 26.5t-31.5 79.5v451h-459v-451q0 -53 -32 -79.5t-71 -26.5t-70.5 26.5t-31.5 79.5z" />
<glyph unicode="I" d="M190 102q0 39 27 70t80 31h164v807h-164q-53 0 -80 30.5t-27 69.5t27 70.5t80 31.5h532q53 0 80 -31.5t27 -70.5t-26.5 -69.5t-80.5 -30.5h-163v-807h163q53 0 80 -31t27 -70t-26.5 -70.5t-80.5 -31.5h-532q-53 0 -80 31.5t-27 70.5z" />
<glyph unicode="J" d="M113 317q0 51 31.5 76t70.5 25t70.5 -24.5t31.5 -76.5q0 -114 111 -114h2h225q113 0 113 114v693h-461q-51 0 -76.5 30.5t-25.5 69.5t25.5 70.5t76.5 31.5h563q41 0 72 -30.5t31 -71.5v-793q0 -74 -24.5 -132t-66.5 -100t-100.5 -63.5t-126.5 -21.5h-225q-66 0 -123 21.5 t-100 63.5t-68.5 100.5t-25.5 131.5z" />
<glyph unicode="K" d="M139 94v1022q0 51 32 77t71 26t70.5 -26t31.5 -77v-485l457 553q31 37 76 37q41 0 73.5 -31t32.5 -72q0 -35 -27 -67l-327 -389l383 -506q24 -31 24 -64q0 -41 -32.5 -71.5t-73.5 -30.5q-45 0 -78 41l-358 473l-150 -178v-232q0 -51 -31.5 -76.5t-70.5 -25.5t-71 25.5 t-32 76.5z" />
<glyph unicode="L" d="M154 102v1014q0 53 31.5 80t70.5 27t70.5 -27t31.5 -80v-913h564q53 0 79.5 -31t26.5 -70t-26.5 -70.5t-79.5 -31.5h-666q-41 0 -71.5 30.5t-30.5 71.5z" />
<glyph unicode="M" d="M113 92v1018q0 41 30.5 71.5t71.5 30.5h76q68 0 101.5 -28.5t56.5 -81.5l114 -283q6 14 21.5 55t34 88.5t37 92.5t28.5 67q43 90 152 90h75q41 0 72 -30.5t31 -71.5v-1018q0 -51 -32 -76.5t-71 -25.5t-70.5 25.5t-31.5 76.5v823l-6 -2l-144 -381q-27 -69 -94 -69h-2 q-31 0 -56.5 18.5t-37.5 53.5l-143 378l-9 2v-2v-821q0 -51 -31.5 -76.5t-70.5 -25.5t-70.5 25.5t-31.5 76.5z" />
<glyph unicode="N" d="M145 92v1018q0 41 31 71.5t72 30.5h82q18 0 50 -17t42 -40l360 -782l-2 743q0 51 32 77t71 26t70.5 -26t31.5 -77v-1016q0 -41 -30.5 -71.5t-71.5 -30.5h-82q-18 0 -50 17.5t-42 39.5l-361 779l2 -742q0 -51 -31.5 -76.5t-70.5 -25.5t-71 25.5t-32 76.5z" />
<glyph unicode="O" d="M133 317v578q0 74 25.5 132t68.5 100t100.5 63.5t123.5 21.5h225q68 0 126 -21.5t100 -63.5t66.5 -100t24.5 -132v-578q0 -74 -24.5 -132t-66.5 -100t-100.5 -63.5t-125.5 -21.5h-225q-66 0 -123.5 21.5t-100.5 63.5t-68.5 100.5t-25.5 131.5zM338 317q0 -114 111 -114h2 h225q113 0 112 114v578q0 115 -112 115h-225q-113 0 -113 -115v-578z" />
<glyph unicode="P" d="M137 92v424v2v592q0 41 31 71.5t72 30.5h440q68 0 126 -21.5t100 -63.5t66.5 -100t24.5 -132v-188q0 -74 -24.5 -132.5t-66.5 -100.5t-100 -63.5t-126 -21.5h-338v-297q0 -51 -31.5 -76.5t-70.5 -25.5t-71 25.5t-32 76.5zM342 592h338q113 0 113 115v188q0 115 -113 115 h-338v-418z" />
<glyph unicode="Q" d="M135 317v578q0 74 25.5 132t68.5 100t100.5 63.5t123.5 21.5h225q68 0 126 -21.5t100 -63.5t66.5 -100t24.5 -132v-578q0 -78 -25.5 -137t-70.5 -100l66 -105q16 -25 16 -55q0 -43 -33 -72.5t-74 -29.5q-49 0 -81 49l-86 135q-6 -2 -23.5 -2h-26.5h-204 q-66 0 -123.5 21.5t-100.5 63.5t-68.5 100.5t-25.5 131.5zM340 317q0 -114 111 -114h2h127l-39 59q-16 25 -17 55q0 43 33 73t74 30q23 0 44 -11.5t38 -37.5l55 -88q8 10 15.5 18t7.5 25v567q0 117 -113 117h-225q-113 0 -113 -115v-578z" />
<glyph unicode="R" d="M133 92v1018q0 41 31 71.5t72 30.5h440q68 0 126 -21.5t100 -63.5t66.5 -100t24.5 -132v-80q0 -98 -42 -169t-113 -107l139 -414q6 -18 6 -37q0 -45 -32.5 -71.5t-73.5 -26.5q-29 0 -54.5 15t-38.5 52l-149 441h-297v-406q0 -51 -32 -76.5t-70 -25.5q-39 0 -71 25.5 t-32 76.5zM338 702h338q113 0 112 113v80q0 115 -112 115h-338v-308z" />
<glyph unicode="S" d="M133 305v4q0 45 28.5 74t74.5 29q37 0 68.5 -25t33.5 -74q4 -110 111 -110h2h227q113 0 113 114q0 2 1 20.5t1 41.5q0 29 -2.5 56.5t-6.5 39.5q-10 20 -57 33.5t-164 13.5q-98 0 -178 13.5t-136 51.5t-86 104.5t-30 174.5v33q0 72 24.5 129t67.5 98t101.5 63.5 t124.5 22.5h221q68 0 125 -21.5t100 -61t66.5 -95t23.5 -125.5q0 -49 -31.5 -74.5t-70.5 -25.5q-35 0 -66 23.5t-35 70.5q-4 57 -28.5 82t-83.5 25h-221q-53 0 -83 -29t-30 -82v-33q0 -63 14 -96q16 -23 61.5 -34t149.5 -11q100 0 180 -13.5t136.5 -48t86 -94t29.5 -153.5 v-99q0 -74 -24.5 -132t-66.5 -99t-100.5 -63.5t-125.5 -22.5h-227q-63 0 -121 21.5t-101 60.5t-68.5 95t-27.5 128z" />
<glyph unicode="T" d="M113 1110q0 39 25.5 70.5t76.5 31.5h696q51 0 77 -31.5t26 -70.5t-25.5 -69.5t-77.5 -30.5h-245v-918q0 -51 -32 -76.5t-71 -25.5t-70.5 25.5t-31.5 76.5v918h-246q-51 0 -76.5 30.5t-25.5 69.5z" />
<glyph unicode="U" d="M133 317v799q0 51 32 77t71 26t70.5 -26t31.5 -77v-799q0 -114 111 -114h2h225q113 0 112 114v799q0 51 32 77t71 26t70.5 -26t31.5 -77v-799q0 -74 -24.5 -132t-66.5 -100t-100.5 -63.5t-125.5 -21.5h-225q-66 0 -124.5 21.5t-101.5 62.5t-67.5 100.5t-24.5 132.5z" />
<glyph unicode="V" d="M137 1106v14q0 47 32 73t71 26q33 0 61.5 -20.5t36.5 -63.5l154 -842q10 -53 22 -74.5t45 -21.5q31 0 43 21.5t23 74.5l174 846q10 41 36.5 60.5t59.5 19.5q39 0 71.5 -26t32.5 -73q0 -4 -1 -8t-1 -8v-8l-186 -897q-20 -98 -81.5 -151.5t-172.5 -53.5q-61 0 -103 16.5 t-72 45t-48.5 67.5t-30.5 82l-164 893q-2 4 -2 8z" />
<glyph unicode="W" d="M70 1122q0 47 32.5 72t69.5 25t67.5 -24t34.5 -73l43 -807q4 -61 17.5 -89.5t54.5 -28.5q43 0 57.5 22.5t14.5 77.5v29v426q0 53 31.5 79.5t70.5 26.5t71 -26.5t32 -79.5v-441v-32q4 -45 17 -63.5t54 -18.5t54.5 29.5t17.5 90.5l45 805q4 49 34 73t66 24q39 0 71 -25 t32 -72l-43 -817q-4 -66 -19.5 -122t-48.5 -98t-84 -66.5t-125 -24.5q-109 0 -174 53q-31 -25 -74 -39t-100 -14q-74 0 -125 24.5t-84 66.5t-49 98.5t-18 121.5z" />
<glyph unicode="X" d="M131 90q0 31 16 55l293 473l-290 441q-18 31 -19 59q0 43 33 73t74 30q23 0 44 -11.5t37 -35.5l242 -373l221 370q16 27 39 38.5t45 11.5q41 0 74 -30t33 -73q0 -29 -19 -55l-270 -440l313 -473q19 -31 19 -60q0 -43 -33 -72.5t-74 -29.5q-23 0 -44 11t-38 36l-262 403 l-246 -401q-16 -27 -37.5 -38t-43.5 -11q-41 0 -74 29.5t-33 72.5z" />
<glyph unicode="Y" d="M133 1120q0 43 33 72t74 29q25 0 47 -13.5t39 -44.5l229 -471l246 473q16 29 38.5 42.5t47.5 13.5q41 0 73.5 -29t32.5 -72q0 -12 -2 -24.5t-10 -26.5q-18 -33 -47 -88t-61.5 -118.5t-67.5 -130t-64.5 -124t-53 -99.5t-32.5 -56v-361q0 -51 -31.5 -76.5t-70.5 -25.5 t-70.5 25.5t-31.5 76.5v363q-8 14 -30 56t-49.5 99.5t-60 124t-63.5 130t-58.5 118.5t-44.5 88q-12 25 -12 49z" />
<glyph unicode="Z" d="M135 96q0 35 21 64q2 4 27.5 43t64.5 100.5t88 137t98 153.5q117 184 266 416h-442q-51 0 -76.5 30.5t-25.5 69.5t25.5 70.5t76.5 31.5h633q45 0 72.5 -27.5t27.5 -68.5q0 -20 -8 -39.5t-12 -25.5l-545 -848h483q51 0 77 -31t26 -70t-25.5 -70.5t-77.5 -31.5h-673 q-45 0 -73 27.5t-28 68.5z" />
<glyph unicode="[" d="M268 -287v1823q0 41 31 71.5t72 30.5h370q51 0 77 -31.5t26 -70.5t-25.5 -70.5t-77.5 -31.5h-270v-1618h272q51 0 77 -32t26 -71t-25.5 -69.5t-77.5 -30.5h-372q-41 0 -72 29.5t-31 70.5z" />
<glyph unicode="\" d="M4 1540q0 43 33 71.5t74 28.5q25 0 49 -13t41 -44l905 -1659q14 -28 14 -55q0 -43 -31.5 -72.5t-72.5 -29.5q-25 0 -50.5 14t-41.5 45l-904 1659q-16 33 -16 55z" />
<glyph unicode="]" d="M268 -287q0 39 25.5 71t77.5 32h270v1618h-268q-51 0 -77 31.5t-26 70.5t26 70.5t77 31.5h370q41 0 72 -30.5t31 -71.5v-1823q0 -41 -31 -70.5t-72 -29.5h-372q-51 0 -77 30.5t-26 69.5z" />
<glyph unicode="^" d="M125 1100q0 35 31 69l338 361q16 16 37.5 24.5t33.5 8.5q23 0 43.5 -8.5t34.5 -24.5l338 -361q29 -30 29 -69q0 -41 -32 -72t-73 -31q-18 0 -37.5 7.5t-36.5 25.5l-264 287l-264 -287q-31 -33 -72 -33t-73.5 31t-32.5 72z" />
<glyph unicode="_" d="M-106 0q0 39 26.5 70.5t79.5 31.5h1126q53 0 80 -31.5t27 -70.5t-26.5 -70.5t-80.5 -31.5h-1126q-53 0 -79.5 31.5t-26.5 70.5z" />
<glyph unicode="`" d="M326 1567q0 53 36.5 89t90.5 36q27 0 52 -10.5t46 -32.5l184 -213q16 -18 23.5 -38t7.5 -38q0 -39 -26.5 -64.5t-65.5 -25.5q-37 0 -70 24l-229 172q-49 37 -49 101z" />
<glyph unicode="a" d="M98 264q0 72 21.5 120t59.5 76.5t89 44t113 23.5q23 2 71 8.5t99 12.5q59 8 129 16q41 4 48 14.5t15 20.5q2 4 2 12q0 2 -1 3t-1 3v3q-6 35 -30.5 48t-65.5 13h-205q-49 0 -72.5 -12.5t-33.5 -26.5q-37 -53 -86 -53q-41 0 -75 28.5t-34 71.5q0 27 17 55q47 84 121.5 113 t152.5 29h215q68 0 126 -22.5t99 -64.5t65 -100.5t24 -130.5v-284q0 -27 2 -41.5t8 -25.5t16 -20.5t27 -25.5q16 -16 23 -36t7 -38q0 -47 -32.5 -75.5t-73.5 -28.5q-74 0 -121 53q-41 -29 -82 -39t-94 -10h-225q-53 0 -109.5 11t-102.5 41t-76 82t-30 132zM307 270 q0 -37 22.5 -49t63.5 -12h244q74 0 93.5 28.5t19.5 69.5v2v66v2q-16 -4 -32 -9.5t-36 -7.5l-295 -28q-27 -4 -53.5 -13.5t-26.5 -48.5z" />
<glyph unicode="b" d="M133 317v293v594q0 51 32 77t71 26t70.5 -26t31.5 -77v-342q51 25 113 25h225q66 0 123 -21.5t100 -62.5t68.5 -100.5t25.5 -133.5v-252q0 -74 -25.5 -133t-68.5 -100t-100.5 -62.5t-122.5 -21.5h-225q-68 0 -126.5 21.5t-100.5 63.5t-66.5 100.5t-24.5 131.5zM338 317 q0 -114 111 -114h2l225 2q113 0 112 112v252q0 115 -112 115h-225q-113 0 -113 -115v-252z" />
<glyph unicode="c" d="M147 315v254q0 74 25 133.5t67 100.5t99 62.5t123 21.5h227q49 0 96 -13.5t87 -41t70 -70.5t42 -100q2 -8 4 -15.5t2 -13.5q0 -47 -32.5 -72.5t-73.5 -25.5q-31 0 -57.5 17t-34.5 56q-16 76 -89 76h-2h-102h-137q-111 0 -111 -115v-254q0 -114 109 -114h2h231q57 0 84 37 q12 16 17 38q8 41 34.5 58.5t59.5 17.5q39 0 71.5 -25.5t32.5 -72.5q0 -10 -4 -27q-12 -61 -42 -105t-69.5 -71.5t-87 -40t-96.5 -12.5h-231q-66 0 -123 21.5t-99 62.5t-67 100.5t-25 132.5z" />
<glyph unicode="d" d="M133 317v252q0 74 25.5 133.5t68.5 100.5t100.5 62.5t123.5 21.5h225q59 0 112 -25v342q0 51 32 77t71 26t70.5 -26t31.5 -77v-594v-293q0 -74 -24.5 -132t-66.5 -100t-100.5 -63.5t-125.5 -21.5h-225q-66 0 -123.5 21.5t-100.5 62.5t-68.5 100.5t-25.5 132.5zM338 317 q0 -112 111 -112h2l225 -2q113 0 112 114v252q0 115 -112 115h-225q-113 0 -113 -115v-252z" />
<glyph unicode="e" d="M133 317v252q0 74 24.5 133.5t67.5 100.5t101.5 62.5t124.5 21.5h243q63 0 118.5 -19.5t95.5 -57.5t62.5 -96.5t22.5 -135.5v-84q0 -68 -46 -107t-97 -39h-510v-31q0 -112 111 -112h2h219q45 0 68.5 11t37.5 32q16 23 40 31t46 8q37 0 65.5 -27t31.5 -70v-6 q0 -12 -3.5 -26.5t-9.5 -24.5q-51 -86 -116.5 -109.5t-137.5 -23.5h-243q-66 0 -124.5 21.5t-101.5 62.5t-67.5 100.5t-24.5 132.5zM340 549h448v22q0 113 -112 113h-223q-113 0 -113 -113v-22z" />
<glyph unicode="f" d="M223 784q0 39 25.5 71t77.5 32h65v63q0 74 24.5 132.5t66.5 100.5t100.5 63.5t126.5 21.5h102q221 0 297 -209q8 -19 8 -39q0 -45 -32.5 -71.5t-73.5 -26.5q-29 0 -53.5 15t-36.5 50q-16 43 -37 60.5t-72 17.5h-102q-113 0 -113 -115v-65h190q51 0 77 -31t26 -70 t-25.5 -69.5t-77.5 -30.5h-190v-590q0 -51 -32 -76.5t-70 -25.5q-39 0 -71 25.5t-32 76.5v590h-65q-51 0 -77 30.5t-26 69.5z" />
<glyph unicode="g" d="M133 309v260q0 74 25.5 133.5t68.5 100.5t100.5 62.5t123.5 21.5h225q68 0 126 -21.5t100 -63.5t66.5 -100.5t24.5 -132.5v-260v-356q0 -72 -28.5 -132.5t-77.5 -103.5t-115.5 -67.5t-140.5 -24.5q-119 0 -190.5 4t-125.5 19q-41 10 -59 36.5t-18 57.5q0 41 25.5 73.5 t72.5 32.5q8 0 14 -1t15 -3q31 -8 88 -12t178 -4q82 0 119.5 41t37.5 84v61q-25 -12 -53 -17t-59 -5h-225q-66 0 -123.5 21.5t-100.5 62.5t-68.5 100.5t-25.5 132.5zM338 309q0 -114 111 -114h2h225q113 0 112 114v260q0 115 -112 115l-225 -2q-113 0 -113 -113v-260z" />
<glyph unicode="h" d="M133 96v1110q0 51 32 76t71 25t70.5 -25t31.5 -76v-346q47 27 113 27h225q68 0 126 -21.5t100 -63.5t66.5 -100.5t24.5 -132.5v-473q0 -51 -31.5 -76.5t-70.5 -25.5t-71 25.5t-32 76.5v473q0 113 -112 113h-225q-53 0 -84 -27.5t-31 -85.5v-475q0 -41 -30 -70.5 t-70 -29.5q-41 0 -72 30.5t-31 71.5z" />
<glyph unicode="i" d="M111 102q0 39 25.5 70t76.5 31h262v481l-153 -2q-51 0 -77 31.5t-26 70.5t25.5 71t77.5 32h235q51 0 87 -37t36 -86v-561h240q51 0 76.5 -31t25.5 -70t-25.5 -70.5t-76.5 -31.5h-707q-51 0 -76.5 31.5t-25.5 70.5zM377 1157q0 76 53 130t129 54t130 -54t54 -130t-54 -129 t-130 -53t-129 53t-53 129z" />
<glyph unicode="j" d="M23 -90q0 45 29.5 72.5t70.5 27.5q74 0 98 -71q16 -47 38 -65.5t73 -18.5h102q113 0 113 114v715h-92q-51 0 -77 30.5t-26 69.5t25.5 71t77.5 32h194q41 0 72 -31t31 -72v-815q0 -74 -25 -132t-67 -100t-100 -63.5t-126 -21.5h-102q-119 0 -194 57.5t-109 163.5 q-6 18 -6 37zM422 1157q0 76 54 130t130 54t129 -54t53 -130t-53 -129t-129 -53t-130 53t-54 129z" />
<glyph unicode="k" d="M133 94v1112q0 51 32 76t71 25t70.5 -25t31.5 -76v-714q14 14 43 38.5t63.5 53t73.5 61.5l78 66q90 74 195 159q31 25 63 25q41 0 72.5 -33t31.5 -74q0 -45 -40 -77l-259 -217l318 -330q31 -35 31 -70q0 -41 -33 -72.5t-74 -31.5q-39 0 -72 33l-329 344l-162 -136v-137 q0 -51 -32 -76.5t-70 -25.5q-39 0 -71 25.5t-32 76.5z" />
<glyph unicode="l" d="M111 102q0 39 25.5 70t76.5 31h262v841h-153q-51 0 -77 32t-26 71t25.5 70.5t77.5 31.5h235q49 0 86 -36.5t37 -86.5v-923h240q51 0 76.5 -31t25.5 -70t-25.5 -70.5t-76.5 -31.5h-707q-51 0 -76.5 31.5t-25.5 70.5z" />
<glyph unicode="m" d="M92 94v699q0 51 32 76.5t71 25.5q20 0 39.5 -8t33.5 -27q47 27 111 27q113 0 184 -62q72 61 185 62q143 0 214.5 -88t71.5 -230v-473q0 -51 -31.5 -76.5t-70.5 -25.5t-71 25.5t-32 76.5v473q0 47 -12 81t-69 34q-45 0 -63.5 -27.5t-18.5 -87.5v-473q0 -53 -32 -79.5 t-71 -26.5t-70.5 26.5t-31.5 79.5v473q0 47 -12.5 81t-69.5 34q-55 0 -68.5 -36t-13.5 -83v-471q0 -51 -32 -76.5t-70 -25.5q-39 0 -71 25.5t-32 76.5z" />
<glyph unicode="n" d="M133 94v494v205q0 51 32 76.5t71 25.5q51 0 77 -41q29 16 65 24.5t73 8.5h225q68 0 126 -21.5t100 -63.5t66.5 -100.5t24.5 -132.5v-473q0 -51 -31.5 -76.5t-70.5 -25.5t-71 25.5t-32 76.5v473q0 115 -112 115l-225 -2q-113 0 -113 -113v-475q0 -51 -32 -76.5t-70 -25.5 q-39 0 -71 25.5t-32 76.5z" />
<glyph unicode="o" d="M133 315v254q0 74 25.5 133.5t68.5 100.5t100.5 62.5t123.5 21.5h225q68 0 126 -21.5t100 -63.5t66.5 -100.5t24.5 -132.5v-254q0 -74 -24.5 -132t-66.5 -100t-100.5 -63.5t-125.5 -21.5h-225q-66 0 -123.5 21.5t-100.5 62.5t-68.5 100.5t-25.5 132.5zM338 315 q0 -114 111 -114h2h225q113 0 112 114v254q0 115 -112 115l-225 -2q-113 0 -113 -113v-254z" />
<glyph unicode="p" d="M133 -276v552v293q0 74 24.5 132.5t66.5 100.5t100.5 63.5t126.5 21.5h225q66 0 123 -21.5t100 -62.5t68.5 -100.5t25.5 -133.5v-252q0 -74 -25.5 -133t-68.5 -100t-100.5 -62.5t-122.5 -21.5h-225q-61 0 -113 25v-301q0 -51 -32 -77t-70 -26q-39 0 -71 25.5t-32 77.5z M338 317q0 -114 111 -114h2h225q113 0 112 114v252q0 113 -112 113l-225 2q-113 0 -113 -115v-252z" />
<glyph unicode="q" d="M133 317v252q0 74 25.5 133.5t68.5 100.5t100.5 62.5t123.5 21.5h225q68 0 126 -21.5t100 -63.5t66.5 -100.5t24.5 -132.5v-293v-552q0 -51 -31.5 -77t-70.5 -26t-71 25.5t-32 77.5v301q-53 -25 -112 -25h-225q-66 0 -123.5 21.5t-100.5 62.5t-68.5 100.5t-25.5 132.5z M338 317q0 -114 111 -114h2h225q113 0 112 114v252q0 115 -112 115l-225 -2q-113 0 -113 -113v-252z" />
<glyph unicode="r" d="M111 784q0 39 25.5 71t76.5 32h182q51 0 82 -41q33 23 73 32t81 9h102q106 0 189.5 -54.5t111.5 -160.5q8 -25 8 -58q0 -47 -31.5 -73.5t-72.5 -26.5q-31 0 -60.5 18.5t-35.5 59.5q-6 43 -31 67.5t-78 24.5l-102 -2q-113 0 -113 -113v-366h187q51 0 76.5 -31t25.5 -70 t-25.5 -70.5t-76.5 -31.5h-492q-51 0 -75.5 30.5t-24.5 69.5t24.5 71t75.5 32h100v481l-100 -2q-51 0 -76.5 31.5t-25.5 70.5z" />
<glyph unicode="s" d="M141 625q0 80 28 131t72 80.5t98 40t107 10.5h246q72 0 120 -13.5t75.5 -35t39 -48t11.5 -51.5q0 -45 -24.5 -72.5t-69.5 -27.5q-18 0 -39 5t-43 22q-10 8 -22.5 10t-26.5 2h-31h-193h-59h-6q-29 0 -51.5 -7t-22.5 -44t22.5 -46.5t49.5 -9.5h254q61 0 118.5 -14 t101.5 -48t70.5 -87t26.5 -133q0 -82 -27.5 -137.5t-71.5 -89t-101.5 -49t-116.5 -15.5h-264q-76 0 -128.5 24.5t-95.5 73.5q-16 20 -24 43t-8 45q0 43 30.5 73t73.5 30q29 0 52.5 -14.5t41.5 -36.5q10 -14 35 -19.5t43 -5.5h244q59 0 84.5 15.5t25.5 56.5q0 43 -23.5 60 t-86.5 17h-227q-53 0 -107.5 10.5t-99.5 40t-73 81t-28 133.5z" />
<glyph unicode="t" d="M115 784q0 39 25.5 71t76.5 32h100v262q0 51 32 75.5t71 24.5t70.5 -24.5t31.5 -75.5v-262h299q51 0 77 -32t26 -71t-26 -69.5t-77 -30.5h-299v-369q0 -112 111 -112h2h88q31 0 48 4t28 10q12 10 27.5 31.5t25.5 44.5q20 37 66 37q41 0 71.5 -29t30.5 -72q0 -16 -4 -29.5 t-10 -27.5q-16 -37 -39 -68.5t-56.5 -55t-80 -37t-107.5 -13.5h-88q-68 0 -126 21.5t-100 63.5t-67 100.5t-25 131.5v369h-100q-51 0 -76.5 30.5t-25.5 69.5z" />
<glyph unicode="u" d="M133 317v474q0 51 32 76.5t71 25.5t70.5 -25.5t31.5 -76.5v-474q0 -114 111 -114h2l225 2q113 0 112 112v476q0 51 32 76.5t71 25.5t70.5 -25.5t31.5 -76.5v-455v-244q0 -51 -30.5 -76.5t-69.5 -25.5q-23 0 -45.5 9t-34.5 32q-59 -33 -137 -33h-225q-68 0 -126.5 21.5 t-100.5 63.5t-66.5 100.5t-24.5 131.5z" />
<glyph unicode="v" d="M131 795q0 45 32 71.5t73 26.5q29 0 55 -17.5t39 -54.5q6 -16 16 -50t23.5 -78t29 -95t31.5 -100q37 -117 78 -256q8 -29 16 -39t41 -10t40 10t16 39q41 139 77 256q14 49 29.5 100t30 95t25 78t16.5 50q12 37 37.5 54.5t54.5 17.5q41 0 73.5 -26.5t32.5 -71.5 q0 -16 -6 -35l-170 -557q-35 -115 -92 -162t-164 -47q-53 0 -93 10t-70.5 34.5t-52 64.5t-40.5 98l-172 559q-6 18 -6 35z" />
<glyph unicode="w" d="M90 784v9v2q0 47 32 71.5t71 24.5q37 0 67.5 -23.5t34.5 -72.5q6 -139 14 -252q2 -49 5 -98.5t6.5 -90.5t5.5 -71.5t2 -44.5q4 -16 16 -28.5t45 -12.5q43 0 57.5 21.5t14.5 45.5v271q0 51 31.5 76.5t70.5 25.5t71 -25.5t32 -76.5v-271q0 -25 15 -46t56 -21q33 0 45.5 12 t16.5 29q0 14 2 44.5t5 71.5t5 90.5t6 98.5q8 113 14 252q4 49 35 72.5t68 23.5q39 0 70.5 -24.5t31.5 -71.5v-2v-9q-8 -141 -16 -258q-4 -49 -6 -99t-5 -92t-5.5 -74t-2.5 -44q-4 -61 -28.5 -102t-61.5 -68t-82 -38t-88 -11q-53 0 -96 14.5t-82 42.5v2q-2 0 -2 -2 q-39 -29 -81 -43t-95 -14q-43 0 -88 11t-82 38t-61.5 68t-28.5 102q0 12 -2 44t-5 74t-6 92t-6 99q-8 117 -16 258z" />
<glyph unicode="x" d="M96 94q0 35 31 70l279 299l-252 256q-33 33 -33 72q0 41 31.5 72.5t72.5 31.5q16 0 36 -7t36 -24l252 -254l233 252q33 33 72 33q41 0 74 -32t33 -72q0 -37 -31 -70l-236 -252l295 -301q33 -33 33 -72q0 -41 -32 -72.5t-72 -31.5q-39 0 -70 31l-295 299l-279 -299 q-33 -33 -71 -33q-41 0 -74 31.5t-33 72.5z" />
<glyph unicode="y" d="M131 805q0 43 34 70.5t75 27.5q27 0 49 -13t39 -44l229 -477l217 475q14 33 38 46t50 13q41 0 74 -27.5t33 -70.5q0 -27 -11 -47l-362 -785q-25 -55 -51.5 -98t-60 -78t-76.5 -61.5t-105 -48.5q-10 -4 -19.5 -6.5t-19.5 -2.5q-45 0 -71.5 33t-26.5 74q0 29 16.5 55.5 t50.5 38.5q35 12 59.5 25.5t45 34t37 49t37.5 73.5l34 76l-303 619q-12 25 -12 49z" />
<glyph unicode="z" d="M131 96q0 41 27 70l487 518h-389q-51 0 -76.5 30.5t-25.5 69.5t25.5 71t76.5 32h627q47 0 75.5 -28t28.5 -68q0 -39 -33 -76l-481 -512h436q51 0 77 -31t26 -70t-25.5 -70.5t-77.5 -31.5h-673q-47 0 -76 27.5t-29 68.5z" />
<glyph unicode="{" d="M199 623q0 39 25.5 70.5t76.5 31.5h59q43 0 68 22.5t25 90.5v540q0 119 67.5 189.5t184.5 70.5h114q51 0 77 -31.5t26 -70.5t-26 -70.5t-77 -31.5h-114q-25 0 -36.5 -11.5t-11.5 -44.5v-540q0 -66 -15 -125.5t-54 -89.5q39 -31 54 -90.5t15 -124.5v-533q0 -33 10.5 -45 t37.5 -12h116q49 0 74 -31t25 -70t-25 -71.5t-76 -32.5h-114q-117 0 -184.5 69.5t-67.5 188.5v537q0 68 -25 90t-68 22h-59q-51 0 -76.5 32t-25.5 71z" />
<glyph unicode="|" d="M465 -129v1667q0 53 31.5 77.5t70.5 24.5t71 -24.5t32 -77.5v-1667q0 -53 -32 -78.5t-71 -25.5t-70.5 25.5t-31.5 78.5z" />
<glyph unicode="}" d="M219 1536q0 39 25.5 70.5t77.5 31.5h114q117 0 184.5 -70.5t67.5 -189.5v-540q0 -68 24.5 -90.5t67.5 -22.5h60q51 0 76.5 -31.5t25.5 -70.5t-25.5 -71t-76.5 -32h-60q-43 0 -67.5 -22.5t-24.5 -89.5v-537q0 -119 -67.5 -188.5t-184.5 -69.5h-114q-51 0 -76 32.5 t-25 71.5t24.5 70t73.5 31h117q27 0 37 12t10 45v533q0 66 15.5 125t54.5 90q-39 31 -54.5 90t-15.5 125v540q0 33 -11 44.5t-36 11.5h-114q-51 0 -77 31.5t-26 70.5z" />
<glyph unicode="~" d="M63 518q0 29 15.5 52.5t32.5 45.5q53 66 117.5 94.5t136.5 28.5t128 -20.5t102 -46t86 -46t81 -20.5q33 0 60.5 16.5t43.5 45.5t40 42t48 13q41 0 74 -27.5t33 -70.5q0 -29 -15.5 -53.5t-31.5 -45.5q-53 -63 -116.5 -93t-135.5 -30q-68 0 -121 21.5t-99 46.5t-90 46.5 t-90 21.5q-31 0 -57 -15.5t-47 -50.5q-16 -29 -39.5 -41t-48.5 -12q-41 0 -74 28.5t-33 69.5z" />
<glyph unicode="&#xa0;" />
<glyph unicode="&#xa1;" d="M360 -197q0 31 6.5 54.5t10.5 52.5q16 70 29 141q10 59 19 131t11 133q2 47 38 84t85 37q45 0 83 -33.5t40 -87.5q2 -59 11 -130.5t20 -131.5q12 -72 28 -141q4 -33 11.5 -60.5t7.5 -60.5q0 -86 -58.5 -135t-138.5 -47q-92 0 -147.5 50t-55.5 144zM373 713q0 39 14 73.5 t40 60t60.5 41t73.5 15.5t74 -15.5t60.5 -41t41 -60t15.5 -73.5t-15.5 -74t-41 -60.5t-60.5 -40t-74 -14.5t-73.5 14.5t-60.5 40t-40 60.5t-14 74z" />
<glyph unicode="&#xa2;" d="M147 315v254q0 74 25 133.5t67 100.5t99 62.5t123 21.5h18v166q0 51 32 76.5t71 25.5q47 0 73.5 -28.5t26.5 -73.5v-166h6q49 0 96 -13.5t87 -41t70 -70.5t42 -100q2 -8 4 -15.5t2 -13.5q0 -47 -32.5 -72.5t-73.5 -25.5q-31 0 -57.5 17t-34.5 56q-16 76 -89 76h-2h-102 h-137q-111 0 -111 -115v-254q0 -115 111 -114h231q57 0 84 37q12 16 17 38q8 41 34.5 58.5t59.5 17.5q39 0 71.5 -25.5t32.5 -72.5q0 -10 -4 -27q-12 -61 -42 -105t-69.5 -71.5t-87 -40t-96.5 -12.5h-10v-164q0 -51 -30.5 -76.5t-69.5 -25.5q-47 0 -75 28.5t-28 73.5v164 h-18q-66 0 -123 21.5t-99 62.5t-67 100.5t-25 132.5z" />
<glyph unicode="&#xa3;" d="M88 600q0 39 25.5 70.5t79.5 31.5h51v193q0 74 24.5 132t67.5 100t100.5 63.5t122.5 21.5h156q111 0 194.5 -58t112.5 -169q4 -20 4 -31q0 -47 -32.5 -73.5t-69.5 -26.5q-8 0 -22.5 2t-29 10t-28 25.5t-21.5 46.5q-20 72 -108 72h-156q-113 0 -113 -115v-193h426 q53 0 79 -31.5t26 -70.5t-25.5 -70.5t-79.5 -31.5h-426v-181q0 -31 -7 -59.5t-17 -52.5h420v65q0 23 10 39.5t25.5 26.5t33 14t31.5 4q39 0 70.5 -24.5t31.5 -75.5v-107q0 -57 -19 -102t-87 -45h-743q-45 0 -68 30.5t-23 69.5q0 25 14.5 48.5t43.5 39.5l13 10 q13 11 28.5 28.5t28 40t12.5 50.5v181h-51q-53 0 -79 31.5t-26 70.5z" />
<glyph unicode="&#xa4;" d="M100 455q0 39 25 66.5t78 27.5h59v121h-59q-53 0 -78 27.5t-25 66.5t25 67.5t78 28.5h61v45v35.5t2 24.5q8 57 37 103t70 79t92 49t108 16h365q51 0 76.5 -31.5t25.5 -70.5t-25.5 -69.5t-76.5 -30.5h-365q-63 0 -83.5 -31t-20.5 -78v-41h399q53 0 79 -28.5t26 -67.5 t-25.5 -66.5t-79.5 -27.5h-401v-121h340q53 0 78.5 -27.5t25.5 -66.5t-25.5 -68t-78.5 -29h-340v-41q0 -47 20.5 -80.5t83.5 -33.5h367q51 0 76.5 -31t25.5 -70t-25.5 -70.5t-76.5 -31.5h-367q-115 0 -198.5 64.5t-104.5 181.5q-4 6 -5 23.5t-1 37.5v51h-59q-53 0 -78 29 t-25 68z" />
<glyph unicode="&#xa5;" d="M86 420q0 39 26.5 70.5t80.5 31.5h258q-8 12 -17.5 30.5t-23.5 41.5h-217q-53 0 -80 31.5t-27 70.5t26.5 71t80.5 32h102q-45 80 -85 153.5t-63 118.5q-12 25 -12 49q0 43 33 72t74 29q53 0 86 -58l235 -420l246 422q33 55 86 56q41 0 73.5 -29t32.5 -72q0 -12 -2 -24.5 t-10 -26.5q-25 -45 -65.5 -118.5t-87.5 -151.5h96q53 0 79.5 -32t26.5 -71t-26.5 -70.5t-79.5 -31.5h-215q-14 -23 -24.5 -41t-18.5 -31h258q53 0 79.5 -31.5t26.5 -70.5t-26.5 -71t-79.5 -32h-268v-225q0 -51 -32 -76.5t-71 -25.5t-70.5 25.5t-31.5 76.5v225h-266 q-53 0 -80 32t-27 71z" />
<glyph unicode="&#xa6;" d="M461 -41v508q0 51 31.5 76.5t70.5 25.5t71 -25.5t32 -76.5v-508q0 -51 -32 -76.5t-71 -25.5t-70.5 25.5t-31.5 76.5zM461 770v508q0 51 31.5 76.5t70.5 25.5t71 -25.5t32 -76.5v-508q0 -51 -32 -76.5t-71 -25.5t-70.5 25.5t-31.5 76.5z" />
<glyph unicode="&#xa7;" d="M135 715q0 92 57.5 174t143.5 121l-12 14q-78 94 -78 201q0 68 27.5 128t74.5 105t107.5 71.5t126.5 26.5q76 0 133 -27.5t116 -84.5q23 -20 38.5 -43t15.5 -55q0 -41 -30 -71t-71 -30q-27 0 -48 15.5t-44 37.5q-25 25 -50.5 42.5t-61.5 17.5q-53 0 -90 -40t-37 -87 q0 -25 9 -48.5t27 -39.5l406 -375q53 -49 76.5 -111.5t23.5 -121.5q0 -98 -57 -176t-143 -119l12 -15q80 -96 80 -200q0 -66 -28 -126.5t-74 -106.5t-107.5 -72.5t-126.5 -26.5q-74 0 -133.5 28.5t-118.5 85.5q-16 14 -32.5 41t-16.5 56q0 47 28.5 72.5t75.5 25.5 q23 0 42.5 -14.5t47.5 -40.5q25 -23 47.5 -38t59.5 -15q51 0 89 38.5t38 87.5q0 53 -37 89l-410 376q-53 47 -74.5 108.5t-21.5 121.5zM340 719q0 -31 15.5 -57.5t25.5 -36.5l192 -176q12 -10 39 -24.5t52 -14.5q49 0 86.5 37t37.5 90q0 31 -15 56t-25 36l-193 174 q-16 16 -41 27.5t-47 11.5q-49 0 -88 -36t-39 -87z" />
<glyph unicode="&#xa8;" d="M199 1415q0 63 44 107.5t107 44.5t107.5 -44.5t44.5 -107.5t-44 -106t-108 -43q-63 0 -107 43t-44 106zM649 1415q0 63 44 107.5t108 44.5q63 0 107 -44.5t44 -107.5t-44 -106t-107 -43t-107.5 43t-44.5 106z" />
<glyph unicode="&#xa9;" d="M0 356v426q0 74 28.5 139.5t77 113.5t114 77t138.5 29h408q74 0 139.5 -29t113.5 -77t76.5 -113.5t28.5 -139.5v-426q0 -74 -28.5 -138t-76.5 -113.5t-113.5 -77t-139.5 -27.5h-408q-74 0 -139 27.5t-113.5 77t-77 114t-28.5 137.5zM193 356q0 -70 48 -118t117 -48h408 q70 0 118 48.5t48 117.5v426q0 70 -48 118t-118 48h-408q-70 0 -117.5 -48t-47.5 -118v-426zM266 471v195q0 106 67.5 167.5t162.5 61.5h139q78 0 140.5 -42t82.5 -126q2 -6 2 -13v-14q0 -43 -30.5 -67.5t-67.5 -24.5q-29 0 -55.5 17.5t-36.5 56.5q-2 8 -7.5 15.5t-27.5 7.5 h-139q-37 0 -37 -39v-195q0 -23 8 -30t29 -7h139q23 0 29 6t8 15q10 39 34.5 57t55.5 18q37 0 67.5 -24.5t30.5 -67.5q0 -16 -2 -24q-18 -86 -81.5 -129t-141.5 -43h-139q-94 0 -162 61.5t-68 167.5z" />
<glyph unicode="&#xaa;" d="M256 965v41q0 68 22.5 121t61.5 90.5t92 57t113 19.5h37q66 0 129 -26q27 27 67 26q37 0 64.5 -27.5t27.5 -64.5v-434q0 -35 -22.5 -63.5t-69.5 -28.5q-41 0 -67 26q-63 -27 -129 -26h-37q-59 0 -112.5 19.5t-92.5 57.5t-61.5 91t-22.5 121zM442 965q0 -53 28 -78t75 -25 h37q102 0 102 103v41q0 102 -102 102h-37q-47 0 -75 -24.5t-28 -77.5v-41z" />
<glyph unicode="&#xab;" d="M125 573v2q0 18 6 38t16 30l295 369q37 43 82 43q41 0 73 -31t32 -72q0 -35 -27 -67l-250 -312l250 -313q25 -35 25 -65q0 -41 -32 -72t-73 -31q-47 0 -82 43l-295 373q-8 10 -14 27.5t-6 37.5zM514 573v2q0 18 6 38t17 30l294 369q37 43 82 43q41 0 73 -31t32 -72 q0 -35 -27 -67l-250 -312l250 -313q25 -35 25 -65q0 -41 -32 -72t-73 -31q-47 0 -82 43l-294 373q-8 10 -14.5 27.5t-6.5 37.5z" />
<glyph unicode="&#xac;" d="M98 553q0 35 24.5 63.5t74.5 28.5h729q49 0 71.5 -29.5t22.5 -62.5v-348q0 -47 -31 -69.5t-65 -22.5q-35 0 -66 22.5t-31 69.5v256h-630q-49 0 -74 28.5t-25 63.5z" />
<glyph unicode="&#xad;" d="M16 584q0 39 27 70.5t80 31.5h881q53 0 79.5 -31.5t26.5 -70.5t-26.5 -71t-79.5 -32h-881q-53 0 -80 32t-27 71z" />
<glyph unicode="&#xae;" d="M0 356v426q0 74 28.5 139.5t77 113.5t114 77t138.5 29h408q74 0 139.5 -29t113.5 -77t76.5 -113.5t28.5 -139.5v-426q0 -74 -28.5 -138t-76.5 -113.5t-113.5 -77t-139.5 -27.5h-408q-74 0 -139 27.5t-113.5 77t-77 114t-28.5 137.5zM193 356q0 -70 48 -118t117 -48h408 q70 0 118 48.5t48 117.5v426q0 70 -48 118t-118 48h-408q-70 0 -117.5 -48t-47.5 -118v-426zM313 338v459q0 39 28 67.5t67 28.5h225q37 0 74.5 -10.5t67.5 -34t48.5 -58t18.5 -83.5v-48q0 -53 -21.5 -91t-56.5 -60l53 -135q8 -18 8 -39q0 -41 -31.5 -66.5t-68.5 -25.5 q-27 0 -50.5 14t-35.5 47l-66 170h-69v-135q0 -47 -31 -71.5t-65 -24.5q-35 0 -65 24.5t-30 71.5zM504 653h125q6 0 12 4q12 9 12 25q0 12 -12 20q-6 4 -10 9h-127v-58z" />
<glyph unicode="&#xaf;" d="M217 1466q0 35 23.5 64t72.5 29h518q49 0 73 -29t24 -64t-23.5 -63.5t-73.5 -28.5h-518q-49 0 -72.5 29t-23.5 63z" />
<glyph unicode="&#xb0;" d="M317 1038q0 53 20.5 101.5t56.5 84.5t84 56t102 20q53 0 100 -20t83 -56t56.5 -84.5t20.5 -101.5t-20.5 -101t-56.5 -83t-83 -55.5t-100 -20.5t-101.5 20.5t-84.5 55.5t-56.5 83t-20.5 101zM492 1038q0 -37 25.5 -62.5t62.5 -25.5t62.5 25.5t25.5 62.5t-26 62.5t-62 25.5 q-37 0 -62.5 -25.5t-25.5 -62.5z" />
<glyph unicode="&#xb1;" d="M98 190q0 35 26 66t75 31h733q47 0 71.5 -31t24.5 -66t-24.5 -65.5t-71.5 -30.5h-733q-49 0 -75 31t-26 65zM98 670q0 35 24.5 65.5t74.5 30.5h270v174q0 49 30.5 73.5t65.5 24.5t65.5 -24.5t30.5 -73.5v-174h269q47 0 73.5 -30.5t26.5 -65.5t-26.5 -66t-73.5 -31h-269 v-174q0 -49 -30.5 -73.5t-65.5 -24.5t-65.5 24.5t-30.5 73.5v174h-270q-49 0 -74 31t-25 66z" />
<glyph unicode="&#xb2;" d="M326 760q0 18 7 37.5t25 36.5l185 178q37 35 48 52t11 28q0 16 -47 16q-14 0 -23.5 -5t-15.5 -9q-8 -6 -12 -13q-18 -23 -34.5 -40t-51.5 -17q-33 0 -61.5 23.5t-28.5 70.5q0 39 21.5 72t55 56.5t73.5 35.5t77 12q43 0 84 -11t72.5 -33.5t51 -60.5t19.5 -89q0 -45 -9 -77 t-25.5 -58.5t-42 -50t-56.5 -52.5h60q45 0 67.5 -29.5t22.5 -64.5t-22.5 -63.5t-67.5 -28.5h-285q-41 0 -69.5 22.5t-28.5 61.5z" />
<glyph unicode="&#xb3;" d="M326 807q0 47 27.5 70.5t62.5 23.5q25 0 37 -6t23 -13.5t24.5 -13.5t40.5 -6q47 0 61 4t14 19q0 16 -15 20t-56 4q-37 0 -64.5 24.5t-27.5 65.5q0 37 22.5 61.5t44.5 47.5h-92q-35 0 -63.5 22.5t-28.5 71.5q0 37 27.5 64.5t64.5 27.5h258q35 0 65.5 -22.5t30.5 -69.5 q0 -16 -4 -28.5t-8 -22.5q-6 -10 -12 -21l-68 -69q41 -12 75 -49t34 -127q0 -63 -20.5 -103.5t-55.5 -64t-82 -32.5t-100 -9q-29 0 -66 6t-70.5 21.5t-56 41t-22.5 62.5z" />
<glyph unicode="&#xb4;" d="M328 1360q0 18 7 37.5t23 38.5l185 213q20 23 45.5 33t52.5 10q53 0 90 -36t37 -89q0 -63 -49 -101l-230 -172q-33 -25 -69 -24q-39 0 -65.5 25.5t-26.5 64.5z" />
<glyph unicode="&#xb5;" d="M164 -281v1076q0 49 29.5 73.5t64.5 24.5t65.5 -24.5t30.5 -73.5v-326v-184q0 -106 105 -107h209q49 0 76.5 25.5t27.5 81.5v512q0 49 31 73.5t65 24.5q35 0 65 -24.5t30 -73.5v-725q0 -49 -30 -73t-65 -24q-20 0 -39.5 8.5t-33.5 24.5q-63 -27 -127 -26h-209 q-29 0 -54.5 5t-50.5 13v-281q0 -49 -30.5 -73.5t-65.5 -24.5t-64.5 24.5t-29.5 73.5z" />
<glyph unicode="&#xb6;" d="M94 844v51q0 74 23.5 132t65.5 100t98.5 64.5t124.5 22.5h210q47 0 75 -26.5t28 -81.5v-1006q0 -41 -30 -70.5t-71 -29.5h-143q-51 0 -76.5 30.5t-25.5 69.5t25.5 71t76.5 32h41v323h-104q-68 0 -126.5 21.5t-100.5 63.5t-66.5 100.5t-24.5 132.5zM799 96v1024 q0 51 31.5 77t70.5 26t71 -26t32 -77v-1024q0 -51 -32 -76.5t-71 -25.5t-70.5 25.5t-31.5 76.5z" />
<glyph unicode="&#xb7;" d="M379 778q0 76 52 128t128 52t129 -52t53 -128t-53 -128t-129 -52t-128 52t-52 128z" />
<glyph unicode="&#xb8;" d="M434 -326q0 29 17.5 52.5t50.5 27.5h8q18 0 30.5 -9t26.5 -9h6q33 8 33 39q0 18 -13 27.5t-30 9.5q-35 0 -59.5 24.5t-24.5 59.5v135q0 35 24.5 59.5t59.5 24.5t59.5 -24.5t24.5 -59.5v-19v-55q57 -23 94 -65.5t37 -114.5q0 -41 -14 -80t-41 -68.5t-63.5 -48t-81.5 -18.5 q-4 0 -8.5 1t-8.5 1q-45 4 -86 33.5t-41 76.5z" />
<glyph unicode="&#xb9;" d="M362 768q0 35 22 64.5t67 29.5h36v246h-28q-45 0 -67.5 29.5t-22.5 64.5t22.5 63.5t67.5 28.5h116q35 0 63 -27.5t28 -64.5v-340h18q45 0 66.5 -29.5t21.5 -64.5t-21.5 -63.5t-66.5 -28.5h-233q-45 0 -67 28.5t-22 63.5z" />
<glyph unicode="&#xba;" d="M256 965v41q0 68 22.5 121t61.5 90.5t92 57t113 19.5h37q61 0 114.5 -19.5t91 -57t60 -91t22.5 -120.5v-41q0 -68 -22.5 -121t-60 -91t-91 -57.5t-114.5 -19.5h-37q-59 0 -112.5 19.5t-92.5 57.5t-61.5 91t-22.5 121zM442 965q0 -53 28 -78t75 -25h37q102 0 102 103v41 q0 102 -102 102h-37q-47 0 -75 -24.5t-28 -77.5v-41z" />
<glyph unicode="&#xbb;" d="M129 195q0 31 25 65l249 313l-249 312q-14 16 -19.5 33.5t-5.5 33.5q0 41 32 72t72 31q43 0 80 -43l295 -369q10 -10 17.5 -29.5t7.5 -38.5v-2q0 -20 -7.5 -37.5t-15.5 -27.5l-295 -373q-35 -43 -82 -43q-41 0 -72.5 31t-31.5 72zM518 195q0 31 25 65l250 313l-250 312 q-14 16 -19.5 33.5t-5.5 33.5q0 41 32 72t73 31q43 0 79 -43l295 -369q10 -10 17.5 -29.5t7.5 -38.5v-2q0 -20 -7 -37.5t-16 -27.5l-294 -373q-35 -43 -82 -43q-41 0 -73 31t-32 72z" />
<glyph unicode="&#xbc;" d="M14 743q0 35 24.5 68t72.5 33h39v260h-31q-47 0 -71.5 31.5t-24.5 66.5t24.5 68t71.5 33h129q39 0 67.5 -30t28.5 -71v-358h18q47 0 73 -33t26 -68t-25.5 -66.5t-73.5 -31.5h-251q-47 0 -72 32t-25 66zM57 -135q0 12 2 25.5t11 27.5l829 1548q31 55 84 56q37 0 68.5 -28 t31.5 -71q0 -27 -14 -53l-827 -1548q-16 -29 -39 -42t-47 -13q-37 0 -68 27.5t-31 70.5zM535 160q0 16 5 29.5t13 29.5l180 375q14 29 37 39t45 10q35 0 69 -25.5t34 -70.5q0 -14 -7.5 -32.5t-16.5 -37t-18.5 -34t-13.5 -23.5q-16 -35 -30.5 -61.5t-24.5 -47.5 q-12 -23 -23 -43h72v66q0 43 28.5 71.5t69.5 28.5q35 0 66 -25.5t31 -74.5v-66q39 -6 59 -32.5t20 -61.5q0 -31 -19 -62.5t-60 -37.5v-8q0 -49 -31 -74t-66 -25t-66.5 24.5t-31.5 74.5v6h-219q-43 0 -72.5 23.5t-29.5 64.5z" />
<glyph unicode="&#xbd;" d="M6 743q0 35 24.5 68t71.5 33h39v260h-30q-47 0 -72 31.5t-25 66.5t24.5 68t72.5 33h129q41 0 68.5 -30t27.5 -71v-358h20q47 0 72 -33t25 -68t-25 -66.5t-72 -31.5h-254q-47 0 -71.5 32t-24.5 66zM31 -135q0 27 14 53l827 1548q16 29 39 42.5t47 13.5q37 0 69 -28t32 -71 q0 -27 -15 -53l-827 -1548q-16 -29 -38.5 -42t-47.5 -13q-37 0 -68.5 27.5t-31.5 70.5zM614 82q0 18 6.5 38.5t26.5 39.5l199 188q41 39 52 56.5t11 29.5t-13 14.5t-38 2.5q-14 0 -24.5 -5.5t-16.5 -9.5q-8 -6 -12 -12q-20 -25 -37.5 -43.5t-54.5 -18.5q-35 0 -66 25t-31 74 q0 43 23 77.5t58.5 59.5t77.5 38t83 13q45 0 89 -11t79 -37t55.5 -64.5t20.5 -94.5q0 -47 -10.5 -80.5t-29 -61.5t-45 -53.5t-59.5 -56.5h66q47 0 71.5 -32.5t24.5 -67.5t-24.5 -66.5t-71.5 -31.5h-305q-43 0 -74 24.5t-31 65.5z" />
<glyph unicode="&#xbe;" d="M0 784q0 49 30.5 75t65.5 26q27 0 40.5 -6.5t25.5 -14.5t26.5 -14t42.5 -6q51 0 66.5 4t15.5 18t-16 20.5t-61 6.5q-39 0 -70 25.5t-31 70.5q0 39 24.5 64.5t49.5 50.5h-98q-37 0 -68 22.5t-31 75.5q0 41 28 71t69 30h278q39 0 70.5 -26t31.5 -75q0 -16 -5 -30.5 t-9 -24.5l-14 -21l-70 -71q45 -12 80 -53.5t35 -135.5q0 -68 -21.5 -110.5t-58.5 -67t-87 -34t-108 -9.5q-31 0 -70.5 7t-75.5 23.5t-60.5 43t-24.5 65.5zM66 -135q0 27 14 53l827 1548q16 29 39 42.5t47 13.5q37 0 69 -28t32 -71q0 -27 -15 -53l-829 -1548q-31 -55 -84 -55 q-37 0 -68.5 27.5t-31.5 70.5zM535 160q0 16 5 29.5t13 29.5l180 375q14 29 37 39t45 10q35 0 69 -25.5t34 -70.5q0 -14 -7.5 -32.5t-16.5 -37t-18.5 -34t-13.5 -23.5q-16 -35 -30.5 -61.5t-24.5 -47.5q-12 -23 -23 -43h72v66q0 43 28.5 71.5t69.5 28.5q35 0 66 -25.5 t31 -74.5v-66q39 -6 59 -32.5t20 -61.5q0 -31 -19 -62.5t-60 -37.5v-8q0 -49 -31 -74t-66 -25t-66.5 24.5t-31.5 74.5v6h-219q-43 0 -72.5 23.5t-29.5 64.5z" />
<glyph unicode="&#xbf;" d="M129 -86q0 66 20.5 113t52 82.5t70.5 63.5t76 56.5t69 62.5t50 79q0 14 7 32.5t18 28.5q27 33 77 33q41 0 71 -25.5t30 -70.5q0 -92 -47.5 -158t-102.5 -107q-29 -18 -60.5 -38.5t-60 -44t-47 -50t-18.5 -57.5q0 -55 34.5 -94t118.5 -39h150q70 0 105.5 40t35.5 87 q0 10 3 35.5t7 31.5q10 33 36 48.5t55 15.5q39 0 70.5 -24.5t31.5 -73.5v-33t-2 -33q-6 -61 -32.5 -114.5t-72 -92.5t-103.5 -61.5t-128 -22.5h-170q-160 0 -252 92.5t-92 237.5zM393 729q0 37 14.5 68.5t38 55.5t55 37t68.5 13q72 0 123 -51t51 -123q0 -37 -14 -68.5 t-37.5 -55t-55.5 -38t-67 -14.5q-37 0 -68.5 14.5t-55 38t-38 55t-14.5 68.5z" />
<glyph unicode="&#xc0;" d="M129 90v13.5t2 13.5l207 940q18 86 79.5 126t151.5 40q104 0 156.5 -44t75.5 -122q35 -182 69 -355q14 -74 29.5 -152.5t30 -156.5t28 -149.5t25.5 -130.5q2 -9 2 -25q0 -47 -32.5 -72.5t-71.5 -25.5q-33 0 -60.5 20.5t-36.5 63.5l-43 233h-360q-12 -57 -23 -106 q-10 -41 -17 -80t-9 -49q-10 -41 -38 -60.5t-61 -19.5q-39 0 -71.5 25.5t-32.5 72.5zM350 1567q0 53 37 89t90 36q27 0 52.5 -10.5t45.5 -32.5l185 -213q16 -18 23.5 -38t7.5 -38q0 -39 -27 -64.5t-66 -25.5q-37 0 -69 24l-230 172q-49 37 -49 101zM424 512h281l-93 485 q-6 27 -39 27q-18 0 -27 -5t-14 -22z" />
<glyph unicode="&#xc1;" d="M129 90v13.5t2 13.5l207 940q18 86 79.5 126t151.5 40q104 0 156.5 -44t75.5 -122q35 -182 69 -355q14 -74 29.5 -152.5t30 -156.5t28 -149.5t25.5 -130.5q2 -9 2 -25q0 -47 -32.5 -72.5t-71.5 -25.5q-33 0 -60.5 20.5t-36.5 63.5l-43 233h-360q-12 -57 -23 -106 q-10 -41 -17 -80t-9 -49q-10 -41 -38 -60.5t-61 -19.5q-39 0 -71.5 25.5t-32.5 72.5zM342 1360q0 18 7 37.5t24 38.5l184 213q20 23 46 33t52 10q53 0 90 -36t37 -89q0 -63 -49 -101l-229 -172q-33 -25 -70 -24q-39 0 -65.5 25.5t-26.5 64.5zM424 512h281l-93 485 q-6 27 -39 27q-18 0 -27 -5t-14 -22z" />
<glyph unicode="&#xc2;" d="M129 90v13.5t2 13.5l207 940q18 86 79.5 126t151.5 40q104 0 156.5 -44t75.5 -122q35 -182 69 -355q14 -74 29.5 -152.5t30 -156.5t28 -149.5t25.5 -130.5q2 -9 2 -25q0 -47 -32.5 -72.5t-71.5 -25.5q-33 0 -60.5 20.5t-36.5 63.5l-43 233h-360q-12 -57 -23 -106 q-10 -41 -17 -80t-9 -49q-10 -41 -38 -60.5t-61 -19.5q-39 0 -71.5 25.5t-32.5 72.5zM213 1368q0 45 41 74l264 196q10 8 23.5 13.5t27.5 5.5t27.5 -5t24.5 -14l266 -196q39 -29 39 -74q0 -39 -28 -70.5t-69 -31.5q-27 0 -59 22l-201 150l-198 -150q-33 -23 -60 -22 q-41 0 -69.5 31.5t-28.5 70.5zM424 512h281l-93 485q-6 27 -39 27q-18 0 -27 -5t-14 -22z" />
<glyph unicode="&#xc3;" d="M129 90v13.5t2 13.5l207 940q18 86 79.5 126t151.5 40q104 0 156.5 -44t75.5 -122q35 -182 69 -355q14 -74 29.5 -152.5t30 -156.5t28 -149.5t25.5 -130.5q2 -9 2 -25q0 -47 -32.5 -72.5t-71.5 -25.5q-33 0 -60.5 20.5t-36.5 63.5l-43 233h-360q-12 -57 -23 -106 q-10 -41 -17 -80t-9 -49q-10 -41 -38 -60.5t-61 -19.5q-39 0 -71.5 25.5t-32.5 72.5zM205 1380q0 25 15.5 54.5t29.5 50.5q37 53 85 77.5t101 24.5q55 0 95 -17.5t70 -38t51.5 -37.5t43.5 -17q16 0 27.5 13t17.5 28q14 35 37 49t51 14q39 0 71 -25.5t32 -66.5 q0 -23 -10.5 -43.5t-20.5 -38.5q-39 -63 -90 -95t-111 -32q-55 0 -93 17.5t-67.5 39t-52 40t-45.5 18.5q-31 0 -49 -45q-14 -33 -37.5 -47.5t-50.5 -14.5q-39 0 -69.5 25.5t-30.5 66.5zM424 512h281l-93 485q-6 27 -39 27q-18 0 -27 -5t-14 -22z" />
<glyph unicode="&#xc4;" d="M129 90v13.5t2 13.5l207 940q18 86 79.5 126t151.5 40q104 0 156.5 -44t75.5 -122q35 -182 69 -355q14 -74 29.5 -152.5t30 -156.5t28 -149.5t25.5 -130.5q2 -9 2 -25q0 -47 -32.5 -72.5t-71.5 -25.5q-33 0 -60.5 20.5t-36.5 63.5l-43 233h-360q-12 -57 -23 -106 q-10 -41 -17 -80t-9 -49q-10 -41 -38 -60.5t-61 -19.5q-39 0 -71.5 25.5t-32.5 72.5zM199 1415q0 63 44 107.5t107 44.5t107.5 -44.5t44.5 -107.5t-44 -106t-108 -43q-63 0 -107 43t-44 106zM424 512h281l-93 485q-6 27 -39 27q-18 0 -27 -5t-14 -22zM649 1415 q0 63 44 107.5t108 44.5q63 0 107 -44.5t44 -107.5t-44 -106t-107 -43t-107.5 43t-44.5 106z" />
<glyph unicode="&#xc5;" d="M129 90v13.5t2 13.5l207 940q18 86 79.5 126t151.5 40q104 0 156.5 -44t75.5 -122q35 -182 69 -355q14 -74 29.5 -152.5t30 -156.5t28 -149.5t25.5 -130.5q2 -9 2 -25q0 -47 -32.5 -72.5t-71.5 -25.5q-33 0 -60.5 20.5t-36.5 63.5l-43 233h-360q-12 -57 -23 -106 q-10 -41 -17 -80t-9 -49q-10 -41 -38 -60.5t-61 -19.5q-39 0 -71.5 25.5t-32.5 72.5zM389 1384v132q0 47 33 79.5t80 32.5h129q47 0 79.5 -32.5t32.5 -79.5v-132q0 -47 -32.5 -79.5t-79.5 -32.5h-129q-47 0 -80 32.5t-33 79.5zM424 512h281l-93 485q-6 27 -39 27 q-18 0 -27 -5t-14 -22zM512 1397h111v106h-111v-106z" />
<glyph unicode="&#xc6;" d="M47 92q0 6 1 12.5t3 14.5q4 31 14.5 88t25.5 129t33.5 151.5t37.5 159.5q43 186 94 400q18 86 79.5 125.5t151.5 39.5h474q45 0 72.5 -28.5t27.5 -73.5q0 -39 -25.5 -69.5t-77.5 -30.5h-225v-293h137q51 0 77 -32t26 -71t-25.5 -70.5t-77.5 -31.5h-137v-309h246 q51 0 76.5 -31t25.5 -70t-25.5 -70.5t-76.5 -31.5h-346q-41 0 -71 30.5t-30 71.5v226h-229q-14 -59 -24 -113q-10 -45 -17.5 -86t-11.5 -55q-10 -41 -38 -60.5t-60 -19.5q-39 0 -72 25.5t-33 72.5zM348 532h184v478h-59q-12 0 -20.5 -9.5t-13.5 -22.5t-8 -27.5t-5 -26.5z " />
<glyph unicode="&#xc7;" d="M145 317v578q0 74 25 132t68 100t100 63.5t123 21.5h225q59 0 112.5 -17t95.5 -51t69.5 -83t35.5 -113q2 -10 2 -28q0 -47 -31.5 -74t-70.5 -27q-35 0 -65.5 21.5t-34.5 68.5t-31 74t-82 27h-225q-113 0 -113 -115v-578q0 -115 113 -114h225q55 0 82 26.5t31 73.5 t34.5 68.5t65.5 21.5q39 0 70.5 -26.5t31.5 -73.5q0 -18 -2 -29q-8 -63 -35.5 -112.5t-69.5 -83t-95.5 -51t-112.5 -17.5h-39v-43q57 -23 94 -66t37 -114q0 -41 -14 -80t-41 -68.5t-63.5 -48t-81.5 -18.5q-4 0 -8.5 1t-8.5 1q-45 4 -86 33.5t-41 76.5q0 29 17.5 52.5 t50.5 27.5h8q18 0 30.5 -9t26.5 -9h6q33 8 33 39q0 18 -13 27.5t-30 9.5q-35 0 -59.5 24.5t-24.5 59.5v104h-18q-66 0 -123 21.5t-100 63.5t-68 100.5t-25 131.5z" />
<glyph unicode="&#xc8;" d="M168 102v1010q0 41 30.5 71.5t71.5 30.5h617q51 0 76.5 -31.5t25.5 -70.5t-25.5 -69.5t-76.5 -30.5h-514v-295h211q51 0 76.5 -32t25.5 -71t-25.5 -70.5t-76.5 -31.5h-211v-309h534q51 0 77 -31t26 -70t-26 -70.5t-77 -31.5h-637q-41 0 -71.5 30.5t-30.5 71.5zM336 1567 q0 53 37 89t90 36q27 0 52.5 -10.5t45.5 -32.5l184 -213q16 -18 23.5 -38t7.5 -38q0 -39 -26.5 -64.5t-65.5 -25.5q-37 0 -70 24l-229 172q-49 37 -49 101z" />
<glyph unicode="&#xc9;" d="M168 102v1010q0 41 30.5 71.5t71.5 30.5h617q51 0 76.5 -31.5t25.5 -70.5t-25.5 -69.5t-76.5 -30.5h-514v-295h211q51 0 76.5 -32t25.5 -71t-25.5 -70.5t-76.5 -31.5h-211v-309h534q51 0 77 -31t26 -70t-26 -70.5t-77 -31.5h-637q-41 0 -71.5 30.5t-30.5 71.5zM352 1360 q0 18 7.5 37.5t23.5 38.5l184 213q20 23 46 33t53 10q53 0 90 -36t37 -89q0 -63 -50 -101l-229 -172q-33 -25 -70 -24q-39 0 -65.5 25.5t-26.5 64.5z" />
<glyph unicode="&#xca;" d="M168 102v1010q0 41 30.5 71.5t71.5 30.5h617q51 0 76.5 -31.5t25.5 -70.5t-25.5 -69.5t-76.5 -30.5h-514v-295h211q51 0 76.5 -32t25.5 -71t-25.5 -70.5t-76.5 -31.5h-211v-309h534q51 0 77 -31t26 -70t-26 -70.5t-77 -31.5h-637q-41 0 -71.5 30.5t-30.5 71.5zM217 1368 q0 45 41 74l264 196q10 8 23.5 13.5t27.5 5.5t27.5 -5t24.5 -14l266 -196q39 -29 39 -74q0 -39 -28 -70.5t-68 -31.5q-27 0 -60 22l-201 150l-198 -150q-33 -23 -60 -22q-41 0 -69.5 31.5t-28.5 70.5z" />
<glyph unicode="&#xcb;" d="M168 102v1010q0 41 30.5 71.5t71.5 30.5h617q51 0 76.5 -31.5t25.5 -70.5t-25.5 -69.5t-76.5 -30.5h-514v-295h211q51 0 76.5 -32t25.5 -71t-25.5 -70.5t-76.5 -31.5h-211v-309h534q51 0 77 -31t26 -70t-26 -70.5t-77 -31.5h-637q-41 0 -71.5 30.5t-30.5 71.5zM199 1415 q0 63 44 107.5t107 44.5t107.5 -44.5t44.5 -107.5t-44 -106t-108 -43q-63 0 -107 43t-44 106zM649 1415q0 63 44 107.5t108 44.5q63 0 107 -44.5t44 -107.5t-44 -106t-107 -43t-107.5 43t-44.5 106z" />
<glyph unicode="&#xcc;" d="M190 102q0 39 27 70t80 31h164v807h-164q-53 0 -80 30.5t-27 69.5t27 70.5t80 31.5h532q53 0 80 -31.5t27 -70.5t-26.5 -69.5t-80.5 -30.5h-163v-807h163q53 0 80 -31t27 -70t-26.5 -70.5t-80.5 -31.5h-532q-53 0 -80 31.5t-27 70.5zM334 1567q0 53 37 89t90 36 q27 0 52.5 -10.5t45.5 -32.5l184 -213q16 -18 23.5 -38t7.5 -38q0 -39 -26.5 -64.5t-65.5 -25.5q-37 0 -70 24l-229 172q-49 37 -49 101z" />
<glyph unicode="&#xcd;" d="M190 102q0 39 27 70t80 31h164v807h-164q-53 0 -80 30.5t-27 69.5t27 70.5t80 31.5h532q53 0 80 -31.5t27 -70.5t-26.5 -69.5t-80.5 -30.5h-163v-807h163q53 0 80 -31t27 -70t-26.5 -70.5t-80.5 -31.5h-532q-53 0 -80 31.5t-27 70.5zM342 1360q0 18 7 37.5t24 38.5 l184 213q20 23 46 33t52 10q53 0 90 -36t37 -89q0 -63 -49 -101l-229 -172q-33 -25 -70 -24q-39 0 -65.5 25.5t-26.5 64.5z" />
<glyph unicode="&#xce;" d="M190 102q0 39 27 70t80 31h164v807h-164q-53 0 -80 30.5t-27 69.5t27 70.5t80 31.5h532q53 0 80 -31.5t27 -70.5t-26.5 -69.5t-80.5 -30.5h-163v-807h163q53 0 80 -31t27 -70t-26.5 -70.5t-80.5 -31.5h-532q-53 0 -80 31.5t-27 70.5zM209 1368q0 45 41 74l264 196 q10 8 23.5 13.5t27.5 5.5t27.5 -5t23.5 -14l267 -196q39 -29 39 -74q0 -39 -28 -70.5t-69 -31.5q-27 0 -59 22l-201 150l-198 -150q-33 -23 -60 -22q-41 0 -69.5 31.5t-28.5 70.5z" />
<glyph unicode="&#xcf;" d="M190 102q0 39 27 70t80 31h164v807h-164q-53 0 -80 30.5t-27 69.5t27 70.5t80 31.5h532q53 0 80 -31.5t27 -70.5t-26.5 -69.5t-80.5 -30.5h-163v-807h163q53 0 80 -31t27 -70t-26.5 -70.5t-80.5 -31.5h-532q-53 0 -80 31.5t-27 70.5zM193 1415q0 63 44 107.5t107 44.5 t107.5 -44.5t44.5 -107.5t-44 -106t-108 -43q-63 0 -107 43t-44 106zM643 1415q0 63 44 107.5t108 44.5q63 0 107 -44.5t44 -107.5t-44 -106t-107 -43t-107.5 43t-44.5 106z" />
<glyph unicode="&#xd0;" d="M-2 621q0 35 24.5 65.5t73.5 30.5h39v393q0 41 31 71.5t72 30.5h444q68 0 126 -21.5t100 -63.5t66.5 -100t24.5 -132v-578q0 -74 -24.5 -132t-66.5 -100t-100 -63.5t-126 -21.5h-444q-41 0 -72 30.5t-31 71.5v420h-39q-49 0 -73.5 32t-24.5 67zM340 203h342 q113 0 113 114v578q0 115 -113 115h-342v-293h254q49 0 73.5 -31t24.5 -65q0 -35 -24.5 -67t-73.5 -32h-254v-319z" />
<glyph unicode="&#xd1;" d="M145 92v1018q0 41 31 71.5t72 30.5h82q18 0 50 -17t42 -40l360 -782l-2 743q0 51 32 77t71 26t70.5 -26t31.5 -77v-1016q0 -41 -30.5 -71.5t-71.5 -30.5h-82q-18 0 -50 17.5t-42 39.5l-361 779l2 -742q0 -51 -31.5 -76.5t-70.5 -25.5t-71 25.5t-32 76.5zM201 1380 q0 25 15 54.5t30 50.5q37 53 85 77.5t101 24.5q55 0 95 -17.5t70 -38t51.5 -37.5t43.5 -17q16 0 27.5 13t17.5 28q14 35 37 49t51 14q39 0 71 -25.5t32 -66.5q0 -23 -10.5 -43.5t-20.5 -38.5q-39 -63 -90 -95t-111 -32q-55 0 -93 17.5t-67.5 39t-52 40t-45.5 18.5 q-31 0 -49 -45q-14 -33 -37.5 -47.5t-50.5 -14.5q-39 0 -69.5 25.5t-30.5 66.5z" />
<glyph unicode="&#xd2;" d="M133 317v578q0 74 25.5 132t68.5 100t100.5 63.5t123.5 21.5h225q68 0 126 -21.5t100 -63.5t66.5 -100t24.5 -132v-578q0 -74 -24.5 -132t-66.5 -100t-100.5 -63.5t-125.5 -21.5h-225q-66 0 -123.5 21.5t-100.5 63.5t-68.5 100.5t-25.5 131.5zM334 1567q0 53 37 89t90 36 q27 0 52.5 -10.5t45.5 -32.5l184 -213q16 -18 23.5 -38t7.5 -38q0 -39 -26.5 -64.5t-65.5 -25.5q-37 0 -70 24l-229 172q-49 37 -49 101zM338 317q0 -115 113 -114h225q113 0 112 114v578q0 115 -112 115h-225q-113 0 -113 -115v-578z" />
<glyph unicode="&#xd3;" d="M133 317v578q0 74 25.5 132t68.5 100t100.5 63.5t123.5 21.5h225q68 0 126 -21.5t100 -63.5t66.5 -100t24.5 -132v-578q0 -74 -24.5 -132t-66.5 -100t-100.5 -63.5t-125.5 -21.5h-225q-66 0 -123.5 21.5t-100.5 63.5t-68.5 100.5t-25.5 131.5zM338 317q0 -115 113 -114 h225q113 0 112 114v578q0 115 -112 115h-225q-113 0 -113 -115v-578zM344 1360q0 18 7 37.5t24 38.5l184 213q20 23 46 33t52 10q53 0 90 -36t37 -89q0 -63 -49 -101l-229 -172q-33 -25 -70 -24q-39 0 -65.5 25.5t-26.5 64.5z" />
<glyph unicode="&#xd4;" d="M133 317v578q0 74 25.5 132t68.5 100t100.5 63.5t123.5 21.5h225q68 0 126 -21.5t100 -63.5t66.5 -100t24.5 -132v-578q0 -74 -24.5 -132t-66.5 -100t-100.5 -63.5t-125.5 -21.5h-225q-66 0 -123.5 21.5t-100.5 63.5t-68.5 100.5t-25.5 131.5zM205 1368q0 45 41 74 l264 196q10 8 23.5 13.5t27.5 5.5t27.5 -5t23.5 -14l267 -196q39 -29 39 -74q0 -39 -28 -70.5t-69 -31.5q-27 0 -59 22l-201 150l-199 -150q-33 -23 -59 -22q-41 0 -69.5 31.5t-28.5 70.5zM338 317q0 -115 113 -114h225q113 0 112 114v578q0 115 -112 115h-225 q-113 0 -113 -115v-578z" />
<glyph unicode="&#xd5;" d="M133 317v578q0 74 25.5 132t68.5 100t100.5 63.5t123.5 21.5h225q68 0 126 -21.5t100 -63.5t66.5 -100t24.5 -132v-578q0 -74 -24.5 -132t-66.5 -100t-100.5 -63.5t-125.5 -21.5h-225q-66 0 -123.5 21.5t-100.5 63.5t-68.5 100.5t-25.5 131.5zM201 1380q0 25 15 54.5 t30 50.5q37 53 85 77.5t101 24.5q55 0 95 -17.5t70 -38t51.5 -37.5t43.5 -17q16 0 27.5 13t17.5 28q14 35 37 49t51 14q39 0 71 -25.5t32 -66.5q0 -23 -10.5 -43.5t-20.5 -38.5q-39 -63 -90 -95t-111 -32q-55 0 -93 17.5t-67.5 39t-52 40t-45.5 18.5q-31 0 -49 -45 q-14 -33 -37.5 -47.5t-50.5 -14.5q-39 0 -69.5 25.5t-30.5 66.5zM338 317q0 -115 113 -114h225q113 0 112 114v578q0 115 -112 115h-225q-113 0 -113 -115v-578z" />
<glyph unicode="&#xd6;" d="M133 317v578q0 74 25.5 132t68.5 100t100.5 63.5t123.5 21.5h225q68 0 126 -21.5t100 -63.5t66.5 -100t24.5 -132v-578q0 -74 -24.5 -132t-66.5 -100t-100.5 -63.5t-125.5 -21.5h-225q-66 0 -123.5 21.5t-100.5 63.5t-68.5 100.5t-25.5 131.5zM193 1415q0 63 44 107.5 t107 44.5t107.5 -44.5t44.5 -107.5t-44 -106t-108 -43q-63 0 -107 43t-44 106zM338 317q0 -115 113 -114h225q113 0 112 114v578q0 115 -112 115h-225q-113 0 -113 -115v-578zM643 1415q0 63 44 107.5t108 44.5q63 0 107 -44.5t44 -107.5t-44 -106t-107 -43t-107.5 43 t-44.5 106z" />
<glyph unicode="&#xd7;" d="M172 276q0 39 31 70l227 227l-227 228q-31 31 -31 69q0 41 28.5 68t67.5 27t68 -29l227 -227l228 225q31 31 69 31q41 0 67.5 -27t26.5 -68q0 -39 -30 -69l-226 -228l226 -225q30 -30 30 -69q0 -41 -28.5 -68t-67.5 -27t-67 29l-228 227l-227 -229q-29 -29 -68 -29 q-37 0 -66.5 28t-29.5 66z" />
<glyph unicode="&#xd8;" d="M18 -162q0 27 15 53l145 254q-45 74 -45 172v578q0 74 25.5 132t68.5 100t100.5 63.5t123.5 21.5h225q49 0 96 -12l143 254q33 55 84 55q39 0 70 -27.5t31 -68.5q0 -25 -15 -51l-151 -270q29 -39 44 -88.5t15 -108.5v-578q0 -74 -24.5 -132t-66.5 -100t-100.5 -63.5 t-125.5 -21.5h-225q-68 0 -121 20l-127 -223q-16 -29 -40 -42t-46 -13q-39 0 -69 27.5t-30 68.5zM338 430l326 580h-213q-113 0 -113 -115v-465zM432 205q4 0 9 -1t10 -1h225q113 0 112 114v521z" />
<glyph unicode="&#xd9;" d="M133 317v799q0 51 32 77t71 26t70.5 -26t31.5 -77v-799q0 -115 113 -114h225q113 0 112 114v799q0 51 32 77t71 26t70.5 -26t31.5 -77v-799q0 -74 -24.5 -132t-66.5 -100t-100.5 -63.5t-125.5 -21.5h-225q-66 0 -124.5 21.5t-101.5 62.5t-67.5 100.5t-24.5 132.5z M334 1567q0 53 37 89t90 36q27 0 52.5 -10.5t45.5 -32.5l184 -213q16 -18 23.5 -38t7.5 -38q0 -39 -26.5 -64.5t-65.5 -25.5q-37 0 -70 24l-229 172q-49 37 -49 101z" />
<glyph unicode="&#xda;" d="M133 317v799q0 51 32 77t71 26t70.5 -26t31.5 -77v-799q0 -115 113 -114h225q113 0 112 114v799q0 51 32 77t71 26t70.5 -26t31.5 -77v-799q0 -74 -24.5 -132t-66.5 -100t-100.5 -63.5t-125.5 -21.5h-225q-66 0 -124.5 21.5t-101.5 62.5t-67.5 100.5t-24.5 132.5z M350 1360q0 18 7.5 37.5t23.5 38.5l184 213q20 23 46 33t53 10q53 0 90 -36t37 -89q0 -63 -50 -101l-229 -172q-33 -25 -70 -24q-39 0 -65.5 25.5t-26.5 64.5z" />
<glyph unicode="&#xdb;" d="M133 317v799q0 51 32 77t71 26t70.5 -26t31.5 -77v-799q0 -115 113 -114h225q113 0 112 114v799q0 51 32 77t71 26t70.5 -26t31.5 -77v-799q0 -74 -24.5 -132t-66.5 -100t-100.5 -63.5t-125.5 -21.5h-225q-66 0 -124.5 21.5t-101.5 62.5t-67.5 100.5t-24.5 132.5z M209 1368q0 45 41 74l264 196q10 8 23.5 13.5t27.5 5.5t27.5 -5t23.5 -14l267 -196q39 -29 39 -74q0 -39 -28 -70.5t-69 -31.5q-27 0 -59 22l-201 150l-198 -150q-33 -23 -60 -22q-41 0 -69.5 31.5t-28.5 70.5z" />
<glyph unicode="&#xdc;" d="M133 317v799q0 51 32 77t71 26t70.5 -26t31.5 -77v-799q0 -115 113 -114h225q113 0 112 114v799q0 51 32 77t71 26t70.5 -26t31.5 -77v-799q0 -74 -24.5 -132t-66.5 -100t-100.5 -63.5t-125.5 -21.5h-225q-66 0 -124.5 21.5t-101.5 62.5t-67.5 100.5t-24.5 132.5z M195 1415q0 63 44 107.5t107 44.5t107.5 -44.5t44.5 -107.5t-44 -106t-108 -43q-63 0 -107 43t-44 106zM645 1415q0 63 44 107.5t108 44.5q63 0 107 -44.5t44 -107.5t-44 -106t-107 -43t-107.5 43t-44.5 106z" />
<glyph unicode="&#xdd;" d="M133 1120q0 43 33 72t74 29q25 0 47 -13.5t39 -44.5l229 -471l246 473q16 29 38.5 42.5t47.5 13.5q41 0 73.5 -29t32.5 -72q0 -12 -2 -24.5t-10 -26.5q-18 -33 -47 -88t-61.5 -118.5t-67.5 -130t-64.5 -124t-53 -99.5t-32.5 -56v-361q0 -51 -31.5 -76.5t-70.5 -25.5 t-70.5 25.5t-31.5 76.5v363q-8 14 -30 56t-49.5 99.5t-60 124t-63.5 130t-58.5 118.5t-44.5 88q-12 25 -12 49zM352 1360q0 18 7.5 37.5t23.5 38.5l184 213q20 23 46 33t53 10q53 0 90 -36t37 -89q0 -63 -50 -101l-229 -172q-33 -25 -70 -24q-39 0 -65.5 25.5t-26.5 64.5z " />
<glyph unicode="&#xde;" horiz-adv-x="1136" d="M184 88v1032q0 49 30 75t65 26t65.5 -26t30.5 -75v-84h313q63 0 116.5 -20.5t93.5 -59t62.5 -95t22.5 -126.5v-237q0 -72 -22.5 -127.5t-62.5 -95t-93 -60t-117 -20.5h-313v-107q0 -49 -31 -73.5t-65 -24.5q-35 0 -65 24.5t-30 73.5zM375 389h313q104 0 105 109v237 q0 106 -105 107h-313v-453z" />
<glyph unicode="&#xdf;" d="M133 -63v860q0 209 110.5 313t303.5 104h71q164 0 259.5 -88t95.5 -254q0 -4 -1 -19t-1 -19q-4 -119 -70 -199q41 -39 66.5 -95.5t25.5 -127.5v-95q0 -74 -24.5 -132t-66.5 -100t-100.5 -63.5t-125.5 -21.5h-119q-51 0 -75.5 31.5t-24.5 70.5t24.5 70t75.5 31h119 q113 0 112 114v95q0 53 -30.5 81.5t-91.5 28.5h-78q-53 0 -80 32t-27 71t27 70.5t80 31.5h71q51 0 80 29.5t29 93.5v37q-2 66 -32.5 95.5t-117.5 29.5h-71q-111 0 -160 -46t-49 -169v-860q0 -51 -32 -77t-70 -26q-39 0 -71 25.5t-32 77.5z" />
<glyph unicode="&#xe0;" d="M98 264q0 72 21.5 120t59.5 76.5t89 44t113 23.5q23 2 71 8.5t99 12.5q59 8 129 16q41 4 48 14.5t15 20.5q2 4 2 12q0 2 -1 3t-1 3v3q-6 35 -30.5 48t-65.5 13h-205q-49 0 -72.5 -12.5t-33.5 -26.5q-37 -53 -86 -53q-41 0 -75 28.5t-34 71.5q0 27 17 55q47 84 121.5 113 t152.5 29h215q68 0 126 -22.5t99 -64.5t65 -100.5t24 -130.5v-284q0 -27 2 -41.5t8 -25.5t16 -20.5t27 -25.5q16 -16 23 -36t7 -38q0 -47 -32.5 -75.5t-73.5 -28.5q-74 0 -121 53q-41 -29 -82 -39t-94 -10h-225q-53 0 -109.5 11t-102.5 41t-76 82t-30 132zM307 270 q0 -37 22.5 -49t63.5 -12h244q74 0 93.5 28.5t19.5 69.5v2v66v2q-16 -4 -32 -9.5t-36 -7.5l-295 -28q-27 -4 -53.5 -13.5t-26.5 -48.5zM326 1239q0 53 36.5 89t90.5 36q27 0 52 -10.5t46 -32.5l184 -213q16 -18 23.5 -38t7.5 -38q0 -39 -26.5 -64.5t-65.5 -25.5 q-37 0 -70 25l-229 172q-49 37 -49 100z" />
<glyph unicode="&#xe1;" d="M98 264q0 72 21.5 120t59.5 76.5t89 44t113 23.5q23 2 71 8.5t99 12.5q59 8 129 16q41 4 48 14.5t15 20.5q2 4 2 12q0 2 -1 3t-1 3v3q-6 35 -30.5 48t-65.5 13h-205q-49 0 -72.5 -12.5t-33.5 -26.5q-37 -53 -86 -53q-41 0 -75 28.5t-34 71.5q0 27 17 55q47 84 121.5 113 t152.5 29h215q68 0 126 -22.5t99 -64.5t65 -100.5t24 -130.5v-284q0 -27 2 -41.5t8 -25.5t16 -20.5t27 -25.5q16 -16 23 -36t7 -38q0 -47 -32.5 -75.5t-73.5 -28.5q-74 0 -121 53q-41 -29 -82 -39t-94 -10h-225q-53 0 -109.5 11t-102.5 41t-76 82t-30 132zM307 270 q0 -37 22.5 -49t63.5 -12h244q74 0 93.5 28.5t19.5 69.5v2v66v2q-16 -4 -32 -9.5t-36 -7.5l-295 -28q-27 -4 -53.5 -13.5t-26.5 -48.5zM338 1032q0 18 7 38t24 38l184 213q20 23 46 33t52 10q53 0 90 -36t37 -89q0 -63 -49 -100l-229 -172q-33 -25 -70 -25q-39 0 -65.5 25.5 t-26.5 64.5z" />
<glyph unicode="&#xe2;" d="M98 264q0 72 21.5 120t59.5 76.5t89 44t113 23.5q23 2 71 8.5t99 12.5q59 8 129 16q41 4 48 14.5t15 20.5q2 4 2 12q0 2 -1 3t-1 3v3q-6 35 -30.5 48t-65.5 13h-205q-49 0 -72.5 -12.5t-33.5 -26.5q-37 -53 -86 -53q-41 0 -75 28.5t-34 71.5q0 27 17 55q47 84 121.5 113 t152.5 29h215q68 0 126 -22.5t99 -64.5t65 -100.5t24 -130.5v-284q0 -27 2 -41.5t8 -25.5t16 -20.5t27 -25.5q16 -16 23 -36t7 -38q0 -47 -32.5 -75.5t-73.5 -28.5q-74 0 -121 53q-41 -29 -82 -39t-94 -10h-225q-53 0 -109.5 11t-102.5 41t-76 82t-30 132zM199 1053 q0 45 41 73l264 197q10 8 23.5 13t27.5 5t27.5 -5t23.5 -13l266 -197q39 -28 39 -73q0 -39 -27.5 -71t-68.5 -32q-27 0 -59 23l-201 149l-199 -149q-33 -23 -59 -23q-41 0 -69.5 32t-28.5 71zM307 270q0 -37 22.5 -49t63.5 -12h244q74 0 93.5 28.5t19.5 69.5v2v66v2 q-16 -4 -32 -9.5t-36 -7.5l-295 -28q-27 -4 -53.5 -13.5t-26.5 -48.5z" />
<glyph unicode="&#xe3;" d="M98 264q0 72 21.5 120t59.5 76.5t89 44t113 23.5q23 2 71 8.5t99 12.5q59 8 129 16q41 4 48 14.5t15 20.5q2 4 2 12q0 2 -1 3t-1 3v3q-6 35 -30.5 48t-65.5 13h-205q-49 0 -72.5 -12.5t-33.5 -26.5q-37 -53 -86 -53q-41 0 -75 28.5t-34 71.5q0 27 17 55q47 84 121.5 113 t152.5 29h215q68 0 126 -22.5t99 -64.5t65 -100.5t24 -130.5v-284q0 -27 2 -41.5t8 -25.5t16 -20.5t27 -25.5q16 -16 23 -36t7 -38q0 -47 -32.5 -75.5t-73.5 -28.5q-74 0 -121 53q-41 -29 -82 -39t-94 -10h-225q-53 0 -109.5 11t-102.5 41t-76 82t-30 132zM201 1083 q0 25 15 54.5t30 50.5q37 53 85 77.5t101 24.5q55 0 95 -17.5t70 -38t51.5 -37.5t43.5 -17q16 0 27.5 13t17.5 28q14 35 37 49t51 14q39 0 71 -25.5t32 -66.5q0 -23 -10.5 -43.5t-20.5 -38.5q-39 -63 -90 -95t-111 -32q-55 0 -93 17.5t-67.5 39t-52 40t-45.5 18.5 q-31 0 -49 -45q-14 -33 -37.5 -47.5t-50.5 -14.5q-39 0 -69.5 25.5t-30.5 66.5zM307 270q0 -37 22.5 -49t63.5 -12h244q74 0 93.5 28.5t19.5 69.5v2v66v2q-16 -4 -32 -9.5t-36 -7.5l-295 -28q-27 -4 -53.5 -13.5t-26.5 -48.5z" />
<glyph unicode="&#xe4;" d="M98 264q0 72 21.5 120t59.5 76.5t89 44t113 23.5q23 2 71 8.5t99 12.5q59 8 129 16q41 4 48 14.5t15 20.5q2 4 2 12q0 2 -1 3t-1 3v3q-6 35 -30.5 48t-65.5 13h-205q-49 0 -72.5 -12.5t-33.5 -26.5q-37 -53 -86 -53q-41 0 -75 28.5t-34 71.5q0 27 17 55q47 84 121.5 113 t152.5 29h215q68 0 126 -22.5t99 -64.5t65 -100.5t24 -130.5v-284q0 -27 2 -41.5t8 -25.5t16 -20.5t27 -25.5q16 -16 23 -36t7 -38q0 -47 -32.5 -75.5t-73.5 -28.5q-74 0 -121 53q-41 -29 -82 -39t-94 -10h-225q-53 0 -109.5 11t-102.5 41t-76 82t-30 132zM182 1133 q0 63 44 107t108 44q63 0 107 -44t44 -107t-44 -106.5t-107 -43.5t-107.5 43t-44.5 107zM307 270q0 -37 22.5 -49t63.5 -12h244q74 0 93.5 28.5t19.5 69.5v2v66v2q-16 -4 -32 -9.5t-36 -7.5l-295 -28q-27 -4 -53.5 -13.5t-26.5 -48.5zM633 1133q0 63 44 107t107 44 t107.5 -44t44.5 -107t-44 -106.5t-108 -43.5q-63 0 -107 43t-44 107z" />
<glyph unicode="&#xe5;" d="M98 264q0 72 21.5 120t59.5 76.5t89 44t113 23.5q23 2 71 8.5t99 12.5q59 8 129 16q41 4 48 14.5t15 20.5q2 4 2 12q0 2 -1 3t-1 3v3q-6 35 -30.5 48t-65.5 13h-205q-49 0 -72.5 -12.5t-33.5 -26.5q-37 -53 -86 -53q-41 0 -75 28.5t-34 71.5q0 27 17 55q47 84 121.5 113 t152.5 29h215q68 0 126 -22.5t99 -64.5t65 -100.5t24 -130.5v-284q0 -27 2 -41.5t8 -25.5t16 -20.5t27 -25.5q16 -16 23 -36t7 -38q0 -47 -32.5 -75.5t-73.5 -28.5q-74 0 -121 53q-41 -29 -82 -39t-94 -10h-225q-53 0 -109.5 11t-102.5 41t-76 82t-30 132zM307 270 q0 -37 22.5 -49t63.5 -12h244q74 0 93.5 28.5t19.5 69.5v2v66v2q-16 -4 -32 -9.5t-36 -7.5l-295 -28q-27 -4 -53.5 -13.5t-26.5 -48.5zM379 1075v131q0 47 32.5 80t80.5 33h129q47 0 79.5 -33t32.5 -80v-131q0 -47 -32.5 -79.5t-79.5 -32.5h-129q-47 0 -80 32.5t-33 79.5z M502 1087h110v107h-110v-107z" />
<glyph unicode="&#xe6;" d="M68 264q0 72 21.5 120t59 78t89 45t112.5 23q8 0 29.5 2.5t44.5 4.5q25 2 55 4v141h-67q-49 0 -73 -12.5t-34 -26.5q-37 -53 -86 -53q-41 0 -74.5 28.5t-33.5 71.5q0 27 16 55q47 84 122 113t152 29h371q129 0 214 -77t85 -232v-80q0 -68 -46 -107t-97 -39h-252v-147h74 q45 0 68.5 11t37.5 32q16 23 40 31t46 8q37 0 65.5 -27t30.5 -70v-6q0 -12 -3 -26.5t-9 -24.5q-51 -86 -116.5 -109.5t-137.5 -23.5h-387q-53 0 -109.5 11.5t-102.5 40t-75.5 80.5t-29.5 132zM276 270q0 -37 23 -49t63 -12h117v141l-123 -8q-27 -2 -53.5 -17.5t-26.5 -54.5z M676 545h190v26q0 113 -112 113h-78v-139z" />
<glyph unicode="&#xe7;" d="M147 315v254q0 74 25 133.5t67 100.5t99 62.5t123 21.5h227q49 0 96 -13.5t87 -41t70 -70.5t42 -100q2 -8 4 -15.5t2 -13.5q0 -47 -32.5 -72.5t-73.5 -25.5q-31 0 -57.5 17t-34.5 56q-16 76 -89 76h-2h-100h-139q-111 0 -111 -115v-254q0 -115 111 -114h231q57 0 84 37 q12 16 17 38q8 41 34.5 58.5t59.5 17.5q39 0 71.5 -25.5t32.5 -72.5q0 -10 -4 -27q-12 -61 -42 -105t-69.5 -71.5t-87 -40t-96.5 -12.5h-45v-41q57 -23 94 -66t37 -114q0 -41 -14 -80t-41 -68.5t-63.5 -48t-81.5 -18.5q-4 0 -8.5 1t-8.5 1q-45 4 -86 33.5t-41 76.5 q0 29 17.5 52.5t50.5 27.5h8q18 0 30.5 -9t26.5 -9h6q33 8 33 39q0 18 -13 27.5t-30 9.5q-35 0 -59.5 24.5t-24.5 59.5v102h-18q-66 0 -123 21.5t-99 62.5t-67 100.5t-25 132.5z" />
<glyph unicode="&#xe8;" d="M133 317v252q0 74 24.5 133.5t67.5 100.5t101.5 62.5t124.5 21.5h243q63 0 118.5 -19.5t95.5 -57.5t62.5 -96.5t22.5 -135.5v-84q0 -68 -46 -107t-97 -39h-510v-31q0 -113 113 -112h219q45 0 68.5 11t37.5 32q16 23 40 31t46 8q37 0 65.5 -27t31.5 -70v-6 q0 -12 -3.5 -26.5t-9.5 -24.5q-51 -86 -116.5 -109.5t-137.5 -23.5h-243q-66 0 -124.5 21.5t-101.5 62.5t-67.5 100.5t-24.5 132.5zM326 1239q0 53 36.5 89t90.5 36q27 0 52 -10.5t46 -32.5l184 -213q16 -18 23.5 -38t7.5 -38q0 -39 -26.5 -64.5t-65.5 -25.5q-37 0 -70 25 l-229 172q-49 37 -49 100zM340 549h448v22q0 113 -112 113h-223q-113 0 -113 -113v-22z" />
<glyph unicode="&#xe9;" d="M133 317v252q0 74 24.5 133.5t67.5 100.5t101.5 62.5t124.5 21.5h243q63 0 118.5 -19.5t95.5 -57.5t62.5 -96.5t22.5 -135.5v-84q0 -68 -46 -107t-97 -39h-510v-31q0 -113 113 -112h219q45 0 68.5 11t37.5 32q16 23 40 31t46 8q37 0 65.5 -27t31.5 -70v-6 q0 -12 -3.5 -26.5t-9.5 -24.5q-51 -86 -116.5 -109.5t-137.5 -23.5h-243q-66 0 -124.5 21.5t-101.5 62.5t-67.5 100.5t-24.5 132.5zM332 1032q0 18 7 38t23 38l185 213q20 23 45.5 33t52.5 10q53 0 90 -36t37 -89q0 -63 -49 -100l-229 -172q-33 -25 -70 -25 q-39 0 -65.5 25.5t-26.5 64.5zM340 549h448v22q0 113 -112 113h-223q-113 0 -113 -113v-22z" />
<glyph unicode="&#xea;" d="M133 317v252q0 74 24.5 133.5t67.5 100.5t101.5 62.5t124.5 21.5h243q63 0 118.5 -19.5t95.5 -57.5t62.5 -96.5t22.5 -135.5v-84q0 -68 -46 -107t-97 -39h-510v-31q0 -113 113 -112h219q45 0 68.5 11t37.5 32q16 23 40 31t46 8q37 0 65.5 -27t31.5 -70v-6 q0 -12 -3.5 -26.5t-9.5 -24.5q-51 -86 -116.5 -109.5t-137.5 -23.5h-243q-66 0 -124.5 21.5t-101.5 62.5t-67.5 100.5t-24.5 132.5zM203 1053q0 45 41 73l264 197q10 8 23.5 13t27.5 5t27.5 -5t23.5 -13l267 -197q38 -28 38 -73q0 -39 -27.5 -71t-68.5 -32q-27 0 -59 23 l-201 149l-199 -149q-33 -23 -59 -23q-41 0 -69.5 32t-28.5 71zM340 549h448v22q0 113 -112 113h-223q-113 0 -113 -113v-22z" />
<glyph unicode="&#xeb;" d="M133 317v252q0 74 24.5 133.5t67.5 100.5t101.5 62.5t124.5 21.5h243q63 0 118.5 -19.5t95.5 -57.5t62.5 -96.5t22.5 -135.5v-84q0 -68 -46 -107t-97 -39h-510v-31q0 -113 113 -112h219q45 0 68.5 11t37.5 32q16 23 40 31t46 8q37 0 65.5 -27t31.5 -70v-6 q0 -12 -3.5 -26.5t-9.5 -24.5q-51 -86 -116.5 -109.5t-137.5 -23.5h-243q-66 0 -124.5 21.5t-101.5 62.5t-67.5 100.5t-24.5 132.5zM195 1133q0 63 44 107t107 44t107.5 -44t44.5 -107t-44 -106.5t-108 -43.5q-63 0 -107 43t-44 107zM340 549h448v22q0 113 -112 113h-223 q-113 0 -113 -113v-22zM645 1133q0 63 44 107t108 44q63 0 107 -44t44 -107t-44 -106.5t-107 -43.5t-107.5 43t-44.5 107z" />
<glyph unicode="&#xec;" d="M111 102q0 39 25.5 70t76.5 31h262v481l-153 -2q-51 0 -77 31.5t-26 70.5t25.5 71t77.5 32h235q51 0 87 -37t36 -86v-561h240q51 0 76.5 -31t25.5 -70t-25.5 -70.5t-76.5 -31.5h-707q-51 0 -76.5 31.5t-25.5 70.5zM309 1241q0 53 37 89t90 36q27 0 52.5 -10t46.5 -33 l184 -213q16 -18 23.5 -38t7.5 -38q0 -39 -27 -64.5t-66 -25.5q-37 0 -69 25l-230 172q-49 37 -49 100z" />
<glyph unicode="&#xed;" d="M111 102q0 39 25.5 70t76.5 31h262v481l-153 -2q-51 0 -77 31.5t-26 70.5t25.5 71t77.5 32h235q51 0 87 -37t36 -86v-561h240q51 0 76.5 -31t25.5 -70t-25.5 -70.5t-76.5 -31.5h-707q-51 0 -76.5 31.5t-25.5 70.5zM317 1032q0 18 7.5 38t23.5 38l184 213q20 23 46 33 t53 10q53 0 90 -36t37 -89q0 -63 -49 -100l-230 -172q-33 -25 -69 -25q-39 0 -66 25.5t-27 64.5z" />
<glyph unicode="&#xee;" d="M111 102q0 39 25.5 70t76.5 31h262v481l-153 -2q-51 0 -77 31.5t-26 70.5t25.5 71t77.5 32h235q51 0 87 -37t36 -86v-561h240q51 0 76.5 -31t25.5 -70t-25.5 -70.5t-76.5 -31.5h-707q-51 0 -76.5 31.5t-25.5 70.5zM197 1053q0 45 41 73l264 197q10 8 23.5 13t27.5 5 t27.5 -5t23.5 -13l266 -197q39 -28 39 -73q0 -39 -27.5 -71t-68.5 -32q-27 0 -59 23l-201 149l-199 -149q-33 -23 -59 -23q-41 0 -69.5 32t-28.5 71z" />
<glyph unicode="&#xef;" d="M111 102q0 39 25.5 70t76.5 31h262v481l-153 -2q-51 0 -77 31.5t-26 70.5t25.5 71t77.5 32h235q51 0 87 -37t36 -86v-561h240q51 0 76.5 -31t25.5 -70t-25.5 -70.5t-76.5 -31.5h-707q-51 0 -76.5 31.5t-25.5 70.5zM176 1133q0 63 44 107t108 44q63 0 107 -44t44 -107 t-44 -106.5t-107 -43.5t-107.5 43t-44.5 107zM627 1133q0 63 44 107t107 44t107.5 -44t44.5 -107t-44 -106.5t-108 -43.5q-63 0 -107 43t-44 107z" />
<glyph unicode="&#xf0;" d="M164 303v195q0 70 22.5 126t62.5 96t93 60.5t117 20.5h209q23 0 44 -2t44 -8q-20 90 -76 147q-8 -6 -30.5 -24.5t-50.5 -39t-56.5 -36t-53.5 -15.5q-41 0 -67.5 29t-26.5 68q0 23 10.5 40t24.5 30.5t31.5 24.5t34.5 21q-35 10 -73 13.5t-79 3.5h-18q-47 0 -71 30.5 t-24 65.5t24 66.5t71 31.5h24q78 0 166 -19.5t164 -53.5q10 8 29.5 23t43 31.5t48 29t47.5 12.5q39 0 66.5 -29t27.5 -67q0 -23 -10 -41.5t-26.5 -33t-35 -25.5t-32.5 -23q45 -55 70.5 -110.5t37.5 -112t14.5 -115t2.5 -119.5v-291q0 -72 -24 -127t-63.5 -95t-93 -60.5 t-114.5 -20.5h-209q-63 0 -116.5 20.5t-93.5 60.5t-62.5 95t-22.5 127zM354 303q0 -109 105 -108h209q49 0 76.5 26.5t27.5 81.5v195q0 55 -27.5 81.5t-76.5 26.5h-209q-104 0 -105 -108v-195z" />
<glyph unicode="&#xf1;" d="M133 94v494v205q0 51 32 76.5t71 25.5q51 0 77 -41q29 16 65 24.5t73 8.5h225q68 0 126 -21.5t100 -63.5t66.5 -100.5t24.5 -132.5v-473q0 -51 -31.5 -76.5t-70.5 -25.5t-71 25.5t-32 76.5v473q0 115 -112 115l-225 -2q-113 0 -113 -113v-475q0 -51 -32 -76.5t-70 -25.5 q-39 0 -71 25.5t-32 76.5zM201 1094q0 25 15 54.5t30 49.5q37 53 85 77.5t101 24.5q55 0 95 -17t70 -37.5t51.5 -38t43.5 -17.5q16 0 27.5 13.5t17.5 27.5q14 35 37 49t51 14q39 0 71 -25.5t32 -66.5q0 -23 -10.5 -43t-20.5 -39q-39 -63 -90 -95t-111 -32q-55 0 -93 17.5 t-67.5 39t-52 40t-45.5 18.5q-31 0 -49 -45q-14 -33 -37.5 -47.5t-50.5 -14.5q-39 0 -69.5 26t-30.5 67z" />
<glyph unicode="&#xf2;" d="M133 315v254q0 74 25.5 133.5t68.5 100.5t100.5 62.5t123.5 21.5h225q68 0 126 -21.5t100 -63.5t66.5 -100.5t24.5 -132.5v-254q0 -74 -24.5 -132t-66.5 -100t-100.5 -63.5t-125.5 -21.5h-225q-66 0 -123.5 21.5t-100.5 62.5t-68.5 100.5t-25.5 132.5zM326 1239 q0 53 36.5 89t90.5 36q27 0 52 -10.5t46 -32.5l184 -213q16 -18 23.5 -38t7.5 -38q0 -39 -26.5 -64.5t-65.5 -25.5q-37 0 -70 25l-229 172q-49 37 -49 100zM338 315q0 -115 113 -114h225q113 0 112 114v254q0 115 -112 115l-225 -2q-113 0 -113 -113v-254z" />
<glyph unicode="&#xf3;" d="M133 315v254q0 74 25.5 133.5t68.5 100.5t100.5 62.5t123.5 21.5h225q68 0 126 -21.5t100 -63.5t66.5 -100.5t24.5 -132.5v-254q0 -74 -24.5 -132t-66.5 -100t-100.5 -63.5t-125.5 -21.5h-225q-66 0 -123.5 21.5t-100.5 62.5t-68.5 100.5t-25.5 132.5zM332 1032 q0 18 7 38t23 38l185 213q20 23 45.5 33t52.5 10q53 0 90 -36t37 -89q0 -63 -49 -100l-229 -172q-33 -25 -70 -25q-39 0 -65.5 25.5t-26.5 64.5zM338 315q0 -115 113 -114h225q113 0 112 114v254q0 115 -112 115l-225 -2q-113 0 -113 -113v-254z" />
<glyph unicode="&#xf4;" d="M133 315v254q0 74 25.5 133.5t68.5 100.5t100.5 62.5t123.5 21.5h225q68 0 126 -21.5t100 -63.5t66.5 -100.5t24.5 -132.5v-254q0 -74 -24.5 -132t-66.5 -100t-100.5 -63.5t-125.5 -21.5h-225q-66 0 -123.5 21.5t-100.5 62.5t-68.5 100.5t-25.5 132.5zM201 1053 q0 45 41 73l264 197q10 8 23.5 13t27.5 5t27.5 -5t23.5 -13l266 -197q39 -28 39 -73q0 -39 -27.5 -71t-68.5 -32q-27 0 -59 23l-201 149l-199 -149q-33 -23 -59 -23q-41 0 -69.5 32t-28.5 71zM338 315q0 -115 113 -114h225q113 0 112 114v254q0 115 -112 115l-225 -2 q-113 0 -113 -113v-254z" />
<glyph unicode="&#xf5;" d="M133 315v254q0 74 25.5 133.5t68.5 100.5t100.5 62.5t123.5 21.5h225q68 0 126 -21.5t100 -63.5t66.5 -100.5t24.5 -132.5v-254q0 -74 -24.5 -132t-66.5 -100t-100.5 -63.5t-125.5 -21.5h-225q-66 0 -123.5 21.5t-100.5 62.5t-68.5 100.5t-25.5 132.5zM205 1094 q0 25 15.5 54.5t29.5 49.5q37 53 85 77.5t101 24.5q55 0 95 -17t70 -37.5t51.5 -38t43.5 -17.5q16 0 27.5 13.5t17.5 27.5q14 35 37 49t51 14q39 0 71 -25.5t32 -66.5q0 -23 -10.5 -43t-20.5 -39q-39 -63 -90 -95t-111 -32q-55 0 -93 17.5t-67.5 39t-52 40t-45.5 18.5 q-31 0 -49 -45q-14 -33 -37.5 -47.5t-50.5 -14.5q-39 0 -69.5 26t-30.5 67zM338 315q0 -115 113 -114h225q113 0 112 114v254q0 115 -112 115l-225 -2q-113 0 -113 -113v-254z" />
<glyph unicode="&#xf6;" d="M133 315v254q0 74 25.5 133.5t68.5 100.5t100.5 62.5t123.5 21.5h225q68 0 126 -21.5t100 -63.5t66.5 -100.5t24.5 -132.5v-254q0 -74 -24.5 -132t-66.5 -100t-100.5 -63.5t-125.5 -21.5h-225q-66 0 -123.5 21.5t-100.5 62.5t-68.5 100.5t-25.5 132.5zM197 1133 q0 63 44 107t107 44t107.5 -44t44.5 -107t-44 -106.5t-108 -43.5q-63 0 -107 43t-44 107zM338 315q0 -115 113 -114h225q113 0 112 114v254q0 115 -112 115l-225 -2q-113 0 -113 -113v-254zM647 1133q0 63 44 107t108 44q63 0 107 -44t44 -107t-44 -106.5t-107 -43.5 t-107.5 43t-44.5 107z" />
<glyph unicode="&#xf7;" d="M102 446q0 35 25 66t74 31h721q49 0 73.5 -31t24.5 -66t-24.5 -65.5t-73.5 -30.5h-721q-49 0 -74 31t-25 65zM412 137q0 70 48 121t120 51t122 -50t50 -122t-51.5 -121t-120.5 -49q-72 0 -120 49.5t-48 120.5zM412 756q0 70 48 120t120 50q70 0 121 -49t51 -121 t-51.5 -121t-120.5 -49q-72 0 -120 49t-48 121z" />
<glyph unicode="&#xf8;" d="M133 315v254q0 74 25.5 133.5t68.5 100.5t100.5 62.5t123.5 21.5h247l99 178q16 29 39.5 42t46.5 13q39 0 68.5 -27.5t29.5 -68.5q0 -25 -14 -51l-84 -154q51 -41 80.5 -104.5t29.5 -145.5v-254q0 -74 -24.5 -132t-66.5 -100t-100.5 -63.5t-125.5 -21.5h-225h-19 l-110 -201q-33 -55 -84 -55q-39 0 -70 27.5t-31 68.5q0 27 15 53l96 172q-53 41 -84 104.5t-31 147.5zM338 315q0 -39 12 -63l238 432l-137 -2q-113 -4 -113 -113v-254zM543 201h133q113 0 112 114v254q0 33 -10 60z" />
<glyph unicode="&#xf9;" d="M133 317v474q0 51 32 76.5t71 25.5t70.5 -25.5t31.5 -76.5v-474q0 -115 113 -114l225 2q113 0 112 112v476q0 51 32 76.5t71 25.5t70.5 -25.5t31.5 -76.5v-455v-244q0 -51 -30.5 -76.5t-69.5 -25.5q-23 0 -45.5 9t-34.5 32q-59 -33 -137 -33h-225q-68 0 -126.5 21.5 t-100.5 63.5t-66.5 100.5t-24.5 131.5zM326 1239q0 53 36.5 89t90.5 36q27 0 52 -10.5t46 -32.5l184 -213q16 -18 23.5 -38t7.5 -38q0 -39 -26.5 -64.5t-65.5 -25.5q-37 0 -70 25l-229 172q-49 37 -49 100z" />
<glyph unicode="&#xfa;" d="M133 317v474q0 51 32 76.5t71 25.5t70.5 -25.5t31.5 -76.5v-474q0 -115 113 -114l225 2q113 0 112 112v476q0 51 32 76.5t71 25.5t70.5 -25.5t31.5 -76.5v-455v-244q0 -51 -30.5 -76.5t-69.5 -25.5q-23 0 -45.5 9t-34.5 32q-59 -33 -137 -33h-225q-68 0 -126.5 21.5 t-100.5 63.5t-66.5 100.5t-24.5 131.5zM342 1032q0 18 7 38t24 38l184 213q20 23 46 33t52 10q53 0 90 -36t37 -89q0 -63 -49 -100l-229 -172q-33 -25 -70 -25q-39 0 -65.5 25.5t-26.5 64.5z" />
<glyph unicode="&#xfb;" d="M133 317v474q0 51 32 76.5t71 25.5t70.5 -25.5t31.5 -76.5v-474q0 -115 113 -114l225 2q113 0 112 112v476q0 51 32 76.5t71 25.5t70.5 -25.5t31.5 -76.5v-455v-244q0 -51 -30.5 -76.5t-69.5 -25.5q-23 0 -45.5 9t-34.5 32q-59 -33 -137 -33h-225q-68 0 -126.5 21.5 t-100.5 63.5t-66.5 100.5t-24.5 131.5zM209 1053q0 45 41 73l264 197q10 8 23.5 13t27.5 5t27.5 -5t23.5 -13l267 -197q39 -28 39 -73q0 -39 -28 -71t-69 -32q-27 0 -59 23l-201 149l-198 -149q-33 -23 -60 -23q-41 0 -69.5 32t-28.5 71z" />
<glyph unicode="&#xfc;" d="M133 317v474q0 51 32 76.5t71 25.5t70.5 -25.5t31.5 -76.5v-474q0 -115 113 -114l225 2q113 0 112 112v476q0 51 32 76.5t71 25.5t70.5 -25.5t31.5 -76.5v-455v-244q0 -51 -30.5 -76.5t-69.5 -25.5q-23 0 -45.5 9t-34.5 32q-59 -33 -137 -33h-225q-68 0 -126.5 21.5 t-100.5 63.5t-66.5 100.5t-24.5 131.5zM193 1133q0 63 44 107t107 44t107.5 -44t44.5 -107t-44 -106.5t-108 -43.5q-63 0 -107 43t-44 107zM643 1133q0 63 44 107t108 44q63 0 107 -44t44 -107t-44 -106.5t-107 -43.5t-107.5 43t-44.5 107z" />
<glyph unicode="&#xfd;" d="M131 805q0 43 34 70.5t75 27.5q27 0 49 -13t39 -44l229 -477l217 475q14 33 38 46t50 13q41 0 74 -27.5t33 -70.5q0 -27 -11 -47l-362 -785q-25 -55 -51.5 -98t-60 -78t-76.5 -61.5t-105 -48.5q-10 -4 -19.5 -6.5t-19.5 -2.5q-45 0 -71.5 33t-26.5 74q0 29 16.5 55.5 t50.5 38.5q35 12 59.5 25.5t45 34t37 49t37.5 73.5l34 76l-303 619q-12 25 -12 49zM328 1032q0 18 7 38t23 38l185 213q20 23 45.5 33t52.5 10q53 0 90 -36t37 -89q0 -63 -49 -100l-230 -172q-33 -25 -69 -25q-39 0 -65.5 25.5t-26.5 64.5z" />
<glyph unicode="&#xfe;" d="M164 -281v574v303v612q0 49 29.5 74t64.5 25t65.5 -25t30.5 -74v-323q53 16 105 16h209q61 0 114.5 -20.5t93 -59.5t63.5 -96t24 -129v-303q0 -72 -24 -128t-63.5 -96t-93 -61.5t-114.5 -21.5h-209q-29 0 -54.5 5t-50.5 13v-285q0 -49 -30.5 -73.5t-65.5 -24.5 t-64.5 24.5t-29.5 73.5zM354 293q0 -109 105 -109h209q49 0 76.5 27t27.5 82v303q0 55 -27.5 82t-76.5 27h-209q-104 0 -105 -109v-303z" />
<glyph unicode="&#xff;" d="M131 805q0 43 34 70.5t75 27.5q27 0 49 -13t39 -44l229 -477l217 475q14 33 38 46t50 13q41 0 74 -27.5t33 -70.5q0 -27 -11 -47l-362 -785q-25 -55 -51.5 -98t-60 -78t-76.5 -61.5t-105 -48.5q-10 -4 -19.5 -6.5t-19.5 -2.5q-45 0 -71.5 33t-26.5 74q0 29 16.5 55.5 t50.5 38.5q35 12 59.5 25.5t45 34t37 49t37.5 73.5l34 76l-303 619q-12 25 -12 49zM178 1133q0 63 44 107t108 44q63 0 107 -44t44 -107t-44 -106.5t-107 -43.5t-107.5 43t-44.5 107zM629 1133q0 63 44 107t107 44t107.5 -44t44.5 -107t-44 -106.5t-108 -43.5q-63 0 -107 43 t-44 107z" />
<glyph unicode="&#x152;" d="M82 317v578q0 74 25.5 132t68.5 100t100.5 63.5t122.5 21.5h234h323q53 0 79 -32.5t26 -67.5q0 -39 -25.5 -70.5t-77.5 -31.5h-225v-293h137q51 0 77 -32t26 -71t-25.5 -70.5t-77.5 -31.5h-137v-309h246q51 0 76.5 -31t25.5 -70t-25.5 -70.5t-76.5 -31.5h-580 q-66 0 -123 21.5t-100 63.5t-68.5 100.5t-25.5 131.5zM287 317q0 -115 112 -114h129v411v4v392h-129q-113 0 -112 -115v-578z" />
<glyph unicode="&#x153;" d="M68 315v254q0 74 25.5 133.5t68.5 100.5t100 62.5t123 21.5h389q63 0 118.5 -19.5t95.5 -57.5t62.5 -96.5t22.5 -135.5v-84q0 -68 -46 -107t-97 -39h-254v-143h76q45 0 68.5 11t37.5 32q16 23 40 31t46 8q37 0 65.5 -27t30.5 -70v-6q0 -12 -3 -26.5t-9 -24.5 q-51 -86 -116.5 -109.5t-137.5 -23.5h-389q-66 0 -123 21.5t-100 61.5t-68.5 99.5t-25.5 132.5zM272 315q0 -115 113 -114h94v483l-94 -2q-113 0 -113 -113v-254zM676 549h192v22q0 113 -112 113h-80v-135z" />
<glyph unicode="&#x178;" d="M133 1120q0 43 33 72t74 29q25 0 47 -13.5t39 -44.5l229 -471l246 473q16 29 38.5 42.5t47.5 13.5q41 0 73.5 -29t32.5 -72q0 -12 -2 -24.5t-10 -26.5q-18 -33 -47 -88t-61.5 -118.5t-67.5 -130t-64.5 -124t-53 -99.5t-32.5 -56v-361q0 -51 -31.5 -76.5t-70.5 -25.5 t-70.5 25.5t-31.5 76.5v363q-8 14 -30 56t-49.5 99.5t-60 124t-63.5 130t-58.5 118.5t-44.5 88q-12 25 -12 49zM199 1415q0 63 44 107.5t107 44.5t107.5 -44.5t44.5 -107.5t-44 -106t-108 -43q-63 0 -107 43t-44 106zM649 1415q0 63 44 107.5t108 44.5q63 0 107 -44.5 t44 -107.5t-44 -106t-107 -43t-107.5 43t-44.5 106z" />
<glyph unicode="&#x2c6;" d="M217 1368q0 45 41 74l264 196q10 8 23.5 13.5t27.5 5.5t27.5 -5t24.5 -14l266 -196q39 -29 39 -74q0 -39 -28 -70.5t-68 -31.5q-27 0 -60 22l-201 150l-198 -150q-33 -23 -60 -22q-41 0 -69.5 31.5t-28.5 70.5z" />
<glyph unicode="&#x2dc;" d="M201 1380q0 25 15 54.5t30 50.5q37 53 85 77.5t101 24.5q55 0 95 -17.5t70 -38t51.5 -37.5t43.5 -17q16 0 27.5 13t17.5 28q14 35 37 49t51 14q39 0 71 -25.5t32 -66.5q0 -23 -10.5 -43.5t-20.5 -38.5q-39 -63 -90 -95t-111 -32q-55 0 -93 17.5t-67.5 39t-52 40 t-45.5 18.5q-31 0 -49 -45q-14 -33 -37.5 -47.5t-50.5 -14.5q-39 0 -69.5 25.5t-30.5 66.5z" />
<glyph unicode="&#x2000;" horiz-adv-x="846" />
<glyph unicode="&#x2001;" horiz-adv-x="1692" />
<glyph unicode="&#x2002;" horiz-adv-x="846" />
<glyph unicode="&#x2003;" horiz-adv-x="1692" />
<glyph unicode="&#x2004;" horiz-adv-x="564" />
<glyph unicode="&#x2005;" horiz-adv-x="423" />
<glyph unicode="&#x2006;" horiz-adv-x="282" />
<glyph unicode="&#x2007;" horiz-adv-x="282" />
<glyph unicode="&#x2008;" horiz-adv-x="211" />
<glyph unicode="&#x2009;" horiz-adv-x="338" />
<glyph unicode="&#x200a;" horiz-adv-x="94" />
<glyph unicode="&#x2010;" d="M16 584q0 39 27 70.5t80 31.5h881q53 0 79.5 -31.5t26.5 -70.5t-26.5 -71t-79.5 -32h-881q-53 0 -80 32t-27 71z" />
<glyph unicode="&#x2011;" d="M16 584q0 39 27 70.5t80 31.5h881q53 0 79.5 -31.5t26.5 -70.5t-26.5 -71t-79.5 -32h-881q-53 0 -80 32t-27 71z" />
<glyph unicode="&#x2012;" d="M16 584q0 39 27 70.5t80 31.5h881q53 0 79.5 -31.5t26.5 -70.5t-26.5 -71t-79.5 -32h-881q-53 0 -80 32t-27 71z" />
<glyph unicode="&#x2013;" d="M37 584q0 39 26.5 69.5t79.5 30.5h840q53 0 80 -30.5t27 -69.5t-27 -71t-80 -32h-840q-53 0 -79.5 32t-26.5 71z" />
<glyph unicode="&#x2014;" d="M37 584q0 39 26.5 69.5t79.5 30.5h840q53 0 80 -30.5t27 -69.5t-27 -71t-80 -32h-840q-53 0 -79.5 32t-26.5 71z" />
<glyph unicode="&#x2018;" d="M369 1237q0 80 34 149q35 68 84.5 118t102.5 104q33 33 72 32q41 0 71.5 -30.5t30.5 -71.5q0 -37 -33 -70l-72 -73q53 -25 81 -64t28 -98q0 -41 -15.5 -76t-42 -62.5t-63.5 -43t-78 -15.5t-77.5 16.5t-64.5 44t-43 63.5t-15 77z" />
<glyph unicode="&#x2019;" d="M358 1444q0 39 15.5 74.5t42 63.5t63.5 43t78 15t78 -16t64.5 -44t43 -63.5t15.5 -76.5q0 -80 -35 -150q-35 -68 -84 -118t-102 -103q-33 -33 -72 -33q-41 0 -72 31t-31 72q0 37 33 69l72 74q-53 25 -81 63.5t-28 98.5z" />
<glyph unicode="&#x201a;" d="M358 166q0 39 15.5 74.5t42 63.5t63.5 43t78 15t78 -16t64.5 -44t43 -63.5t15.5 -76.5q0 -80 -35 -150q-35 -68 -84 -118t-102 -103q-33 -33 -72 -33q-41 0 -72 31t-31 72q0 37 33 69l72 74q-53 25 -81 63.5t-28 98.5z" />
<glyph unicode="&#x201c;" d="M117 1237q0 80 35 149q35 68 84 118t102 104q33 33 72 32q41 0 71.5 -30.5t30.5 -71.5q0 -37 -33 -70l-71 -73q53 -25 80.5 -64t27.5 -98q0 -41 -15.5 -76t-42 -62.5t-63.5 -43t-78 -15.5t-77.5 16.5t-64.5 44t-43 63.5t-15 77zM608 1237q0 80 35 149q35 68 84 118 t102 104q33 33 72 32q41 0 72 -30.5t31 -71.5q0 -37 -33 -70l-72 -73q53 -25 81 -64t28 -98q0 -41 -15.5 -76t-42 -62.5t-63.5 -43t-78 -15.5t-78 16.5t-64.5 44t-43 63.5t-15.5 77z" />
<glyph unicode="&#x201d;" d="M119 1444q0 39 15.5 74.5t42 63.5t63 43t77.5 15t78 -16t64.5 -44t43 -63.5t15.5 -76.5q0 -80 -35 -150q-35 -68 -84 -118t-102 -103q-33 -33 -72 -33q-41 0 -71.5 31t-30.5 72q0 37 33 69l71 74q-53 25 -80.5 63.5t-27.5 98.5zM610 1444q0 39 15.5 74.5t42 63.5t63.5 43 t78 15t78 -16t64.5 -44t43 -63.5t15.5 -76.5q0 -80 -35 -150q-35 -68 -84 -118t-103 -103q-33 -33 -71 -33q-41 0 -72 31t-31 72q0 37 33 69l72 74q-53 25 -81 63.5t-28 98.5z" />
<glyph unicode="&#x201e;" d="M119 166q0 39 15.5 74.5t42 63.5t63 43t77.5 15t78 -16t64.5 -44t43 -63.5t15.5 -76.5q0 -80 -35 -150q-35 -68 -84 -118t-102 -103q-33 -33 -72 -33q-41 0 -71.5 31t-30.5 72q0 37 33 69l71 74q-53 25 -80.5 63.5t-27.5 98.5zM610 166q0 39 15.5 74.5t42 63.5t63.5 43 t78 15t78 -16t64.5 -44t43 -63.5t15.5 -76.5q0 -80 -35 -150q-35 -68 -84 -118t-103 -103q-33 -33 -71 -33q-41 0 -72 31t-31 72q0 37 33 69l72 74q-53 25 -81 63.5t-28 98.5z" />
<glyph unicode="&#x2022;" d="M303 735q0 51 19.5 96.5t52.5 80t78 55t98 20.5q51 0 97 -20.5t80 -54t54.5 -80t20.5 -97.5q0 -53 -20.5 -98t-55.5 -78t-80 -52.5t-96 -19.5t-96 19.5t-79 53.5t-53.5 79t-19.5 96z" />
<glyph unicode="&#x2026;" d="M-10 158q0 35 13 66.5t36.5 55t54.5 38t68 14.5q72 0 123 -51t51 -123q0 -37 -14.5 -68t-38 -54.5t-55 -36.5t-66.5 -13q-72 0 -122 50t-50 122zM391 158q0 35 13.5 66.5t37 55t54 38t67.5 14.5q72 0 123 -51t51 -123q0 -37 -14 -68t-37.5 -54.5t-55.5 -36.5t-67 -13 q-72 0 -122 50t-50 122zM793 158q0 35 13 66.5t36.5 55t54.5 38t68 14.5q72 0 123 -51t51 -123q0 -37 -14.5 -68t-38 -54.5t-55.5 -36.5t-66 -13q-72 0 -122 50t-50 122z" />
<glyph unicode="&#x202f;" horiz-adv-x="338" />
<glyph unicode="&#x2039;" d="M289 573v2q0 18 6 38t16 30l295 369q37 43 82 43q41 0 73 -31t32 -72q0 -35 -27 -67l-250 -312l250 -313q25 -35 25 -65q0 -41 -32 -72t-73 -31q-47 0 -82 43l-295 373q-8 10 -14 27.5t-6 37.5z" />
<glyph unicode="&#x203a;" d="M354 195q0 31 25 65l250 313l-250 312q-14 16 -19.5 33.5t-5.5 33.5q0 41 32 72t73 31q43 0 80 -43l295 -369q10 -10 17 -29.5t7 -38.5v-2q0 -20 -7 -37.5t-15 -27.5l-295 -373q-35 -43 -82 -43q-41 0 -73 31t-32 72z" />
<glyph unicode="&#x205f;" horiz-adv-x="423" />
<glyph unicode="&#x2122;" d="M2 801q0 35 22.5 63.5t69.5 28.5h334q47 0 69.5 -28.5t22.5 -63.5t-22.5 -63.5t-69.5 -28.5h-72v-381q0 -47 -28.5 -69.5t-63.5 -22.5t-63.5 22.5t-28.5 69.5v381h-78q-47 0 -69.5 28.5t-22.5 63.5zM547 326v477q0 37 27.5 64.5t64.5 27.5h41q37 0 61.5 -11.5t41 -32 t28.5 -46t27 -51.5q14 27 26.5 52t28.5 45.5t39.5 32t60.5 11.5h43q37 0 64.5 -27.5t27.5 -64.5v-477q0 -47 -28.5 -70t-63.5 -23t-63.5 23t-28.5 70v245l-39 -65q-16 -27 -29.5 -40t-35.5 -13q-41 0 -76 61l-33 55v-243q0 -47 -28.5 -70t-63.5 -23t-63.5 23t-28.5 70z" />
<glyph unicode="&#x25fc;" horiz-adv-x="890" d="M0 0v891h891v-891h-891z" />
</font>
</defs>
</svg>
