<svg width="14" height="15" viewBox="0 0 14 15" fill="none" xmlns="http://www.w3.org/2000/svg">
<path d="M6.99988 1.40613C3.86082 1.40613 1.31238 4.1366 1.31238 7.49988C1.31238 10.8632 3.86082 13.5936 6.99988 13.5936C10.1389 13.5936 12.6874 10.8632 12.6874 7.49988C12.6874 4.1366 10.1389 1.40613 6.99988 1.40613ZM7.5741 11.162H6.42566V9.93152H7.5741V11.162ZM7.56863 9.31628H6.43113C6.43113 7.35339 8.13738 7.49402 8.13738 6.27527C8.13738 5.60437 7.62605 5.05359 6.99988 5.05359C6.37371 5.05359 5.86238 5.62488 5.86238 6.26941H4.72488C4.72488 4.92175 5.74207 3.83777 6.99988 3.83777C8.25769 3.83777 9.27488 4.92468 9.27488 6.27234C9.27488 7.79578 7.56863 7.96863 7.56863 9.31628Z" fill="white"/>
</svg>
