<?xml version="1.0" encoding="utf-8"?>
<!-- Generator: Adobe Illustrator 17.0.0, SVG Export Plug-In . SVG Version: 6.00 Build 0)  -->
<!DOCTYPE svg PUBLIC "-//W3C//DTD SVG 1.1//EN" "http://www.w3.org/Graphics/SVG/1.1/DTD/svg11.dtd">
<svg version="1.1" id="Layer_1" xmlns="http://www.w3.org/2000/svg" xmlns:xlink="http://www.w3.org/1999/xlink" x="0px" y="0px"
	 width="512px" height="512px" viewBox="0 0 512 512" enable-background="new 0 0 512 512" xml:space="preserve">
<g>
	<polygon fill="#F5F6F8" points="256.024,29.736 175.173,76.415 229.065,107.527 255.952,91.971 282.969,107.519 336.85,76.4 	"/>
	<polygon fill="#F5F6F8" points="256.036,512 458.115,395.319 458.109,270.865 404.197,301.98 404.216,364.204 256.012,449.773 
		107.791,364.187 107.786,301.966 53.915,270.864 53.915,395.306 	"/>
	<polygon fill="#F5F6F8" points="215.607,301.986 161.697,333.103 256.015,387.536 350.303,333.093 296.424,301.975 
		485.081,193.048 485.04,130.864 512,115.3 511.979,37.541 282.934,169.774 256.005,154.22 229.056,169.774 0,37.552 0,115.341 
		26.98,130.915 26.97,193.068 	"/>
</g>
</svg>
