<?xml version="1.0" encoding="utf-8"?>
<!-- Generator: Adobe Illustrator 22.1.0, SVG Export Plug-In . SVG Version: 6.00 Build 0)  -->
<svg version="1.1" id="Layer_1" xmlns="http://www.w3.org/2000/svg" xmlns:xlink="http://www.w3.org/1999/xlink" x="0px" y="0px"
	 viewBox="0 0 512 200" style="enable-background:new 0 0 512 200;" xml:space="preserve">
<style type="text/css">
	.st0{fill:#F5F6F8;}
</style>
<g>
	<polygon class="st0" points="477,71.4 477,128.6 411.6,128.6 411.6,120.4 468.8,120.4 468.8,112.3 411.6,112.3 411.6,71.4 
		419.8,71.4 419.8,104.1 468.8,104.1 468.8,71.4 	"/>
	<path class="st0" d="M191,71.4v57.2h8.2v-16.3h57.2V71.4H191z M248.2,104.1h-49V79.6h49V104.1z"/>
	<polygon class="st0" points="329.9,71.4 329.9,79.6 272.7,79.6 272.7,112.3 264.6,112.3 264.6,71.4 	"/>
	<path class="st0" d="M338.1,71.4v40.9h65.4v-8.2h-57.2v-8.2h57.2V71.4H338.1z M395.3,87.7h-49v-8.2h49V87.7z"/>
	<polygon class="st0" points="98,40.7 78.1,52.2 91.3,59.8 98,56 104.6,59.8 117.8,52.2 	"/>
	<polygon class="st0" points="98,159.3 147.7,130.6 147.7,100 134.4,107.7 134.4,123 98,144 61.5,123 61.5,107.6 48.3,100 
		48.3,130.6 	"/>
	<polygon class="st0" points="154.3,65.6 154.3,65.6 154.3,80.9 107.9,107.7 121.2,115.3 98,128.7 74.8,115.3 88,107.7 41.6,80.9 
		41.6,65.6 35,61.7 35,42.6 91.3,75.1 98,71.3 104.6,75.1 160.9,42.6 160.9,61.7 	"/>
</g>
</svg>
