<?xml version="1.0" encoding="utf-8"?>
<!-- Generator: Adobe Illustrator 17.0.0, SVG Export Plug-In . SVG Version: 6.00 Build 0)  -->
<!DOCTYPE svg PUBLIC "-//W3C//DTD SVG 1.1//EN" "http://www.w3.org/Graphics/SVG/1.1/DTD/svg11.dtd">
<svg version="1.1" id="Layer_1" xmlns="http://www.w3.org/2000/svg" xmlns:xlink="http://www.w3.org/1999/xlink" x="0px" y="0px"
	 width="412px" height="660px" viewBox="0 0 412 660" enable-background="new 0 0 412 660" xml:space="preserve">
<path fill="none" stroke="#0000FF" stroke-miterlimit="10" d="M377.177,117.416c-10.553-1.818-21.297,2.013-30.754,7.52
	c-6.395,3.725-12.618,8.463-16.314,15.348c-3.696,6.885-4.268,16.325,0.233,22.593c4.656,6.484,13.02,7.823,20.489,7.566
	c11.614-0.399,23.251-3.543,33.305-10.004c10.055-6.461,18.451-16.346,22.863-28.272c0.888-2.401,1.614-5.128,0.758-7.543
	c-0.601-1.695-1.905-2.969-3.304-3.924c-5.729-3.91-12.98-3.259-19.669-2.477c-10.72,1.253-22.01,2.743-30.666,9.869"/>
<path fill="none" stroke="#0000FF" stroke-miterlimit="10" d="M340.032,147.04c0.294,1.562,0.402,3.159,0.321,4.746
	c6.274,1.569,12.662,2.68,19.097,3.32c-2.558,1.542-4.949,3.362-7.117,5.418c4.906,0.322,9.769,1.28,14.43,2.843
	c3.116-3.456,6.719-6.472,10.669-8.933c-2.846-0.001-5.692-0.085-8.534-0.252c6.487-3.481,12.667-7.532,18.445-12.093
	c0.1-0.079,0.206-0.168,0.234-0.292c0.028-0.123-0.03-0.248-0.086-0.362c-0.734-1.493-1.468-2.986-2.201-4.479
	c1.535-0.971,3.07-1.941,4.605-2.912c0.339-0.215,0.701-0.456,0.835-0.835c0.114-0.323,0.037-0.679-0.041-1.012
	c-1.031-4.412-2.062-8.823-3.092-13.235c-5.865,7.814-17.155,11.888-24.176,18.683c-1.373-0.666-2.676-1.477-3.88-2.415
	c-0.167,1.314-0.217,2.642-0.149,3.964c-1.525-0.734-3.183-0.169-4.873-0.246c-2.971-0.136-4.339-0.627-7.281-1.062
	c-4.073-0.602-16.742-3.217-19.085-2.377c-1.042,0.374,6.311,6.678,7.52,10.982C337.064,146.826,338.596,146.876,340.032,147.04z"/>
<g>
	<path fill="none" stroke="#0000FF" stroke-miterlimit="10" d="M375.046,180.653c-1.163-0.144-1.976-1.364-1.979-2.536
		s0.628-2.259,1.402-3.14c2.123-2.417,5.32-3.636,8.491-4.177c2.977-0.508,6.109-0.483,8.932,0.589s5.297,3.297,6.2,6.178
		c0.475,1.517,0.507,3.14,0.36,4.723c-0.346,3.725-1.761,7.483-4.564,9.96c-5.708,5.044-15.043,3.372-21.198,7.859
		c-1.036,0.755-2.019,1.814-2.035,3.096c-0.015,1.282,1.498,2.505,2.566,1.796"/>
	<path fill="none" stroke="#0000FF" stroke-miterlimit="10" d="M372.833,209.088c0.053-0.245,0.025-0.507-0.08-0.736
		c-1.777,0.131-3.529,0.6-5.135,1.373c-0.565,0.272-1.205,0.844-0.922,1.404c0.102,0.202,0.305,0.332,0.508,0.433
		c1.773,0.891,3.931,0.319,5.708-0.562c0.775-0.384,1.606-0.942,1.716-1.8c-0.946-0.587-2.112-0.81-3.208-0.613
		c-0.759,0.136-1.602,0.649-1.568,1.419"/>
	<path fill="none" stroke="#0000FF" stroke-miterlimit="10" d="M367.929,213.059c1.531,0.308,3.125,0.294,4.65-0.04
		c0.369-0.081,0.748-0.187,1.035-0.433c0.69-0.593,0.553-1.727,0.082-2.506c-0.612-1.012-1.688-1.731-2.857-1.908"/>
</g>
<g>
	<path fill="none" stroke="#0000FF" stroke-miterlimit="10" d="M35.306,463.645c1.84,9.221,2.315,18.651,2.786,28.042
		c0.358-3.535,1.068-7.035,2.118-10.43c0.379-1.225,1.078-2.658,2.359-2.72c1.647-0.08,2.332,2.062,2.441,3.708
		c0.22,3.325,0.253,6.662,0.1,9.991"/>
	<path fill="none" stroke="#0000FF" stroke-miterlimit="10" d="M52.166,461.175c-0.009,8.7-0.017,17.399-0.026,26.099
		c-0.003,2.946,0.016,5.998,1.245,8.675"/>
	<path fill="none" stroke="#0000FF" stroke-miterlimit="10" d="M45.056,471.027c8.053,2.166,16.964,0.921,24.115-3.368"/>
	<path fill="none" stroke="#0000FF" stroke-miterlimit="10" d="M57.695,462.378c0.18,7.951,0.361,15.903,0.541,23.854
		c0.07,3.071,0.154,6.217,1.289,9.071"/>
	<path fill="none" stroke="#0000FF" stroke-miterlimit="10" d="M62.357,482.496c-0.171,1.61,0.171,3.226,0.51,4.811
		c1.367,6.379,2.733,12.758,4.1,19.137c-0.788-6.634-1.577-13.269-2.365-19.903c-0.12-1.014-0.227-2.102,0.271-2.999
		c0.776-1.398,2.648-1.746,4.275-1.84c1.114-0.064,2.402-0.01,3.098,0.841c0.421,0.515,0.517,1.206,0.598,1.86
		c0.168,1.358,0.328,2.78-0.169,4.059c-0.498,1.279-3.156,2.32-4.518,1.994"/>
	<path fill="none" stroke="#0000FF" stroke-miterlimit="10" d="M79.546,481.06c0.138-0.142,0.047-0.4-0.123-0.5
		s-0.382-0.088-0.579-0.074c-1.858,0.138-3.968,0.412-5.035,1.939c1.637,1.191,3.972,0.788,5.779,1.7
		c0.238,0.12,0.473,0.27,0.617,0.494c0.487,0.76-0.325,1.692-1.11,2.138c-1.246,0.707-2.643,1.145-4.07,1.274
		c-0.578,0.052-1.181,0.051-1.714-0.179c-0.533-0.23-0.981-0.736-0.989-1.317"/>
	<path fill="none" stroke="#0000FF" stroke-miterlimit="10" d="M84.686,479.654c-0.712-0.19-1.495,0.536-1.36,1.26
		c0.893,0.423,2.097-0.048,2.465-0.965c-0.334-0.207-0.755-0.266-1.132-0.161"/>
	<path fill="none" stroke="#0000FF" stroke-miterlimit="10" d="M83.792,485.377c-0.115-0.056-0.252-0.031-0.373,0.011
		c-0.528,0.183-0.931,0.783-0.745,1.31c0.185,0.527,1.061,0.67,1.303,0.166c-0.128-0.216-0.388-0.346-0.637-0.317"/>
	<path fill="none" stroke="#0000FF" stroke-miterlimit="10" d="M94.894,468.72c-2.142,6.743-4.657,13.367-7.531,19.832"/>
	<path fill="none" stroke="#0000FF" stroke-miterlimit="10" d="M103.232,462.483c-3.108,11.522-10.037,21.789-12.655,33.431"/>
	<path fill="none" stroke="#0000FF" stroke-miterlimit="10" d="M112.008,476.384c-0.752,7.325,1.659,14.623,1.612,21.986
		c-0.571-7.757-1.087-15.869,2.003-23.006c1.807,0.776,3.895,1.934,3.995,3.898c0.084,1.662-1.381,3.006-2.894,3.699
		c-0.632,0.289-1.558,0.417-1.864-0.208"/>
	<path fill="none" stroke="#0000FF" stroke-miterlimit="10" d="M123.16,475.487c-0.273-0.085-0.172-0.499-0.001-0.728
		c0.855-1.148,2.144-1.965,3.548-2.248c0.748-0.151,1.589-0.135,2.195,0.329c0.691,0.529,0.888,1.485,0.885,2.355
		c-0.004,1.348-0.374,2.692-1.059,3.853c-0.916-0.201-1.453-1.185-2.317-1.55c-1.208-0.51-2.535,0.333-3.533,1.182
		c-0.627,0.533-1.283,1.182-1.31,2.005c-0.037,1.12,1.19,1.945,2.31,1.91c1.12-0.035,2.122-0.666,3.062-1.276"/>
	<path fill="none" stroke="#0000FF" stroke-miterlimit="10" d="M132.914,473.574c0.118,2.745,0.045,5.499-0.218,8.234
		c0.341-2.508,1.36-4.921,2.921-6.915c0.255-0.326,0.609-0.673,1.015-0.594c0.447,0.087,0.629,0.619,0.711,1.067
		c0.301,1.636,0.39,3.311,0.265,4.969"/>
	<path fill="none" stroke="#0000FF" stroke-miterlimit="10" d="M141.944,476.033c1.797,0.122,3.632-0.453,5.038-1.578
		c0.499-0.4,0.984-0.994,0.823-1.613c-0.205-0.788-1.253-0.963-2.058-0.841c-1.87,0.282-3.613,1.329-4.741,2.847
		c-0.821,1.106-1.231,2.846-0.185,3.741c0.328,0.281,0.752,0.427,1.175,0.516c2.55,0.541,5.158-0.773,7.096-2.516"/>
	<path fill="none" stroke="#0000FF" stroke-miterlimit="10" d="M153.065,462.694c-0.906,2.296-1.627,4.664-2.153,7.075
		c-0.315,1.445-0.562,2.922-0.461,4.397c0.101,1.475,0.576,2.962,1.556,4.069c0.51,0.576,1.245,1.062,2.002,0.925
		c0.93-0.168,1.437-1.154,1.806-2.024"/>
	<path fill="none" stroke="#0000FF" stroke-miterlimit="10" d="M159.677,477.112c-0.115-0.056-0.252-0.031-0.373,0.011
		c-0.528,0.183-0.931,0.783-0.745,1.31c0.185,0.527,1.061,0.67,1.303,0.166c-0.128-0.216-0.388-0.346-0.637-0.317"/>
	<path fill="none" stroke="#0000FF" stroke-miterlimit="10" d="M166.856,469.622c-0.752,7.325,1.659,14.623,1.612,21.986
		c-0.571-7.757-1.087-15.869,2.003-23.006c1.807,0.776,3.895,1.934,3.995,3.898c0.084,1.662-1.381,3.006-2.894,3.699
		c-0.632,0.289-1.558,0.417-1.864-0.208"/>
	<path fill="none" stroke="#0000FF" stroke-miterlimit="10" d="M176.075,467.374c0.025,3.117,0.051,6.234,0.076,9.352
		c-0.208-2.042-0.016-4.123,0.56-6.093c0.283-0.966,0.797-2.034,1.778-2.26c0.582-0.134,1.232,0.1,1.595,0.574
		c0.363,0.474,0.419,1.163,0.138,1.69"/>
	<path fill="none" stroke="#0000FF" stroke-miterlimit="10" d="M183.228,469.247c-0.014,0.673,0.444,1.291,1.025,1.63
		c0.581,0.339,1.27,0.443,1.942,0.482c1.025,0.059,2.058-0.021,3.062-0.235c1.504-0.321,3.131-1.164,3.436-2.671
		c0.079-0.388,0.047-0.827-0.21-1.129c-0.237-0.278-0.615-0.386-0.972-0.466c-1.874-0.418-3.894-0.435-5.656,0.327
		c-1.762,0.762-3.212,2.402-3.401,4.312c-0.094,0.949,0.17,1.999,0.932,2.571c0.77,0.578,1.829,0.536,2.783,0.401
		c2.281-0.325,4.506-1.041,6.548-2.11"/>
	<path fill="none" stroke="#0000FF" stroke-miterlimit="10" d="M195.112,468.997c-0.477,0.004-0.8-0.551-0.738-1.025
		c0.062-0.473,0.382-0.867,0.689-1.232c0.501-0.596,1.144-1.252,1.917-1.148c0.913,0.123,1.34,1.263,1.18,2.17
		c-0.16,0.907-0.693,1.707-0.926,2.598c-0.069,0.266-0.11,0.554-0.011,0.81c0.297,0.769,1.463,0.605,2.128,0.118
		c1.662-1.217,2.318-3.363,2.74-5.379c-0.261-0.166-0.63,0.021-0.765,0.3s-0.102,0.606-0.059,0.912
		c0.452,3.278,1.589,6.471,1.611,9.779c0.021,3.309-1.465,6.974-4.575,8.104c-1.48,0.538-3.109,0.428-4.676,0.262
		c-1.004-0.106-2.037-0.243-2.909-0.751c-0.872-0.508-1.55-1.481-1.409-2.48"/>
	<path fill="none" stroke="#0000FF" stroke-miterlimit="10" d="M205.925,462.859c-0.752,7.325,1.659,14.623,1.612,21.986
		c-0.571-7.757-1.087-15.869,2.003-23.006c1.807,0.776,3.895,1.934,3.995,3.898c0.084,1.662-1.381,3.006-2.894,3.699
		c-0.632,0.289-1.558,0.417-1.864-0.208"/>
	<path fill="none" stroke="#0000FF" stroke-miterlimit="10" d="M216.648,460.611c0.033,3.117,0.067,6.234,0.1,9.352
		c-0.273-2.042-0.021-4.123,0.737-6.093c0.372-0.966,1.048-2.034,2.338-2.26c0.765-0.134,1.62,0.1,2.097,0.574
		c0.477,0.474,0.551,1.163,0.181,1.69"/>
	<path fill="none" stroke="#0000FF" stroke-miterlimit="10" d="M230.56,461.367c-0.049-0.476-0.762-0.436-1.197-0.237
		c-2.358,1.075-4.51,2.6-6.305,4.468c-0.799,0.831-1.561,2.092-0.925,3.054c0.328,0.497,0.935,0.723,1.512,0.872
		c3.823,0.985,8.14-0.272,10.835-3.157c0.418-0.448,0.819-0.984,0.815-1.597c-0.005-0.604-0.423-1.15-0.949-1.445
		s-1.147-0.376-1.751-0.387c-1.961-0.036-3.928,0.63-5.464,1.85"/>
	<path fill="none" stroke="#0000FF" stroke-miterlimit="10" d="M238.201,461.001c0.54,3.766,0.765,7.577,0.671,11.38
		c-0.081,3.266-0.461,6.709-2.393,9.344c-0.701,0.957-1.711,1.825-2.897,1.835c-1.009,0.008-1.948-0.638-2.483-1.493
		c-0.535-0.855-0.714-1.891-0.718-2.9c-0.006-1.612,0.413-3.224,1.203-4.629"/>
	<path fill="none" stroke="#0000FF" stroke-miterlimit="10" d="M237.357,455.004c-0.245-0.29-0.73-0.252-1.033-0.022
		s-0.466,0.594-0.619,0.942c-0.172,0.394-0.335,0.883-0.073,1.224c0.127,0.164,0.331,0.253,0.534,0.295
		c0.503,0.104,1.073-0.064,1.379-0.477c0.306-0.412,0.278-1.062-0.113-1.395s-1.097-0.215-1.301,0.256"/>
	<path fill="none" stroke="#0000FF" stroke-miterlimit="10" d="M242.893,460.987c2.176,0.99,5.02,0.15,6.307-1.865
		c0.223-0.349,0.399-0.817,0.165-1.158c-0.16-0.234-0.461-0.322-0.741-0.367c-2.705-0.434-5.281,1.709-6.32,4.243
		c-0.389,0.949-0.561,2.184,0.194,2.878c0.433,0.398,1.059,0.498,1.647,0.517c2.033,0.065,4.08-0.656,5.623-1.981"/>
	<path fill="none" stroke="#0000FF" stroke-miterlimit="10" d="M258.727,458.241c-0.326-1.029-1.624-1.497-2.668-1.221
		c-1.044,0.276-1.852,1.098-2.494,1.967c-0.729,0.988-1.336,2.226-1.009,3.409c0.354,1.282,1.768,2.072,3.096,2.015
		c1.328-0.056,2.544-0.801,3.494-1.731"/>
	<path fill="none" stroke="#0000FF" stroke-miterlimit="10" d="M264.485,445.496c-1.774,4.569-2.566,9.517-2.306,14.411
		c0.042,0.792,0.117,1.603,0.461,2.318c0.344,0.714,1.015,1.321,1.806,1.376c1.206,0.084,2.108-1.042,2.779-2.047"/>
	<path fill="none" stroke="#0000FF" stroke-miterlimit="10" d="M256.927,453.231c4.553-1.016,9.055-2.265,13.481-3.741"/>
	<path fill="none" stroke="#0000FF" stroke-miterlimit="10" d="M272.101,459.794c-0.738,0.056-1.365,0.763-1.332,1.502
		c1.149,0.108,2.336-0.484,2.942-1.466c-0.506-0.261-1.174-0.161-1.582,0.237"/>
	<path fill="none" stroke="#0000FF" stroke-miterlimit="10" d="M281.794,456.78c0.706-0.704,1.222-1.597,1.48-2.56
		c0.036-0.136,0.066-0.288,0.001-0.413c-0.107-0.206-0.393-0.219-0.624-0.195c-2.02,0.208-3.966,1.074-5.472,2.436
		c-0.692,0.626-1.31,1.387-1.53,2.294s0.047,1.976,0.821,2.498c0.491,0.331,1.112,0.406,1.703,0.377
		c1.22-0.061,2.416-0.539,3.341-1.336"/>
	<path fill="none" stroke="#0000FF" stroke-miterlimit="10" d="M286.979,455.152c0.004-0.26-0.297-0.439-0.555-0.406
		c-0.258,0.032-0.473,0.206-0.671,0.375c-0.782,0.668-1.557,1.389-2.006,2.315c-0.449,0.925-0.512,2.104,0.094,2.935
		c0.432,0.592,1.143,0.932,1.866,1.055c1.464,0.25,2.993-0.331,4.098-1.324s1.82-2.359,2.26-3.778
		c0.183-0.591,0.318-1.255,0.044-1.809c-0.442-0.894-1.662-1.023-2.649-0.882c-2.16,0.307-4.436,1.628-4.81,3.777"/>
	<path fill="none" stroke="#0000FF" stroke-miterlimit="10" d="M294.843,454.031c-0.163-0.047-0.304-0.167-0.375-0.322
		c0.941-0.728,2.022-1.274,3.166-1.599c-0.135,2.585-0.916,5.133-2.253,7.349c1.456-2.444,3.061-5.026,5.643-6.221
		c0.347,2.171-0.727,4.289-1.768,6.225c1.228-2.401,2.883-4.584,4.863-6.415c0.495-0.458,1.168-0.924,1.791-0.666
		c-0.486,3.407-1.713,6.706-3.572,9.602"/>
	<path fill="none" stroke="#0000FF" stroke-miterlimit="10" d="M141.19,506.916c-1.413,0.548-0.53-2.199,0.927-2.614
		c54.631-15.538,110.928-25.207,167.612-28.788c-33.01,0.482-65.97,4.338-98.201,11.486c1.192-0.343,2.383-0.687,3.575-1.03"/>
</g>
<path fill="none" stroke="#0000FF" stroke-miterlimit="10" d="M365.756,309.274c-0.007,4.645-0.094,8.728-0.022,12.893
	c0.158,9.164-0.007,18.334-0.494,27.487c-0.437-2.509-1.744-4.859-3.645-6.554c2.54,5.446,4.389,11.213,5.49,17.121
	c-0.644-7.536-0.641-14.316-0.742-21.526"/>
<path fill="none" stroke="#0000FF" stroke-miterlimit="10" d="M366.539,310.715c-0.438,10.349,1.7,20.799,5.282,30.518
	c0.887,2.407,1.927,4.826,3.679,6.701c1.752,1.875,4.354,3.131,6.878,2.671c4.096-0.746,6.147-5.3,7.325-9.293
	c3.069-10.403,4.805-21.198,5.151-32.038c2.1,16.032-1.202,32.637,2.747,48.316c-2.599,1.195-5.054,2.702-7.296,4.479"/>
<path fill="none" stroke="#0000FF" stroke-miterlimit="10" d="M389.921,360.768c2.259-1.29,5.438-2.42,7.857-3.377
	c0.331-0.131,0.689-0.28,0.866-0.59c0.086-0.15,0.119-0.323,0.151-0.492c0.91-4.796,1.82-9.593,2.73-14.389
	c-1.032,3.411-2.344,6.737-3.92,9.933c-0.54-0.375-1.764-1.141-2.304-1.516"/>
<path fill="none" stroke="#0000FF" stroke-miterlimit="10" d="M368.298,331.259c1.092,5.46,2.696,10.818,4.785,15.98
	c0.541,1.338,1.127,2.683,2.044,3.798c0.917,1.115,2.217,1.988,3.657,2.087c1.494,0.103,2.919-0.623,4.154-1.469
	c1.127-0.773,2.172-1.664,3.113-2.654"/>
<path fill="none" stroke="#0000FF" stroke-miterlimit="10" d="M371.63,304.391c5.884-3.467,13.727-3.29,19.448,0.44
	c1.075,0.701,2.097,1.538,2.752,2.641c-2.798,3.387-6.864,5.701-11.206,6.377c-3.765,0.586-7.707-0.065-11.097-1.8
	c-1.378-0.705-3.491-1.801-3.531-3.597C367.957,306.6,370.249,305.204,371.63,304.391z"/>
<path fill="none" stroke="#0000FF" stroke-miterlimit="10" d="M372.635,302.961c-0.288-0.272-0.753-0.037-1.067,0.204
	c-1.444,1.11-2.831,2.293-4.156,3.542c-0.197,0.185-0.407,0.409-0.392,0.679c0.01,0.169,0.109,0.319,0.214,0.451
	c0.674,0.849,1.765,1.201,2.697,1.754c2.798,1.66,7.107,3.31,10.983,3.472c3.873,0.161,8.108-1.4,11.096-3.868"/>
<path fill="none" stroke="#0000FF" stroke-miterlimit="10" d="M369.168,359.906c1.785,0.698,3.57,1.395,5.355,2.093
	c0.311,0.121,0.637,0.254,0.843,0.516c0.324,0.412,0.253,0.998,0.169,1.515c-2.252,13.734-8.369,100.86-9.053,114.76"/>
<path fill="none" stroke="#0000FF" stroke-miterlimit="10" d="M391.888,361.8c1.737,38.9,3.936,77.78,6.595,116.629"/>
<path fill="none" stroke="#0000FF" stroke-miterlimit="10" d="M378.268,417.151c-1.511-0.342-3.021-0.684-4.532-1.026
	c0.111-1.179-0.623-2.208-0.59-3.464c-0.033,1.256-1.945,1.924-2.753,0.962c-0.278-0.331-0.364-0.774-0.527-1.174
	c-1.569-3.854-3.283-7.366-4.355-11.048c2.351,12.968,1.932,28.235,2.786,41.387"/>
<path fill="none" stroke="#0000FF" stroke-miterlimit="10" d="M389.214,418.86c0.273-2.336,0.545-4.672,0.818-7.007
	c0.22,1.819,0.744,3.6,1.543,5.249c1.065,0.06,2.13,0.121,3.195,0.181c1.68-4.944,3.36-9.889,5.039-14.833
	c-0.847,5.713-1.694,11.426-2.541,17.14c-0.166,1.119-0.332,2.242-0.357,3.373c-0.022,0.977-0.582,4.859-0.582,4.859
	c0.017,4.276,0.028,19.168,0.298,22.305"/>
<path fill="none" stroke="#0000FF" stroke-miterlimit="10" d="M380.693,314.686c0.601-0.311,0.919-0.974,1.171-1.601
	c0.833-2.08,1.38-4.31,1.272-6.548c-0.107-2.219-0.906-4.441-2.471-6.05c-0.045,1.997-0.301,3.964-0.237,5.989
	C380.455,307.327,381.206,314.421,380.693,314.686z"/>
<path fill="none" stroke="#0000FF" stroke-miterlimit="10" d="M383.612,303.811c0.467,3.445-0.46,7.058-2.526,9.853"/>
<path fill="none" stroke="#0000FF" stroke-miterlimit="10" d="M356.712,304.512c0.914,0.09,1.828,0.18,2.742,0.27
	c0.9,0.089,1.897,0.152,2.616-0.396c0.785-0.599,0.947-1.773,0.601-2.697c-0.346-0.925-1.093-1.64-1.875-2.241
	c-0.865-0.665-1.803-1.235-2.792-1.697"/>
<path fill="none" stroke="#0000FF" stroke-miterlimit="10" d="M363.543,303.944c1.036-2.33,0.072-5.159-1.67-7.021
	c-1.742-1.862-4.125-2.966-6.444-4.025c3.133,2.485,6.933,4.122,10.891,4.692c0.28-3.956-0.561-7.895-1.397-11.772
	c0.299,2.406,1.19,4.736,2.572,6.728c0.909,1.31,2.297,2.577,3.875,2.357c1.554-0.217,2.533-1.76,3.161-3.197
	c0.87-1.992,1.489-4.093,1.837-6.238c-0.432,2.299-0.857,4.713-0.137,6.938c0.338,1.044,1.164,2.139,2.256,2.04
	c0.963-0.087,1.576-1.042,2.024-1.898c1.859-3.548,3.492-7.214,4.886-10.969c-1.411,3.058-2.482,6.271-3.188,9.564
	c-0.248,1.155-0.153,2.786,1.011,2.989c0.797,0.139,1.466-0.566,1.967-1.201c2.081-2.639,4.163-5.278,6.244-7.917
	c-1.884,2.527-3.508,5.247-4.839,8.103c-0.353,0.757-0.643,1.767-0.03,2.335c0.259,0.24,0.621,0.328,0.969,0.386
	c2.401,0.4,4.881-0.246,7.047-1.356s4.066-2.664,5.949-4.207c-1.441,1.133-2.763,2.418-3.938,3.825
	c-0.967,1.159-1.86,2.466-2.061,3.961c-0.091,0.674-0.014,1.417,0.43,1.932c0.4,0.464,1.024,0.661,1.624,0.788
	c2.318,0.491,4.789,0.227,6.951-0.742"/>
<path fill="none" stroke="#0000FF" stroke-miterlimit="10" d="M367.917,294.24c0.308,0.266,0.615,0.533,0.923,0.799
	c0.604,0.523,1.254,1.068,2.044,1.187c0.856,0.129,1.727-0.286,2.331-0.906s0.983-1.423,1.301-2.228
	c0.805-2.038,1.199-4.404,1.439-6.656c-0.193,1.687-0.345,3.404-0.144,5.098c0.22,1.847,0.918,3.873,2.415,5.078
	c0.15,0.12,0.318,0.237,0.51,0.247c0.291,0.015,0.531-0.212,0.728-0.427c2.276-2.481,3.952-5.509,4.879-8.744"/>
<path fill="none" stroke="#0000FF" stroke-miterlimit="10" d="M377.933,375.85c0.192-3.586,0.67-7.157,1.427-10.667
	c0.161-0.749,0.352-1.527,0.856-2.104c1.015-1.163,2.821-1.058,4.351-0.857c0.746,0.098,1.519,0.206,2.151,0.613
	c1.417,0.913,1.58,2.886,1.593,4.572c0.022,2.728,0.044,5.456,0.066,8.184c0.006,0.705-0.625,1.706-1.102,1.187
	c-0.094-0.422-0.189-0.843-0.283-1.265c-0.027,1.09-1.069,1.923-2.135,2.152c-1.066,0.229-2.169,0.017-3.256-0.075
	c-2.131-0.18-4.3,0.116-6.305,0.859c-0.337-1.746-0.674-3.492-1.012-5.238c-1.756,6.842-3.035,13.807-3.824,20.827
	c1.803-0.586,3.148-2.369,3.217-4.264c1.269,0.514,2.781-0.694,4.028-0.126c0.434,0.197,0.749,0.58,1.049,0.951
	c0.778,0.962,1.557,1.923,2.335,2.885c0.432-1.865,0.587-3.794,0.459-5.703c0.057,8.325,0.114,16.65,0.17,24.975
	c-0.483-2.697-0.968-5.462-0.483-8.159c0.484-2.697,2.147-5.354,4.74-6.236c0.45-0.153,0.94-0.25,1.399-0.125
	c1.21,0.329,1.518,1.88,1.553,3.134c0.088,3.119-0.108,6.246-0.582,9.33"/>
<path fill="none" stroke="#0000FF" stroke-miterlimit="10" d="M390.773,375.201c0.424,7.763,0.767,15.531,1.029,23.301
	c0.206-3.169,0.412-6.338,0.619-9.506c0.967,2.393,1.457,4.978,1.433,7.56c0.017-1.197,0.467-2.338,0.825-3.481
	c1.27-4.049,1.419-8.444,0.425-12.569c-0.535,3.114-0.688,6.294-0.454,9.446c-0.608-0.441-1.216-0.882-1.824-1.322"/>
<path fill="none" stroke="#0000FF" stroke-miterlimit="10" d="M375.078,380.374c-1.131,9.832-2.184,19.674-3.159,29.523"/>
<path fill="none" stroke="#0000FF" stroke-miterlimit="10" d="M376.395,383.888c-1.836,9.434-3.102,18.979-3.789,28.565"/>
<path fill="none" stroke="#0000FF" stroke-miterlimit="10" d="M379.97,377.41c0.239-1.759,0.479-3.519,0.718-5.278
	c0.437-3.215,0.877-6.442,1.746-9.568c0.062-0.224,0.264-0.505,0.458-0.378"/>
<path fill="none" stroke="#0000FF" stroke-miterlimit="10" d="M375.822,376.965c4.093-0.554,8.211-0.918,12.338-1.091"/>
<path fill="none" stroke="#0000FF" stroke-miterlimit="10" d="M376.613,410.244c6.327,0.099,12.654,0.115,18.981,0.046"/>
<path fill="none" stroke="#0000FF" stroke-miterlimit="10" d="M377.984,411.923c4.566,0.115,9.132,0.23,13.698,0.345"/>
<path fill="none" stroke="#0000FF" stroke-miterlimit="10" d="M375.897,417.358c-0.005,0.06-0.009,0.12-0.014,0.18
	c-0.289-1.229-1.822-5.317,0.257-5.315C376.482,413.724,376.022,415.758,375.897,417.358z"/>
<path fill="none" stroke="#0000FF" stroke-miterlimit="10" d="M371.63,419.894c-0.157,15.343-1.155,30.677-2.988,45.911
	c1.533-7.382-0.431-15.394,2.406-22.38c0.66,5.608,0.776,11.28,0.347,16.911c0.551-1.452,0.86-2.996,0.909-4.548
	c0.278,1.192,0.556,2.384,0.834,3.576c1.905,0.059,3.81,0.118,5.716,0.178c-0.498-4.622-0.347-9.314,0.448-13.895
	c2.713-0.972,6.207-1.762,8.092,0.418c0.836,0.967,1.096,2.294,1.256,3.563c0.476,3.771,0.338,7.618-0.406,11.345
	c0.758-0.259,1.25-1.129,1.081-1.912c0.384,0.391,0.768,0.781,1.151,1.172c0.323-0.861,0.647-1.722,0.97-2.583
	c0.352,1.862,2.506,3.157,4.316,2.595c-0.12-6.808-0.356-13.615-0.706-20.415"/>
<path fill="none" stroke="#0000FF" stroke-miterlimit="10" d="M376.188,430.237c-0.033-0.243-0.413-0.1-0.565,0.092
	c-2.199,2.761-4.285,5.612-6.25,8.544"/>
<path fill="none" stroke="#0000FF" stroke-miterlimit="10" d="M375.672,435.367c-0.324-0.403-0.956-0.005-1.286,0.393
	c-2.298,2.771-4.13,5.928-5.394,9.299"/>
<path fill="none" stroke="#0000FF" stroke-miterlimit="10" d="M375.064,439.765c-0.622,0.06-1.082,0.585-1.463,1.081
	c-2.026,2.637-3.724,5.525-5.043,8.578"/>
<path fill="none" stroke="#0000FF" stroke-miterlimit="10" d="M375.518,443.306c-3.064,5.281-5.701,10.81-7.876,16.515"/>
<path fill="none" stroke="#0000FF" stroke-miterlimit="10" d="M375.399,450.515c-2.032,3.508-4.064,7.016-6.095,10.523
	c-1.422,2.455-2.849,4.92-3.907,7.553"/>
<path fill="none" stroke="#0000FF" stroke-miterlimit="10" d="M376.811,456.87c-0.516-0.101-0.949,0.372-1.26,0.796
	c-2.814,3.848-5.379,7.877-7.673,12.056c-0.911,1.66-1.806,3.465-1.628,5.35"/>
<path fill="none" stroke="#0000FF" stroke-miterlimit="10" d="M376.771,460.921c-1.361,0.929-2.376,2.275-3.305,3.635
	c-2.994,4.384-5.372,9.188-7.041,14.228"/>
<path fill="none" stroke="#0000FF" stroke-miterlimit="10" d="M377.792,463.463c-0.464,0.093-0.8,0.486-1.094,0.857
	c-4.039,5.088-7.453,10.672-10.141,16.586"/>
<path fill="none" stroke="#0000FF" stroke-miterlimit="10" d="M381.944,461.037c-5.605,5.863-9.649,13.204-11.609,21.074"/>
<path fill="none" stroke="#0000FF" stroke-miterlimit="10" d="M382.458,466.823c-4.052,4.358-8.137,9.088-9.444,14.894"/>
<path fill="none" stroke="#0000FF" stroke-miterlimit="10" d="M375.292,426.317c-0.236-0.158-0.536,0.065-0.729,0.272
	c-1.994,2.134-3.988,4.268-5.981,6.403"/>
<path fill="none" stroke="#0000FF" stroke-miterlimit="10" d="M373.629,423.305c-1.803,0.827-3.314,2.277-4.215,4.045"/>
<path fill="none" stroke="#0000FF" stroke-miterlimit="10" d="M391.374,421.499c-0.797,1.722-1.669,3.41-2.611,5.058"/>
<path fill="none" stroke="#0000FF" stroke-miterlimit="10" d="M391.359,424.535c-0.929,2.109-1.858,4.218-2.786,6.327"/>
<path fill="none" stroke="#0000FF" stroke-miterlimit="10" d="M391.196,428.461c-0.888,1.94-1.692,3.918-2.41,5.927"/>
<path fill="none" stroke="#0000FF" stroke-miterlimit="10" d="M390.821,432.589c-0.671,2.189-1.415,4.356-2.229,6.496"/>
<path fill="none" stroke="#0000FF" stroke-miterlimit="10" d="M390.416,437.872c-0.66,2.494-1.319,4.987-1.979,7.481"/>
<path fill="none" stroke="#0000FF" stroke-miterlimit="10" d="M391.63,438.865c-0.664,3.616-1.712,7.162-3.119,10.559"/>
<path fill="none" stroke="#0000FF" stroke-miterlimit="10" d="M391.605,444.527c-1.047,3.605-2.095,7.21-3.142,10.815"/>
<path fill="none" stroke="#0000FF" stroke-miterlimit="10" d="M392.037,448.849c-0.453,3.93-1.587,7.781-3.336,11.33"/>
<path fill="none" stroke="#0000FF" stroke-miterlimit="10" d="M368.262,337.054c-0.767,2.068-1.763,4.052-2.962,5.903"/>
<path fill="none" stroke="#0000FF" stroke-miterlimit="10" d="M368.601,338.893c-0.743,2.269-1.629,4.491-2.652,6.649"/>
<path fill="none" stroke="#0000FF" stroke-miterlimit="10" d="M369.048,340.832c-1.232,2.899-2.377,5.836-3.433,8.804"/>
<path fill="none" stroke="#0000FF" stroke-miterlimit="10" d="M369.429,342.431c-1.216,3.498-2.482,6.978-3.799,10.439"/>
<path fill="none" stroke="#0000FF" stroke-miterlimit="10" d="M370.439,343.538c-1.793,4.11-3.31,8.341-4.537,12.655"/>
<path fill="none" stroke="#0000FF" stroke-miterlimit="10" d="M370.878,345.81c-1.685,4.076-3.105,8.261-4.249,12.52"/>
<path fill="none" stroke="#0000FF" stroke-miterlimit="10" d="M371.363,348.062c-1.321,3.723-2.642,7.447-3.962,11.17"/>
<path fill="none" stroke="#0000FF" stroke-miterlimit="10" d="M371.935,350.716c-0.462,3.276-1.391,6.487-2.75,9.504"/>
<path fill="none" stroke="#0000FF" stroke-miterlimit="10" d="M372.63,353.259c-0.464,2.614-1.181,5.183-2.137,7.659"/>
<path fill="none" stroke="#0000FF" stroke-miterlimit="10" d="M373.651,355.319c-0.491,1.964-0.983,3.928-1.474,5.893"/>
<path fill="none" stroke="#0000FF" stroke-miterlimit="10" d="M375.091,356.672c-0.658,1.609-1.316,3.218-1.974,4.827"/>
<path fill="none" stroke="#0000FF" stroke-miterlimit="10" d="M376.394,357.612c-0.809,1.62-1.58,3.258-2.313,4.914"/>
<path fill="none" stroke="#0000FF" stroke-miterlimit="10" d="M377.01,359.143c-0.709,1.64-1.373,3.3-1.994,4.976"/>
<path fill="none" stroke="#0000FF" stroke-miterlimit="10" d="M378.113,360.156c-0.154,0.329-0.307,0.658-0.461,0.987
	c-1.38,2.957-2.76,5.914-4.14,8.871"/>
<path fill="none" stroke="#0000FF" stroke-miterlimit="10" d="M377.435,364.798c-0.858,2.955-1.967,5.837-3.31,8.605"/>
<path fill="none" stroke="#0000FF" stroke-miterlimit="10" d="M377.103,368.198c-0.146,0.42-0.268,0.848-0.396,1.273
	c-0.631,2.087-1.43,4.124-2.387,6.084"/>
<path fill="none" stroke="#0000FF" stroke-miterlimit="10" d="M376.325,348.851c-0.19,1.005-0.631,1.962-1.271,2.761"/>
<path fill="none" stroke="#0000FF" stroke-miterlimit="10" d="M377.514,349.751c0.054,0.001,0.029-0.101-0.025-0.097
	s-0.085,0.062-0.106,0.112c-0.425,1.002-0.851,2.004-1.276,3.006"/>
<path fill="none" stroke="#0000FF" stroke-miterlimit="10" d="M378.31,350.212c-0.368,0.922-0.736,1.845-1.103,2.767"/>
<path fill="none" stroke="#0000FF" stroke-miterlimit="10" d="M379.442,350.723c-0.415,0.917-0.829,1.835-1.244,2.752"/>
<path fill="none" stroke="#0000FF" stroke-miterlimit="10" d="M380.938,350.489c-0.521,0.964-1.043,1.927-1.564,2.891"/>
<path fill="none" stroke="#0000FF" stroke-miterlimit="10" d="M381.705,350.925c-0.249,0.625-0.581,1.218-0.983,1.758"/>
<path fill="none" stroke="#0000FF" stroke-miterlimit="10" d="M375.657,347.46c-0.159,0.005-0.259,0.167-0.33,0.308
	c-0.315,0.63-0.631,1.26-0.946,1.89"/>
<path fill="none" stroke="#0000FF" stroke-miterlimit="10" d="M374.774,346.18c-0.42,0.706-0.823,1.421-1.21,2.145"/>
<path fill="none" stroke="#0000FF" stroke-miterlimit="10" d="M373.973,345.933c-0.228,0.326-0.457,0.652-0.685,0.978"/>
<path fill="none" stroke="#0000FF" stroke-miterlimit="10" d="M373.087,344.56c-0.226,0.36-0.452,0.72-0.678,1.08"/>
<path fill="none" stroke="#0000FF" stroke-miterlimit="10" d="M372.189,342.869c-0.285,0.207-0.511,0.495-0.645,0.822"/>
<path fill="none" stroke="#0000FF" stroke-miterlimit="10" d="M382.245,362.339c-0.91,1.302-1.038,2.852-1.81,4.254
	c-1.056,1.916-1.893,3.932-2.445,6.051"/>
<path fill="none" stroke="#0000FF" stroke-miterlimit="10" d="M381.122,367.167c-1.038,2.376-1.992,4.788-2.863,7.23"/>
<path fill="none" stroke="#0000FF" stroke-miterlimit="10" d="M380.279,371.253c-0.885,2.404-0.323,4.595-1.717,6.862"/>
<path fill="none" stroke="#0000FF" stroke-miterlimit="10" d="M381.286,363.143c-0.508,1.284-1.229,2.483-2.124,3.534"/>
<path fill="none" stroke="#0000FF" stroke-miterlimit="10" d="M382.033,379.701c-0.558,1.426-1.117,2.851-1.675,4.277
	c0.603-0.762,1.205-1.523,1.808-2.285c-0.562,2.056-1.286,4.067-2.164,6.009c0.783-0.596,1.36-1.417,1.924-2.224
	c-0.604,1.405-1.075,2.868-1.404,4.361c0.497-0.814,0.994-1.628,1.491-2.442c-0.192,1.055-0.532,2.082-1.009,3.042"/>
<path fill="none" stroke="#0000FF" stroke-miterlimit="10" d="M376.756,402.5c-1.241,2.888-2.482,5.775-3.723,8.663"/>
<path fill="none" stroke="#0000FF" stroke-miterlimit="10" d="M377.054,404.806c-1.209,2.608-2.417,5.216-3.626,7.824"/>
<path fill="none" stroke="#0000FF" stroke-miterlimit="10" d="M377.687,407.175c-1.241,2.17-2.523,4.317-3.843,6.44"/>
<path fill="none" stroke="#0000FF" stroke-miterlimit="10" d="M378.17,408.736c-0.813,1.404-1.626,2.807-2.438,4.211"/>
<path fill="none" stroke="#0000FF" stroke-miterlimit="10" d="M378.376,420.971c-0.9,1.436-1.994,2.751-3.244,3.896"/>
<path fill="none" stroke="#0000FF" stroke-miterlimit="10" d="M378.279,422.732c-0.077,0.012-0.153,0.024-0.23,0.037
	c-0.848,1.154-1.696,2.307-2.544,3.461"/>
<path fill="none" stroke="#0000FF" stroke-miterlimit="10" d="M379.276,423.376c-0.236-0.014-0.425,0.182-0.578,0.362
	c-0.914,1.074-1.828,2.148-2.742,3.221"/>
<path fill="none" stroke="#0000FF" stroke-miterlimit="10" d="M378.521,424.838c-1.005,1.093-1.943,2.248-2.806,3.457"/>
<path fill="none" stroke="#0000FF" stroke-miterlimit="10" d="M378.731,426.02c-1.086,1.02-2.038,2.182-2.824,3.448"/>
<path fill="none" stroke="#0000FF" stroke-miterlimit="10" d="M378.843,427.115c-1.111,1.235-2.094,2.585-2.929,4.021"/>
<path fill="none" stroke="#0000FF" stroke-miterlimit="10" d="M378.436,428.862c-1.111,1.25-2.057,2.645-2.809,4.138"/>
<path fill="none" stroke="#0000FF" stroke-miterlimit="10" d="M378.36,430.45c-0.977,1.427-1.895,2.895-2.748,4.399"/>
<path fill="none" stroke="#0000FF" stroke-miterlimit="10" d="M378.269,431.999c-0.259,0.138-0.43,0.393-0.591,0.638
	c-0.695,1.058-1.389,2.117-2.084,3.175"/>
<path fill="none" stroke="#0000FF" stroke-miterlimit="10" d="M378.432,433.333c-0.109,0.135-0.217,0.27-0.325,0.406
	c-0.98,1.236-1.871,2.543-2.666,3.906"/>
<path fill="none" stroke="#0000FF" stroke-miterlimit="10" d="M378.604,434.61c-1.086,1.238-2.035,2.595-2.824,4.04"/>
<path fill="none" stroke="#0000FF" stroke-miterlimit="10" d="M378.47,436.138c-0.522,0.76-1.044,1.519-1.567,2.279
	c-0.536,0.78-1.083,1.585-1.296,2.507"/>
<path fill="none" stroke="#0000FF" stroke-miterlimit="10" d="M378.762,437.683c-0.432,0.216-0.687,0.666-0.916,1.091
	c-0.67,1.241-1.34,2.481-2.01,3.722"/>
<path fill="none" stroke="#0000FF" stroke-miterlimit="10" d="M378.376,439.168c-1.091,1.49-1.973,3.133-2.612,4.866"/>
<path fill="none" stroke="#0000FF" stroke-miterlimit="10" d="M378.279,440.929c-0.816,1.598-1.631,3.195-2.447,4.793"/>
<path fill="none" stroke="#0000FF" stroke-miterlimit="10" d="M378.578,442.286c-0.177,0.006-0.295,0.178-0.383,0.331
	c-0.818,1.425-1.59,2.876-2.313,4.352"/>
<path fill="none" stroke="#0000FF" stroke-miterlimit="10" d="M378.019,444.308c-0.89,1.258-1.632,2.619-2.209,4.047"/>
<path fill="none" stroke="#0000FF" stroke-miterlimit="10" d="M375.751,451.365c0.586-1.498,1.272-2.956,2.054-4.362"/>
<path fill="none" stroke="#0000FF" stroke-miterlimit="10" d="M378.226,447.934c-1.128,1.544-1.992,3.28-2.542,5.11"/>
<path fill="none" stroke="#0000FF" stroke-miterlimit="10" d="M378.328,448.925c-1.097,2.032-1.888,4.465-2.632,6.665"/>
<path fill="none" stroke="#0000FF" stroke-miterlimit="10" d="M375.831,456.483c0.385-0.912,0.77-1.825,1.155-2.737
	c0.142-0.337,0.297-0.691,0.588-0.913C376.903,454.134,376.27,455.087,375.831,456.483z"/>
<path fill="none" stroke="#0000FF" stroke-miterlimit="10" d="M378.314,456.642c-0.398,0.652-1.082,0.97-1.298,1.703
	c0.123-0.88,0.437-1.733,0.915-2.482"/>
<path fill="none" stroke="#0000FF" stroke-miterlimit="10" d="M365.162,478.543c-0.383-4.813-1.594-9.56-3.564-13.968
	c0.135,5.198-0.03,10.403-0.496,15.581c-0.209-0.857-0.417-1.714-0.626-2.57c-0.693,3.141-2.793,5.944-5.613,7.493
	c-1.61,2.898-5.921,3.133-7.931,5.771c-0.681,0.894-1.032,1.988-1.53,2.996c-0.915,1.854-2.46,3.509-4.458,4.038
	c-1.999,0.529-4.425-0.364-5.193-2.284c-1.73,1.775-4,3.016-6.429,3.513c-0.01-1.004-0.021-2.008-0.031-3.012
	c-3.591,1.9-5.677,5.7-8.436,8.682c-2.759,2.982-7.35,5.253-10.778,3.073c-0.646-0.411-1.289-0.985-2.052-0.925
	c-0.576,0.046-1.054,0.451-1.465,0.858c-1.062,1.048-2.092,2.3-3.552,2.608c-1.46,0.308-3.267-1.138-2.602-2.474
	c-2.875,0.085-5.7,1.318-7.718,3.367"/>
<path fill="none" stroke="#0000FF" stroke-miterlimit="10" d="M372.693,480.933c-1.02,1.01-1.442,2.584-1.065,3.969
	c1.914-2.118,3.686-4.365,5.299-6.721c-0.214,1.445-0.429,2.89-0.643,4.335c0.51,0.392,1.322,0.306,1.739-0.183
	c0.017,1.072,0.034,2.145,0.051,3.217c0.927,0.058,1.855,0.115,2.782,0.173c0.023,2.246,0.046,4.492,0.07,6.737
	c0.417-0.639-0.646-1.528-1.201-1.004c1.469-0.473,2.858,1.777,1.776,2.878c0.587,0.055,1.174,0.109,1.761,0.164"/>
<path fill="none" stroke="#0000FF" stroke-miterlimit="10" d="M338.429,499.315c-0.871,1.378-3.229,1.962-4.628,2.799
	c1.058-0.968,2.116-1.937,3.174-2.905"/>
<path fill="none" stroke="#0000FF" stroke-miterlimit="10" d="M339.935,499.027c-0.874,0.708-1.561,1.645-1.975,2.69"/>
<path fill="none" stroke="#0000FF" stroke-miterlimit="10" d="M363.928,480.413c-0.912,1.52-1.824,3.041-2.736,4.561"/>
<path fill="none" stroke="#0000FF" stroke-miterlimit="10" d="M363.73,482.621c-0.695,1.299-1.389,2.598-2.084,3.898"/>
<path fill="none" stroke="#0000FF" stroke-miterlimit="10" d="M363.975,483.969c-0.368,1.328-0.876,2.616-1.514,3.837"/>
<path fill="none" stroke="#0000FF" stroke-miterlimit="10" d="M364.728,485.125c-0.52,1.071-0.923,2.198-1.199,3.356"/>
<path fill="none" stroke="#0000FF" stroke-miterlimit="10" d="M365.17,486.617c-0.41,1.134-0.675,2.32-0.786,3.521"/>
<path fill="none" stroke="#0000FF" stroke-miterlimit="10" d="M366.278,486.789c-0.39,1.077-0.636,2.207-0.727,3.349"/>
<path fill="none" stroke="#0000FF" stroke-miterlimit="10" d="M367.317,487.789c-0.261,0.888-0.392,1.815-0.388,2.741"/>
<path fill="none" stroke="#0000FF" stroke-miterlimit="10" d="M368.594,489.258c-0.146,0.641-0.147,1.315-0.005,1.957"/>
<path fill="none" stroke="#0000FF" stroke-miterlimit="10" d="M369.469,489.849c0.322,0.401,0.559,0.869,0.692,1.365"/>
<path fill="none" stroke="#0000FF" stroke-miterlimit="10" d="M356.912,485.694c-1.167,1.214-2.368,2.395-3.601,3.541"/>
<path fill="none" stroke="#0000FF" stroke-miterlimit="10" d="M355.862,487.879c-0.89,1.254-1.649,2.6-2.262,4.01"/>
<path fill="none" stroke="#0000FF" stroke-miterlimit="10" d="M355.887,489.067c-0.537,1.274-1,2.579-1.385,3.907"/>
<path fill="none" stroke="#0000FF" stroke-miterlimit="10" d="M356.487,490.443c-0.415,0.983-0.617,2.055-0.588,3.122"/>
<path fill="none" stroke="#0000FF" stroke-miterlimit="10" d="M357.123,490.917c-0.216,1.261-0.292,2.545-0.225,3.822"/>
<path fill="none" stroke="#0000FF" stroke-miterlimit="10" d="M358.421,491.998c-0.084,0.934,0.036,1.886,0.347,2.771
	c0.076,0.216,0.206,0.461,0.434,0.48"/>
<path fill="none" stroke="#0000FF" stroke-miterlimit="10" d="M359.495,493.171c-0.064,0.928,0.34,1.876,1.054,2.473"/>
<path fill="none" stroke="#0000FF" stroke-miterlimit="10" d="M360.804,493.758c0.001,0.778,0.198,1.555,0.566,2.241"/>
<path fill="none" stroke="#0000FF" stroke-miterlimit="10" d="M362.114,494.254c0.213,0.721,0.594,1.392,1.105,1.944"/>
<path fill="none" stroke="#0000FF" stroke-miterlimit="10" d="M363.852,494.552c0.146,0.62,0.483,1.193,0.954,1.621"/>
<path fill="none" stroke="#0000FF" stroke-miterlimit="10" d="M349.058,490.515c-0.129-0.183-0.416-0.071-0.597,0.061
	c-1.127,0.829-2.058,1.921-2.698,3.164"/>
<path fill="none" stroke="#0000FF" stroke-miterlimit="10" d="M348.638,492.288c-0.143-0.149-0.393-0.144-0.573-0.043
	c-0.18,0.101-0.305,0.275-0.42,0.446c-0.733,1.088-1.322,2.273-1.747,3.514"/>
<path fill="none" stroke="#0000FF" stroke-miterlimit="10" d="M348.445,492.975c-0.217-0.055-0.389,0.18-0.485,0.382
	c-0.589,1.238-0.994,2.564-1.199,3.92"/>
<path fill="none" stroke="#0000FF" stroke-miterlimit="10" d="M348.046,495.714c-0.189,0.899-0.254,1.823-0.192,2.74"/>
<path fill="none" stroke="#0000FF" stroke-miterlimit="10" d="M348.831,496.4c-0.044,0.852,0.022,1.709,0.197,2.543"/>
<path fill="none" stroke="#0000FF" stroke-miterlimit="10" d="M350.095,495.811c-0.214,1.196-0.341,2.407-0.381,3.621"/>
<path fill="none" stroke="#0000FF" stroke-miterlimit="10" d="M350.756,495.809c-0.113,1.045-0.227,2.091-0.34,3.136"/>
<path fill="none" stroke="#0000FF" stroke-miterlimit="10" d="M352.212,499.435c0.068-1.534,0.137-3.068,0.205-4.602"/>
<path fill="none" stroke="#0000FF" stroke-miterlimit="10" d="M353.326,496.889c0.032,1.109,0.065,2.218,0.097,3.326"/>
<path fill="none" stroke="#0000FF" stroke-miterlimit="10" d="M354.7,497.401c0.072,0.867,0.145,1.733,0.217,2.6
	c0.01,0.126,0.104,0.298,0.21,0.23"/>
<path fill="none" stroke="#0000FF" stroke-miterlimit="10" d="M356.1,497.968c0.039,0.905,0.335,1.797,0.845,2.545"/>
<path fill="none" stroke="#0000FF" stroke-miterlimit="10" d="M357.715,498.553c0.05,0.749,0.255,1.487,0.597,2.156"/>
<path fill="none" stroke="#0000FF" stroke-miterlimit="10" d="M358.674,498.765c0.248,0.561,0.528,1.107,0.838,1.636"/>
<path fill="none" stroke="#0000FF" stroke-miterlimit="10" d="M359.878,498.747c-0.029,0.683,0.21,1.373,0.656,1.891"/>
<path fill="none" stroke="#0000FF" stroke-miterlimit="10" d="M362.133,498.846c-0.001,0.483,0.218,0.963,0.585,1.279"/>
<path fill="none" stroke="#0000FF" stroke-miterlimit="10" d="M357.846,386.855c-1.744,0.942-3.633,1.617-5.579,1.993
	c-0.325-0.938-0.467-1.938-0.416-2.929c-4.322,2.078-9.778-1.939-14.116,0.107c-0.008-0.799-0.875-1.339-1.672-1.403
	c-0.797-0.065-1.59,0.179-2.389,0.164c-2.228-0.041-3.953-2.008-6.115-2.547c-2.024-0.504-4.119,0.3-6.05,1.089
	c-1.022-2.65-4.367-4.128-7.015-3.099c0.005-1.173,0.011-2.346,0.016-3.519c1.123,0.017,2.249-0.139,3.326-0.459
	c-3.023-1.95-6.85-2.609-10.352-1.782c-0.795-1.454-0.157-3.366,1.06-4.491c1.217-1.125,2.873-1.629,4.486-2.009
	c0.952-0.225,1.968-0.415,2.893-0.096c0.925,0.319,1.68,1.334,1.37,2.262c0.31-1.494,1.065-2.893,2.145-3.971
	c0.889-0.888,2.015-1.566,3.251-1.795c2.177-0.403,4.552,0.76,5.57,2.726c1.018,1.967,0.595,4.577-0.992,6.121
	c0.895-1.244,3.247-0.794,3.586,0.701c0.338,1.495-1.66,2.908-2.938,2.062c0.958,0.112,1.916,0.224,2.874,0.336
	c-0.618,1.387,0.883,2.965,2.4,3.031c1.517,0.066,2.887-0.835,4.135-1.7c1.04,1.278,2.894,1.826,4.462,1.318
	c-0.267,1.122-0.534,2.245-0.802,3.367c3.485,0.336,6.909,1.288,10.067,2.799"/>
<path fill="none" stroke="#0000FF" stroke-miterlimit="10" d="M352.699,316.472c-2.06-1.726-4.188-3.465-6.713-4.384
	c-3.28-1.195-6.891-0.893-10.367-0.574c0.518-1.608-1.185-3.123-2.835-3.485c-1.65-0.363-3.432-0.114-4.992-0.765
	c-0.136-0.678-0.883-1.064-1.572-1.12c-0.689-0.056-1.379,0.116-2.069,0.081c-1.378-0.069-2.667-1.044-3.108-2.351
	c0.214-0.043,0.427-0.086,0.641-0.129c0.469-1.021,0.873-2.396,0.02-3.127c-0.226-0.194-0.521-0.312-0.699-0.551
	c-0.168-0.225-0.205-0.52-0.219-0.801c-0.189-3.819,3.287-7.419,7.111-7.363c0.549,0.008,1.143,0.103,1.521,0.501
	c0.316,0.332,0.417,0.809,0.489,1.262c0.433,2.741,0.253,5.578-0.523,8.242c1.093-0.026,2.186-0.052,3.278-0.078
	c0.273-0.006,0.56-0.009,0.798,0.124c0.553,0.311,0.482,1.198,0.022,1.636c-0.459,0.437-1.132,0.545-1.76,0.632
	c1.268,0.012,2.535,0.025,3.803,0.037"/>
<path fill="none" stroke="#0000FF" stroke-miterlimit="10" d="M1677.724,290.485c-1.417,2.428-3.953,4.171-6.727,4.624"/>
<path fill="none" stroke="#0000FF" stroke-miterlimit="10" d="M51.056,584.041c4.226-5.333,4.385-13.451,0.526-19.055
	c-3.859-5.604-11.357-8.353-17.973-6.761c-5.338,1.285-9.846,5.089-12.799,9.718c-2.952,4.63-4.477,10.038-5.32,15.464
	c-1.53,9.846-0.884,20.133,2.699,29.432c3.583,9.298,10.219,17.54,18.978,22.293c3.399,1.844,7.067,3.153,10.798,4.173
	c11.897,3.254,24.65,3.582,36.577,0.44c11.928-3.142,22.979-9.809,30.938-19.232"/>
<path fill="none" stroke="#0000FF" stroke-miterlimit="10" d="M48.784,561.303c-1.312-9.089-19.691-5.239-24.045-1.381
	c-6.73,5.964-11.136,14.486-12.111,23.425"/>
<path fill="none" stroke="#0000FF" stroke-miterlimit="10" d="M49.022,564.362c0.513-0.777,1.742-0.244,2.366,0.447
	c2.355,2.608,2.8,6.512,2.011,9.936c-0.789,3.424-2.644,6.492-4.472,9.493c5.735-4.04,13.064-5.961,19.952-4.631
	c6.888,1.33,13.162,6.088,15.752,12.607c2.59,6.519,1.111,14.613-4.023,19.393"/>
<path fill="none" stroke="#0000FF" stroke-miterlimit="10" d="M35.248,610.638c0.197,5.189,3.905,9.592,8.01,12.772
	c7.701,5.967,17.926,9.164,27.407,6.919"/>
<path fill="none" stroke="#0000FF" stroke-miterlimit="10" d="M85.693,596.356c2.878-2.144,4.9-5.276,6.261-8.598
	s2.109-6.856,2.85-10.368c0.815-3.86,0.815-3.86,1.63-7.72c0.04,4.174,0.895,4.489,0.935,8.663"/>
<path fill="none" stroke="#0000FF" stroke-miterlimit="10" d="M102.116,561.821c0.874,1.22,0.607,3.109-0.572,4.039
	c-1.039,0.819-2.501,0.85-3.797,0.585s-2.537-0.786-3.85-0.948c-1.595-0.197-3.201,0.144-4.772,0.484
	c-2.276,0.492-4.551,0.984-6.827,1.475c-0.325-1.968-0.65-3.936-0.975-5.904c0.438,0.644,1.278,0.917,2.056,0.875
	c2.366-0.129,3.846-2.52,5.76-3.916c2.147-1.567,5.061-1.887,7.615-1.149"/>
<path fill="none" stroke="#0000FF" stroke-miterlimit="10" d="M79.608,560.592c0.179,2.443,0.359,4.885,0.538,7.328
	c2.813-1.368,5.69-2.683,8.759-3.289s6.381-0.449,9.145,1.016"/>
<path fill="none" stroke="#0000FF" stroke-miterlimit="10" d="M79.614,565.048c-3.825-0.847-7.768-1.157-11.678-0.918
	c-0.352-1.409,0.768-2.72,1.799-3.742c3.742-3.708,7.483-7.417,11.225-11.125c0.336-0.333,0.69-0.677,1.14-0.822
	c0.428-0.138,0.892-0.078,1.338-0.016c8.349,1.148,17.035,2.422,23.987,7.186"/>
<path fill="none" stroke="#0000FF" stroke-miterlimit="10" d="M83.151,549.753c2.079,0.673,4.217,1.141,6.352,1.607
	c6.234,1.363,12.469,2.725,18.703,4.088c5.034,15.194,5.73,31.453,5.803,47.459c0.026,5.827-0.022,11.687,0.917,17.438"/>
<path fill="none" stroke="#0000FF" stroke-miterlimit="10" d="M87.496,555.493c-1.221-0.422-2.542,0.13-3.714,0.671
	c-1.428,0.659-2.944,1.398-3.726,2.763c1.387-1.194,3.145-1.951,4.966-2.136c0.133-0.013,0.278-0.021,0.388,0.054
	c0.094,0.064,0.143,0.175,0.187,0.28c0.343,0.815,0.686,1.63,1.028,2.445"/>
<path fill="none" stroke="#0000FF" stroke-miterlimit="10" d="M46.386,595.007c0.021-0.366-0.431-0.554-0.795-0.594
	c-1.547-0.172-3.092,0.335-4.505,0.988c-0.738,0.341-1.464,0.727-2.077,1.261c-1.209,1.052-1.908,2.709-1.671,4.294
	s1.469,3.012,3.037,3.343c1.15,0.242,2.352-0.086,3.408-0.601c1.246-0.608,2.389-1.511,3.051-2.729
	c0.662-1.219,0.778-2.779,0.085-3.981c-0.191-0.332-0.45-0.64-0.794-0.807c-0.316-0.153-0.677-0.178-1.028-0.188
	c-1.427-0.042-2.9,0.116-4.161,0.786c-1.261,0.67-2.275,1.928-2.352,3.353c-0.034,0.625,0.112,1.257,0.399,1.813"/>
<path fill="none" stroke="#0000FF" stroke-miterlimit="10" d="M47.853,595.203c-0.015,0.076-0.136-0.037-0.075-0.084
	c0.061-0.047,0.149,0,0.208,0.049c0.851,0.701,1.151,1.913,0.989,3.003c-0.163,1.09-0.722,2.08-1.346,2.989
	c-0.419,0.61-0.883,1.207-1.491,1.63c-0.489,0.34-1.054,0.556-1.628,0.713c-0.762,0.209-1.568,0.322-2.343,0.166
	c-0.775-0.156-1.516-0.611-1.878-1.314"/>
<path fill="none" stroke="#0000FF" stroke-miterlimit="10" d="M45.645,603.231c3.227,3.84,8.239,5.634,13.089,6.914
	c3.448,0.91,6.943,1.645,10.466,2.202c-6.792,0.593-13.736-0.647-19.904-3.554"/>
<path fill="none" stroke="#0000FF" stroke-miterlimit="10" d="M54.987,600.505c0.075,0.072,0.144-0.131,0.045-0.162
	c-0.099-0.031-0.191,0.059-0.256,0.14c-3.317,4.127-6.845,8.084-10.567,11.85"/>
<path fill="none" stroke="#0000FF" stroke-miterlimit="10" d="M54.709,603.238c-0.135-0.168-0.4-0.013-0.55,0.143
	c-2.35,2.447-4.699,4.894-7.049,7.34"/>
<path fill="none" stroke="#0000FF" stroke-miterlimit="10" d="M63.877,601.821c2.38,3.529,4.759,7.058,7.139,10.588
	c-5.063,1.997-10.214,3.772-15.432,5.318"/>
<path fill="none" stroke="#0000FF" stroke-miterlimit="10" d="M54.128,618.397c2.33-0.145,4.547-1.001,6.748-1.781
	c4.153-1.471,8.39-2.703,12.685-3.686c-2.41-1.27-4.558-3.034-6.273-5.15c-1.19-1.467-2.228-3.151-3.87-4.085
	c1.217,2.41,2.817,4.626,4.72,6.541"/>
<path fill="none" stroke="#0000FF" stroke-miterlimit="10" d="M109.325,562.245c1.387,19.834,3.608,39.61,6.654,59.259"/>
<path fill="none" stroke="#0000FF" stroke-miterlimit="10" d="M112.448,574.474c1.262,14.789,4.03,37.898,2.847,48.73"/>
<path fill="none" stroke="#0000FF" stroke-miterlimit="10" d="M16.877,604.365c2.286,6.967,4.892,13.904,8.875,20.06
	s9.464,11.537,16.245,14.329c7.713,3.175,16.413,2.781,24.666,1.571"/>
<path fill="none" stroke="#0000FF" stroke-miterlimit="10" d="M54.434,582.635c5.902-3.772,13.577-5.047,20.085-2.457
	s11.384,9.365,10.88,16.352"/>
</svg>
