<?xml version="1.0" encoding="utf-8"?>
<!-- Generator: Adobe Illustrator 17.0.0, SVG Export Plug-In . SVG Version: 6.00 Build 0)  -->
<!DOCTYPE svg PUBLIC "-//W3C//DTD SVG 1.1//EN" "http://www.w3.org/Graphics/SVG/1.1/DTD/svg11.dtd">
<svg version="1.1" id="Layer_1" xmlns="http://www.w3.org/2000/svg" xmlns:xlink="http://www.w3.org/1999/xlink" x="0px" y="0px"
	 width="412px" height="660px" viewBox="0 0 412 660" enable-background="new 0 0 412 660" xml:space="preserve">
<g>
	<path fill="none" stroke="#FF0000" stroke-miterlimit="10" d="M361.183,89.414c-4.898-1.584-9.474-4.008-14.16-6.138
		c-24.858-11.3-52.558-14.276-78.97-21.204c-0.62-0.163-1.334-0.413-1.527-1.025 M343.912,86.51
		c-3.86-0.552-7.62-1.628-11.375-2.673c-22.145-6.165-44.552-11.387-67.14-15.648c-4.455-0.84-8.946-1.652-13.18-3.27"/>
	<path fill="none" stroke="#0000FF" stroke-miterlimit="10" d="M369.333,71.852c4.532-0.112,8.98,0.796,12.707,3.658
		c5.74,4.41,8.417,12.978,8.024,20.036c-0.233,4.178-2.008,8.093-3.755,11.896c-1.515,3.296-3.028,6.59-4.54,9.887
		c-0.817,1.776-1.654,3.695-1.31,5.62c0.57,3.22,4.244,5.374,4.343,8.642c0.09,3.01-2.92,5.17-5.784,6.103
		c-8.703,2.833-18.742,0.722-26.503-3.776c-9.56-5.542-13.827-14.186-14.663-25.038c-0.6-7.787,0.266-15.897,4.005-22.754
		c3.585-6.575,9.82-10.677,16.947-12.577c3.352-0.892,6.964-1.61,10.526-1.698L369.333,71.852z"/>
	<path fill="none" stroke="#0000FF" stroke-miterlimit="10" d="M382.09,120.67c-0.823,0.373-1.113,1.385-1.75,2.023
		c-1.254,1.255-3.493,0.793-4.914,1.855c2.35,0.3,4.8-0.254,6.795-1.534 M388.587,84.53c1.906,9.92-0.3,20.566-5.987,28.914
		 M366.092,80.81c0.454-0.293,1.046-0.204,1.574-0.09c1.82,0.39,3.632,0.95,5.19,1.963c0.998,0.65,1.875,1.472,2.644,2.38
		c2.616,3.087,3.968,7.504,2.54,11.29c-0.382,1.012-0.943,1.946-1.51,2.868c-0.654,1.066-1.338,2.145-2.316,2.923
		c-1.338,1.064-3.076,1.45-4.748,1.804c-1.03,0.22-2.098,0.437-3.126,0.21c-0.542-0.12-1.05-0.36-1.55-0.597
		c-1.975-0.938-3.963-1.9-5.668-3.27s-3.126-3.198-3.605-5.33c-0.174-0.775-0.22-1.573-0.215-2.367
		c0.023-2.78,0.742-5.616,2.41-7.843c1.666-2.226,4.357-3.764,7.136-3.67c0.834,0.028,1.657,0.197,2.462,0.412
		c3.274,0.877,6.37,2.59,8.592,5.15c2.222,2.56,3.502,6,3.15,9.37c-0.07,0.675-0.207,1.35-0.49,1.967
		c-0.593,1.282-1.772,2.205-2.46,3.44"/>
	<path fill="none" stroke="#0000FF" stroke-miterlimit="10" d="M361.83,86.282c0.103-0.032,0.213,0.055,0.247,0.157
		s0.015,0.214-0.006,0.32l-0.946,4.964c-0.092,0.48-0.183,0.96-0.3,1.437 M363.628,90.348c-1.436-0.6-2.932-1.06-4.458-1.368
		 M354.455,93.543c-0.624-0.43-1.41-0.534-2.164-0.6c-1.118-0.097-2.242-0.133-3.365-0.106c-0.21,0.005-0.43,0.014-0.62,0.106
		s-0.343,0.29-0.316,0.5c0.015,0.124,0.088,0.23,0.16,0.33c0.667,0.95,1.362,1.925,2.35,2.53c0.095,0.058,0.203,0.114,0.31,0.09
		c0.12-0.03,0.19-0.145,0.263-0.243c0.425-0.576,1.177-0.775,1.828-1.072c0.375-0.17,0.73-0.384,1.056-0.634
		c0.04-0.032,0.084-0.066,0.103-0.114c0.053-0.134-0.094-0.26-0.224-0.325c-1.297-0.653-2.81-0.665-4.263-0.662 M351.43,98.826
		c-0.177,1.085-0.508,2.276-0.174,3.345c0.46,1.47,1.463,2.738,2.394,3.934l-1.036,0.59c-0.07,0.04-0.14,0.08-0.22,0.087
		c-0.15,0.016-0.283-0.086-0.4-0.182l-3.088-2.566c0.427-0.053,0.864-0.11,1.25-0.3s0.72-0.546,0.763-0.975"/>
	<path fill="none" stroke="#0000FF" stroke-miterlimit="10" d="M351.94,100.662c0.18,0.252,0.228,0.573,0.29,0.877
		c0.33,1.657,0.477,3.195,1.76,4.298 M348.458,79.705c0.513,0.374,0.793,0.985,1.003,1.584c0.975,2.78,0.883,5.88-0.02,8.683
		c-0.903,2.804-2.586,5.322-4.656,7.417c-0.748,0.757-1.696,1.513-2.75,1.378c-0.645-0.083-1.21-0.498-1.61-1.01
		c-1.227-1.57-1.008-3.825-0.433-5.734c0.915-3.037,2.55-5.797,4.17-8.523c0.56-0.937,1.13-1.89,1.94-2.622
		c0.622-0.56,1.656-0.945,2.24-0.346c0.224,0.23,0.32,0.554,0.396,0.867c1.055,4.287,0.193,8.85-1.442,12.952
		c-0.842,2.11-2.093,4.328-4.25,5.045 M360.145,105.156c3.422,1.33,6.68,3.084,9.67,5.212 M360.587,106.822
		c0.565,0.24,1.02,0.68,1.448,1.118c2.012,2.06,3.794,4.348,5.302,6.803 M343.485,102.076c-5.94-1.203-6.95-1.79-12.987-1.242
		 M341.5,104.26c-3.366-0.52-3.8-1.174-9.376-0.034 M364.585,119.647c-3.01-2.906-6.66-5.146-10.613-6.514
		c-0.284-0.098-0.61-0.19-0.873-0.045c-0.204,0.11-0.316,0.336-0.397,0.553c-0.378,1.006-0.376,2.108-0.37,3.18
		c0.01,1.273,0.017,2.544,0.025,3.816c0.002,0.378,0.013,0.783,0.232,1.09c0.17,0.24,0.44,0.383,0.7,0.518l7.122,3.694
		 M357.606,118.913c-1.983-1.333-4.12-2.436-6.358-3.28"/>
	<path fill="none" stroke="#0000FF" stroke-miterlimit="10" d="M355.715,120.488c0.186-0.063,0.035-0.343-0.13-0.45
		c-1.592-1.043-2.6-1.18-4.336-1.96 M337.968,110.983c-1.823-1.137-3.82-1.994-5.898-2.534c-0.742-0.194-1.663-0.294-2.155,0.295
		c-0.298,0.357-0.333,0.858-0.35,1.323c-0.09,2.323-0.107,4.65-0.05,6.973c0.005,0.21,0.014,0.43,0.126,0.605
		c0.126,0.198,0.355,0.3,0.57,0.393l4.142,1.77c1.84,0.787,5.223,2.21,7.148,1.55"/>
	<path fill="none" stroke="#0000FF" stroke-miterlimit="10" d="M336.075,114.314c0.024-0.22-0.208-0.373-0.408-0.47
		c-1.633-0.785-3.316-1.467-5.036-2.04 M334.85,116.4c-0.06-0.282-0.346-0.445-0.604-0.57l-4.744-2.316 M391.48,72.246
		c0.97,2.956,0.912,6.188,0.185,9.213s-1.893,5.685-3.5,8.35c4.078-4.73,5.972-11.27,5.052-17.445
		c-0.057-0.382-0.128-0.772-0.33-1.1c-0.38-0.62-1.14-0.887-1.86-0.99c-2.048-0.292-4.15,0.426-5.837,1.627
		c-1.686,1.2-3,2.853-4.14,4.58"/>
	<path fill="none" stroke="#0000FF" stroke-miterlimit="10" d="M384.795,78.33c0.3-1.346,0.797-2.65,1.47-3.852
		c0.532-0.948,1.217-1.873,2.204-2.328c0.35-0.162,0.742-0.26,1.126-0.21c0.668,0.09,1.204,0.614,1.54,1.2
		c0.465,0.812,0.632,1.76,0.758,2.687c0.342,2.522,0.438,5.077,0.286,7.617 M357.722,73.67c-0.772-1.47-1.71-2.856-2.79-4.12
		c-0.39-0.456-0.893-0.936-1.49-0.875c-0.438,0.045-0.787,0.37-1.1,0.68c-0.93,0.916-1.878,1.86-2.415,3.05
		c-0.846,1.87-0.576,4.137-1.604,5.914"/>
	<path fill="none" stroke="#0000FF" stroke-miterlimit="10" d="M354.992,74.348c-0.463-1.005-1.068-1.944-1.79-2.78
		c-0.164-0.19-0.384-0.39-0.628-0.34c-0.163,0.036-0.28,0.176-0.383,0.308c-1.2,1.534-2.453,3.196-2.586,5.14 M350.424,70.74
		c-2.31,2.365-3.54,5.745-3.29,9.042 M388.478,121.142c-0.606-1.846-1.567-3.566-2.09-5.438c-0.18-0.655-0.294-1.41,0.087-1.972
		c0.552-0.818,1.77-0.755,2.723-0.497c4.604,1.246,8.432,5.036,9.723,9.628c0.21,0.746,0.326,1.64-0.193,2.216
		c-0.412,0.456-1.116,0.55-1.71,0.39s-1.106-0.53-1.604-0.894l-3.948-2.88c-1.232-0.898-2.77-1.84-4.18-1.265
		c0.953,1.66,1.827,3.367,2.616,5.112c0.3,0.66,0.592,1.383,0.436,2.09c-0.384,1.74-3.7,2.53-5.005,1.66
		c0.957-1.143,2.452-1.275,3.18-2.786c0.798-1.662,0.522-3.674-0.032-5.364L388.478,121.142z"/>
	<path fill="none" stroke="#0000FF" stroke-miterlimit="10" d="M392.464,115.298c-0.248-0.376-0.698-0.554-1.12-0.71
		c-0.99-0.367-2.002-0.737-3.055-0.74c-1.054-0.003-2.173,0.438-2.694,1.353c-0.618,1.086-0.242,2.443,0.148,3.63l1.25,3.804
		c0.336,1.023,0.675,2.06,0.743,3.133c0.068,1.074-0.162,2.21-0.854,3.033s-1.905,1.254-2.898,0.838 M369.653,139.002
		c-7.167-0.063-14.31-2.017-20.51-5.61c-1.536-0.89-3.024-1.887-4.29-3.132c-1.26-1.24-2.277-2.706-3.186-4.223
		c-2.083-3.472-3.647-7.288-4.283-11.287s-0.316-8.187,1.217-11.934"/>
	<path fill="none" stroke="#0000FF" stroke-miterlimit="10" d="M388.51,141.37c-2.418,0.718-4.888,1.256-7.384,1.608
		c0.64-3.19,1.05-6.424,1.223-9.672c-1.688,0.436-3.374,0.87-5.06,1.307c-0.272,2.483-0.418,4.98-0.438,7.478l-3.786-0.7
		c0.75-4.516,1.007-9.112,0.767-13.682c-2.87,0.437-5.817,0.375-8.668-0.182c-0.45,4.238-0.62,8.505-0.513,12.765
		c-2.27-0.412-4.582-0.6-6.89-0.557c0.158-1.996,0.314-3.993,0.47-5.99c-2.787-0.09-5.566-0.44-8.29-1.04
		c0.24,2.566,0.347,5.143,0.325,7.72l-3.09-0.005l1.77-15.86l-8.063,0.19c1.098,3.814,1.65,7.784,1.635,11.753
		c-1.83,0.06-3.66,0.12-5.487,0.182l-0.655,5.204c-1.534-0.537-3.117-0.932-4.723-1.177c0.57-6.648,1.137-13.294,1.706-19.94
		c-3.097-0.91-6.356-1.27-9.578-1.058c0.915,6.71,0.69,13.577-0.662,20.214c-0.06,0.29-0.136,0.605-0.373,0.78
		c-0.212,0.16-0.497,0.164-0.762,0.162l-2.84-0.018 M370.885,130.928c-0.313,0.994-0.53,2.018-0.645,3.053 M368.457,132.337
		c-0.296,0.92-0.505,1.865-0.623,2.823"/>
	<path fill="none" stroke="#0000FF" stroke-miterlimit="10" d="M369.78,137c0.018,0.048,0.082-0.04,0.036-0.06
		s-0.093,0.024-0.12,0.066c-0.503,0.75-0.196,1.8-0.582,2.615 M367.942,137.744l-0.414,2.373 M380.354,135.745
		c0.028,0.18,0.006,0.365-0.015,0.546c-0.24,1.98-0.563,3.948-0.97,5.898 M378.904,136.426c-0.327,2.084-0.57,4.18-0.726,6.285
		 M356.305,135.078c-0.165,1.055-0.257,2.122-0.277,3.19 M354.742,134.57c-0.265,1.218-0.442,2.455-0.527,3.698 M352.49,134.193
		c0.082-0.053,0.145,0.092,0.136,0.19c-0.126,1.367-0.25,2.734-0.377,4.102 M355.903,139.45c-0.005,0.623-0.058,1.245-0.16,1.86
		 M354.118,139.376c-0.008,0.687-0.138,1.372-0.382,2.015 M352.243,139.593c0.11,0.568,0.086,1.16-0.068,1.718 M346.63,126.953
		c-0.27,2.036-0.445,4.085-0.523,6.137 M344.236,126.356c-0.188,2.388-0.135,4.795,0.16,7.172 M346.045,135.014
		c-0.12,1.984-0.343,3.962-0.668,5.923 M344.09,135.31c-0.145,1.787-0.396,3.567-0.752,5.325 M341.3,137.67
		c0.114,1.118,0.045,2.252-0.202,3.347 M339.23,138.41c-0.116,1.085-0.35,2.155-0.7,3.187 M330.327,122.468
		c0,0.527-0.002,1.054-0.004,1.58c-0.002,0.875-0.005,1.76-0.218,2.607 M328.177,122.362c0.046,1.43,0.038,2.862-0.025,4.292
		 M326.508,122.284c0.07,1.504,0.06,3.013-0.036,4.515 M330.13,129.248c-0.285,1.488-0.475,2.993-0.57,4.505 M327.843,129.162
		c0.07,1.462,0.043,2.928-0.075,4.386c-0.01,0.124-0.06,0.285-0.185,0.28 M326.782,129.54c0.068,1.642-0.1,3.295-0.493,4.89
		 M329.492,136.13l-0.465,4.057 M327.706,136.34c-0.224,1.456-0.45,2.91-0.673,4.365 M325.758,136.498
		c-0.3,1.438-0.513,2.894-0.643,4.357 M344.872,85.465c-0.42,1.012-0.85,2.018-1.292,3.02 M345.64,87.613l-2.68-0.6 M379.667,74.757
		c-4.502-3.412-10.647-4.542-16.068-2.955"/>
</g>
<g>
	<path fill="none" stroke="#0000FF" stroke-miterlimit="10" d="M334.773,230.826c-1.513-2.1-4.664-2.563-7.003-1.457
		c-2.339,1.106-3.898,3.46-4.63,5.942c-0.732,2.482-0.74,5.112-0.71,7.7c0.075,6.696,0.367,13.388,0.66,20.08
		c7.285-5.262,12.74-13.01,15.24-21.64c0.677-2.334,1.144-4.797,0.704-7.186c-0.44-2.39-1.94-4.698-4.215-5.545
		c-3.538-1.315-7.454,1.318-9.338,4.588c-2.548,4.422-2.655,9.785-2.695,14.888l-0.103,13.183c-0.003,0.343,0.007,0.72,0.233,0.98
		c0.54,0.617,1.517-0.036,2.042-0.665l10.257-12.288c2.28-2.73,4.61-5.553,5.704-8.94s0.666-7.514-1.98-9.894"/>
	<path fill="none" stroke="#0000FF" stroke-miterlimit="10" d="M331.823,234.57c-0.456-1.043-1.514-0.642-2.24-0.057
		c-1.188,0.956-2.372,2.22-2.867,4.12c-0.22,0.85-0.27,1.895,0.105,2.61c0.214,0.406,0.534,0.647,0.852,0.834
		c1.572,0.923,3.368,0.808,4.94-0.114c1.572-0.922,2.923-2.612,3.943-4.652c0.237-0.474,0.466-1.002,0.487-1.598
		c0.03-0.81-0.347-1.557-0.818-1.937c-0.47-0.38-1.02-0.456-1.553-0.47c-2.63-0.067-5.27,1.27-7.35,3.722
		c-0.388,0.456-0.785,1.036-0.81,1.78c-0.037,1.18,0.842,1.894,1.597,2.163c1.82,0.65,3.77,0.453,5.518-0.554
		c0.688-0.396,1.372-0.95,1.793-1.866c0.42-0.917,0.498-2.274,0.01-3.11 M340.32,249.968c-0.58,0.95-1.194,2.05-1.128,3.308
		c0.084,1.603,1.33,2.687,2.446,2.53s3.925-3.37,3.414-6.752 M349.797,248.762c-0.565,2.035-1.24,4.04-2.025,6
		c0.144-1.174,0.407-2.334,0.785-3.456c0.296-0.88,0.687-1.772,1.4-2.367c0.713-0.596,1.826-0.8,2.57-0.245
		c0.225,0.167,0.41,0.404,0.456,0.68c0.1,0.576-0.395,1.068-0.844,1.444c-0.56,0.468-1.122,0.937-1.682,1.407
		c-0.335,0.28-0.69,0.596-0.772,1.025c-0.117,0.62,0.398,1.19,0.956,1.486c0.558,0.295,1.2,0.438,1.703,0.82 M346.423,245.75
		c0.37,0.856,0.528,1.803,0.46,2.734 M336.91,260.132c-0.666,1.97-1.528,3.876-2.57,5.678 M339.81,259.198
		c-0.845,2.487-1.806,4.935-2.877,7.334 M331.378,263.303c3.117,0.058,6.237-0.018,9.347-0.228"/>
	<path fill="none" stroke="#0000FF" stroke-miterlimit="10" d="M345.336,261.9c-1.58-0.397-3.326-0.068-4.652,0.878
		c-0.446,0.318-0.857,0.72-1.044,1.234c-0.187,0.514-0.1,1.156,0.32,1.507c0.278,0.232,0.653,0.308,1.012,0.364
		c1.274,0.2,2.572,0.248,3.858,0.144 M337.982,264.376l5.48-0.62 M347.23,262.092l-1.75,4.8c0.285-1.263,0.718-2.494,1.29-3.657
		c0.29-0.59,0.65-1.2,1.242-1.486c0.592-0.286,1.462-0.078,1.64,0.556c0.183,0.66-0.425,1.25-0.97,1.665l-2.138,1.634
		c-0.207,0.158-0.438,0.38-0.372,0.632c0.055,0.21,0.29,0.31,0.496,0.372c0.952,0.288,1.955,0.403,2.948,0.338 M354.663,262.816
		c0.224-0.182,0.073-0.583-0.195-0.69c-0.268-0.107-0.57-0.02-0.844,0.07c-1.003,0.325-2.05,0.68-2.773,1.448
		c-0.722,0.768-0.98,2.084-0.267,2.862c0.446,0.488,1.147,0.65,1.806,0.696c1.268,0.09,2.56-0.15,3.71-0.695 M348.686,264.593
		c1.87-0.433,3.797-0.634,5.717-0.594 M362.49,257.484c-0.272-0.01-0.442,0.284-0.55,0.535c-1.017,2.39-2.036,4.778-3.054,7.168
		 M358.247,267.654c0.072,0.12-0.24,0.115-0.166-0.002"/>
</g>
<g>
	<path fill="none" stroke="#0000FF" stroke-miterlimit="10" d="M255.02,403.854l1.777,7.918 M253.785,401.09
		c0.77,1.338,1.807,2.524,3.03,3.467c1.386,1.067,2.99,1.814,4.444,2.785c0.1,0.067,0.21,0.156,0.207,0.278
		c-0.003,0.108-0.098,0.188-0.185,0.253c-1.893,1.417-3.86,2.735-5.89,3.945c-0.905,0.54-2.113,1.04-2.93,0.377 M262.72,411.246
		c0.377-0.42,0.453-1.023,0.52-1.584c0.285-2.457,0.462-7.317,1.222-7.317c1.41,2.302,2.856,4.584,4.336,6.843"/>
	<path fill="none" stroke="#0000FF" stroke-miterlimit="10" d="M262.572,408.614c-0.098-0.035-0.213-0.016-0.294,0.048
		c0.435,0.08,0.878-0.056,1.298-0.192c1.907-0.618,3.793-1.298,5.68-1.978 M274.908,400.698c0.704,2.395,1.504,4.762,2.396,7.094
		c-0.74-2.682-1.48-5.363-2.222-8.045c1.262-0.275,2.58-0.55,3.83-0.227c0.267,0.07,0.536,0.17,0.73,0.364
		c0.5,0.498,0.308,1.33,0.084,2l-0.623,1.853c-0.31,0.926-0.675,1.922-1.494,2.454c1.592,0.52,3.326,0.596,4.96,0.22"/>
	<path fill="none" stroke="#0000FF" stroke-miterlimit="10" d="M286.757,400.03c-0.006-0.54-0.508-0.984-1.043-1.075
		c-0.535-0.09-1.08,0.1-1.556,0.357c-1.544,0.838-2.627,2.473-2.796,4.222c-0.055,0.567-0.012,1.168,0.28,1.658
		c0.482,0.815,1.527,1.125,2.475,1.1c1.582-0.04,3.125-0.858,4.047-2.143"/>
	<path fill="none" stroke="#0000FF" stroke-miterlimit="10" d="M280.514,405.315l-0.208-0.018c1.478-1.15,3.01-2.33,4.823-2.8
		 M288.845,399.247l0.285,1.27c0.178,0.79,0.355,1.58,0.568,2.36c0.307,1.128,0.685,2.237,1.132,3.317
		c0.084-0.477-0.105-0.953-0.27-1.408c-0.71-1.953-1.037-4.02-1.36-6.073c-0.02-0.128-0.036-0.272,0.04-0.377
		c0.068-0.09,0.186-0.125,0.297-0.15c0.447-0.104,0.905-0.157,1.364-0.172c0.64-0.02,1.314,0.04,1.85,0.39
		c0.534,0.35,0.877,1.062,0.632,1.653c-0.126,0.305-0.382,0.535-0.64,0.74c-0.895,0.713-1.92,1.265-3.008,1.62
		c-0.175-0.178-0.22-0.47-0.103-0.692"/>
	<path fill="none" stroke="#0000FF" stroke-miterlimit="10" d="M296.296,398.53c-0.36-0.084-0.73,0.077-1.05,0.263
		c-0.98,0.57-1.804,1.41-2.35,2.407c-0.303,0.555-0.525,1.202-0.367,1.815c0.21,0.818,1.066,1.34,1.907,1.424
		c1.28,0.126,2.55-0.596,3.297-1.644c0.297-0.418,0.527-0.9,0.567-1.41c0.067-0.863-0.46-1.728-1.24-2.105s-1.757-0.27-2.464,0.23
		s-1.132,1.356-1.15,2.22c-0.005,0.166,0.01,0.342,0.11,0.472c0.1,0.13,0.315,0.183,0.43,0.066 M299.47,398.486
		c-0.112,2.102,0.1,4.22,0.63,6.258c0.085-2.24,0.108-4.48,0.07-6.72c0.036,1.25,0.007,2.5-0.088,3.746
		c-0.214-1.4-0.275-2.824-0.183-4.238c0.01-0.192,0.03-0.393,0.138-0.552c0.112-0.165,0.303-0.256,0.487-0.332
		c0.98-0.4,2.06-0.558,3.116-0.454c-0.133,1.415-0.715,2.785-1.64,3.863c-0.723,0.84-1.71,1.657-1.68,2.764
		c2.13,0.077,4.28-0.708,5.86-2.14 M305.307,396.287l-0.353,0.08c2.707-0.2,5.415-0.4,8.122-0.602 M308.728,394.6
		c-0.132,2.956-0.22,5.915-0.267,8.874 M314.81,399.44c1.372-2.526,1.873-5.467,2.178-8.294c-0.393,1.322-0.77,2.65-1.122,3.984
		C315.526,396.413,315.436,398.286,314.81,399.44z M314.796,401.333c-0.03-0.022,0.043-0.05,0.052-0.015
		c0.01,0.036-0.028,0.065-0.06,0.085c-0.442,0.273-0.81,0.667-1.05,1.128c-0.076,0.145-0.132,0.342-0.013,0.453
		c0.078,0.074,0.2,0.073,0.306,0.058c0.69-0.09,1.314-0.582,1.565-1.232c-0.38-0.184-0.863-0.14-1.203,0.112"/>
	<path fill="none" stroke="#0000FF" stroke-miterlimit="10" d="M238.86,516.597c6.22-0.68,12.214-2.637,18.295-4.102
		c10.206-2.46,20.686-3.542,31.13-4.618l40.81-4.205c0.753-0.078,1.593-0.202,2.054-0.804c0.38-0.498,0.383-1.178,0.37-1.805
		c-0.393-17.983-0.784-35.966-1.176-53.95c-0.444-20.394-0.894-40.857-3.967-61.024c-0.134-0.878-0.338-1.86-1.086-2.338
		c-0.59-0.377-1.345-0.32-2.042-0.25c-13.44,1.355-26.834,3.16-40.154,5.405c-6.66,1.123-13.3,2.357-19.92,3.702
		c-4.835,0.98-12.677,3.63-17.66,4.32c-2.67,0.37-1.888,9.842-1.827,13.65c0.11,6.802,0.2,13.603,0.235,20.404
		c0.07,13.592-0.08,27.19-0.727,40.767c-0.357,7.504-0.866,15-1.573,22.48c-0.196,2.073-1.64,22.244-2.76,22.367L238.86,516.597z
		 M210.34,407.283c0.67,0.148,14.553,3.02,20.974-4.45c6.557-7.627,4.28-24.813-10.804-35.59 M230.68,369.15
		c0.72,1.502,8.682,17.585,19.7,17.796c11.293,0.217,25.265-16.244,24.787-41.946 M277.695,349.357c0,0-6.388,38.86,13.337,34.094
		s36.786-25.104,36.786-25.104"/>
	<path fill="none" stroke="#0000FF" stroke-miterlimit="10" d="M280.668,359.03c0.01-0.46-0.677-0.642-1.044-0.367
		s-0.476,0.77-0.56,1.222c-0.764,4.162-1.53,8.42-0.865,12.6c0.664,4.18,3.05,8.335,6.956,9.96c3.005,1.25,6.438,0.85,9.59,0.04
		c8.91-2.29,16.956-7.797,22.315-15.275 M331.095,362.795c-0.243,1.594-1.654,11.912,5.084,19.066
		c7.367,7.824,21.632,8.844,33.047,0.637 M369.48,388.5c-3.104-1.97-7.18-0.295-10.314,1.625
		c-10.047,6.152-19.005,15.53-20.83,27.168c-0.483,3.078-0.418,6.37,1.03,9.128c1.447,2.76,4.542,4.812,7.615,4.3 M213.44,416.717
		c0.315-0.896,1.63-0.71,2.504-0.34c6.584,2.77,13.24,6.15,17.554,11.842s5.57,14.278,1.117,19.863c-1.35,1.692-3.11,3-4.893,4.228
		c-6.277,4.324-13.074,7.892-20.198,10.603c-4.204,1.6-9.74,2.572-12.538-0.95 M359.804,446.01c-1.434-1.112-3.522-0.593-5.15,0.206
		c-7.843,3.848-12.148,12.602-13.742,21.19c-0.376,2.024-0.63,4.122-0.17,6.128c0.895,3.89,4.393,6.758,8.18,8.023
		s7.868,1.206,11.86,1.133l3.365,0.224 M368.103,501.802c-3.39-3.175-6.9-6.348-11.11-8.307c-4.21-1.96-9.295-2.56-13.464-0.51
		c-5.422,2.664-8.047,9.333-7.32,15.33c0.725,5.997,4.213,11.335,8.355,15.732c3.82,4.057,8.24,7.495,12.642,10.916
		 M199.497,519.602c7.565-1.744,15.58-1.497,23.022,0.71c2.327,0.69,4.833,1.786,5.774,4.024c1.393,3.317-1.382,6.78-3.78,9.46
		c-3.986,4.453-7.492,9.334-10.44,14.532c-1.866,3.287-3.704,6.903-7.045,8.67c8.483-8.994,18.116-16.902,28.59-23.47"/>
	<path fill="none" stroke="#0000FF" stroke-miterlimit="10" d="M346.372,425.708c-1.307-0.24-1.955-1.707-2.278-2.997
		c-2.317-9.25,1.088-19.29,7.22-26.594c6.134-7.304,14.692-12.188,23.532-15.77 M339.366,350.04l-2.698-0.765
		c-4.74,11.288-2.67,25.14,5.166,34.547 M254.104,458.47c11.578-1.563,23.258-2.366,34.94-2.402
		c-0.502-11.184-0.422-22.395,0.238-33.57c-6.51,0.742-28.46-0.39-32.84,4.128C252.482,430.706,254.552,452.443,254.104,458.47
		L254.104,458.47z M282.66,428.72c-10.627,8.12-20.597,17.1-29.78,26.825 M263.37,431.192c7.096,8.198,15.38,15.366,24.512,21.21
		 M296.108,453.593c0.374-0.815,1.453-0.952,2.35-0.974l29.586-0.76c-0.562-10.715-4.01-20.988-2.71-31.64
		c-7.91,1.37-28.96,1.372-29.942,4.224C293.667,429.453,299.654,445.87,296.108,453.593L296.108,453.593z"/>
	<path fill="none" stroke="#0000FF" stroke-miterlimit="10" d="M327.193,417.648l-13.76,15.37
		c-3.706,4.135-7.424,8.282-11.62,11.917c-3.808,3.297-8.067,6.236-10.85,10.434"/>
	<path fill="none" stroke="#0000FF" stroke-miterlimit="10" d="M294.708,428.198c1.102-0.348,2.177,0.538,3,1.35
		c10.577,10.45,21.813,20.235,33.62,29.276 M253.252,469.45c21.61-6.073,44.46-7.69,66.71-4.72 M253.955,474.54
		c15.715-4.654,32.002-7.375,48.377-8.078 M253.41,481.083c0.92-1.327,2.525-1.97,4.045-2.51c8.05-2.873,16.377-4.966,24.827-6.243
		c6.245-0.944,12.742-1.424,18.778,0.432 M256.7,485.978c13.01-4.148,26.743-6.017,40.39-5.497 M267.556,498.336
		c0.077-0.323-0.438-0.414-0.75-0.3c-1.224,0.44-2.18,1.405-3.026,2.394c-0.822,0.96-1.62,2.277-1.055,3.407
		c0.336,0.67,1.068,1.044,1.788,1.25c1.83,0.528,3.86,0.235,5.517-0.7s2.937-2.492,3.635-4.263c0.11-0.28,0.207-0.566,0.23-0.865
		c0.09-1.138-0.942-2.114-2.05-2.382c-1.27-0.306-2.688,0.128-3.57,1.09c-0.88,0.963-1.186,2.415-0.77,3.652 M275.483,497.535
		l6.573-0.022c0.365,0,0.87,0.148,0.808,0.508c-3.114,1.916-6.108,4.026-8.958,6.314c2.503,0.394,5.028-0.358,7.45-1.1"/>
	<path fill="none" stroke="#0000FF" stroke-miterlimit="10" d="M289.492,495.916c-0.893-0.552-2.057-0.14-2.972,0.374
		c-1.42,0.8-2.706,1.835-3.79,3.05c-0.808,0.903-1.536,2.164-1.035,3.266c0.46,1.01,1.71,1.347,2.813,1.463
		c4.82,0.507,10.09-1.246,12.8-5.265c0.416-0.615,0.78-1.347,0.623-2.073c-0.27-1.255-1.854-1.687-3.137-1.623
		c-1.798,0.09-3.57,0.675-5.067,1.673c-1.353,0.902-2.57,2.492-2.065,4.038c0.337,0.083,0.702,0.04,1.008-0.12 M302.757,494.568
		l-4.192,7.653l4.528-8.068c0.13,1.967,0.264,3.948,0.748,5.86c0.543,0.12,1.022-0.347,1.38-0.77l6.02-7.1
		c-0.935,4.192-4.59,7.194-6.46,11.062 M321.635,485.976c-2.883,4.875-5.623,9.836-8.214,14.873 M313.143,502.914
		c-0.706,0.61-1.72,0.84-2.62,0.594c-0.423-0.115-0.858-0.378-0.955-0.805c-0.13-0.57,0.412-1.082,0.962-1.28
		c0.61-0.218,1.326-0.207,1.872,0.142c0.546,0.35,0.86,1.075,0.635,1.682s-1.046,0.945-1.587,0.587"/>
</g>
<g>
	<path fill="none" stroke="#8383EA" stroke-miterlimit="10" d="M48.366,445.533c0.01,0.24-0.026,0.46-0.15,0.617
		c-4.01,5.095-8.63,7.95-13.548,12.174c4.365-3.75,7.876-8.634,12.2-12.255c3.436,4.398-11.88,16.202-15.038,18.732 M50.19,453.487
		c-6.58,9.463-15.776,16.415-24.95,23.393c8.713-7.865,17.087-18.21,24.505-27.307L29.517,471.15 M52.333,454.297
		c-3.842,5.088-6.92,10.325-11.25,15.224c-5.027,5.69-10.286,11.177-15.76,16.44 M50.052,464.01
		c-7.507,7.102-14.996,14.222-22.468,21.36c-1.996,1.907-4.056,3.914-4.984,6.514 M54.313,462.074
		c-11.83,11.222-23.193,22.935-34.05,35.1 M55.62,464.397c-11.183,9.765-21.687,20.308-31.41,31.528 M52.68,470.467
		c-8.763,8.286-17.193,16.924-25.263,25.886 M53.6,473.467l-18.11,18.17c-1.525,1.53-3.08,3.1-4.006,5.05 M55.09,476.84
		c-0.795,0.224-1.418,0.825-2.005,1.404L33.49,497.582 M55.024,480.75c-6.87,6.135-13.428,12.62-19.637,19.425 M54.392,485.31
		c-5.85,5.073-11.385,10.51-16.56,16.272 M56.155,487.35c-1.21-0.113-2.257,0.78-3.135,1.62c-3.97,3.803-7.775,7.774-11.406,11.9
		 M54.553,494.07c-3.216,2.655-7.656,3.81-10.257,7.07c3.13-3.322,6.334-6.575,9.607-9.756 M55.367,496.314l-6.5,6.974
		 M57.544,498.296c-0.94,0.11-1.658,0.86-2.29,1.567l-5.28,5.903 M58.723,500.276c-2.442,1.69-4.49,3.944-5.94,6.535 M59.517,504.27
		c-1.25,1.42-2.373,2.954-3.354,4.574 M46.264,460.9c-3.453,2.855-5.16,5.743-7.918,9.05c-3.517,4.216-8.178,7.642-12.436,11.062"/>
	<path fill="none" stroke="#8383EA" stroke-miterlimit="10" d="M41.624,482.225c-0.886-0.18-1.858,0.438-2.072,1.317
		c1.92,0.172,3.866,0.07,5.758-0.304c-1.567,0.437-3.072,1.093-4.457,1.945c2.23,0.476,4.62,0.18,6.667-0.825
		c-1.692,0.178-3.324,0.89-4.606,2.008c1.516-0.026,3.026-0.37,4.404-1.002c-1.59,0.448-3.076,1.25-4.324,2.33
		c0.896,0.137,1.843-0.088,2.58-0.613c-1.712,0.28-3.375,0.87-4.884,1.728c-0.586-0.183-1.285,0.21-1.43,0.808
		c1.672,0.39,3.448,0.324,5.088-0.186c-1.654,0.502-3.214,1.315-4.572,2.384l2.875,0.06l-3.468,1.344 M84.913,452.917
		c-2.296,2.98-5.02,5.633-8.06,7.85 M87.035,455.038l-11.8,10.692 M89.228,457.92c-4.875,3.854-9.576,7.927-14.085,12.203
		 M91.72,460.084L73.404,473.91 M93.425,462.133c-6.382,5.3-12.945,10.38-19.67,15.236 M95.458,464.146l-23.795,17.347
		 M97.158,468.256c-8.143,6.038-17.864,10.46-26.007,16.498c8.403-7.032,17.237-13.55,26.437-19.5 M71.454,490.287
		c7.633-7.13,16.198-13.263,25.407-18.19C88.676,478.937,79.984,483.875,71.454,490.287L71.454,490.287z M69.187,500.427
		c8.776-6.71,17.328-13.713,25.636-20.995 M96.923,481.537c-9.76,7.167-19.076,14.937-27.878,23.252 M95.17,486.01
		c-5.65,4.46-11.297,8.923-16.945,13.385c-3.287,2.597-6.588,5.206-9.465,8.252 M95.734,488.265
		c-8.944,7.422-17.89,14.843-26.833,22.265 M95.544,493.125c-0.842,0.16-1.536,0.735-2.19,1.29L79.492,506.22 M96.222,495.692
		c-3.49,2.435-6.736,5.22-9.674,8.297 M89.368,504.75l7.088-5.74C94.106,500.547,91.046,502.498,89.368,504.75z M98.212,503.158
		c-1.97,1.203-3.704,2.793-5.072,4.653 M99.16,505.57c-1.532,1.82-2.964,3.722-4.287,5.698 M98.266,510.188l-2.77,3.798
		 M97.873,475.31c0.194-0.56-0.813-0.603-1.307-0.276c-3.95,2.615-7.017,6.383-10.895,9.105c-1.954,1.37-4.1,2.466-5.99,3.928
		c-3.052,2.36-5.378,5.636-8.7,7.6"/>
	<path fill="none" stroke="#8383EA" stroke-miterlimit="10" d="M42.597,491.5c-0.732,0.88-1.35,1.856-1.833,2.894
		c-0.218,0.467-0.383,1.088-0.01,1.444c0.27,0.257,0.693,0.237,1.064,0.2c1.236-0.12,2.473-0.242,3.71-0.364
		c-0.327,1.39-0.728,2.762-1.2,4.108c1.4,0.16,2.83,0.073,4.2-0.255l0.592,2.068c-3.39-2.292-6.537-4.943-9.37-7.896
		c2.537,2.835,6.023,4.806,9.76,5.518c-3.478-0.77-6.57-3.133-8.23-6.286 M83.798,497.092l-4.803,5.084
		c2.503-3.022,5.388-5.728,8.564-8.033c-1.484,1.713-3.208,3.218-5.106,4.456c1.304-1.155,2.414-2.527,3.27-4.045
		c-2.303,0.84-4.563,1.796-6.77,2.86l5.07-3.9c-1.993,0.813-3.92,1.787-5.756,2.91c1.892-1.347,3.64-2.896,5.207-4.612
		c-1.27,0.67-2.442,1.527-3.466,2.535c0.944-0.805,1.764-1.757,2.42-2.81c-1.187,0.204-2.343,0.58-3.422,1.116
		c0.682-0.287,1.275-0.78,1.683-1.396c-1.76-0.07-3.497-0.644-4.95-1.64 M122.627,502.388l-6.594,6.212 M124.754,496.907
		l-12.438,11.103 M126.163,489.724c-5.1,6.6-11.266,12.377-18.185,17.037 M108.068,502.714c3.56-3.14,7.16-6.24,10.793-9.296
		C115.078,495.695,111.516,499.956,108.068,502.714L108.068,502.714z M108.97,494.708c-1.66,0.38-3.13,0.23-4.652,1.174
		c2.114-2.904,7.692,1.167,2.618,3.267 M43.802,423.007c-1.797,3.49-3.81,6.868-6.027,10.11 M37.825,435.394
		c2.525-4.218,4.9-8.527,7.117-12.915c0.13-0.256,0.502-0.525,0.632-0.27c-2.51,4.385-5.484,8.667-7.75,13.184L37.825,435.394z
		 M47.266,423.094c-2.412,4.466-4.748,8.973-7.008,13.518 M48.62,423.432c-1.875,4.183-3.95,8.276-6.213,12.262 M50.22,424.834
		l-4.597,9.708 M50.874,427.58c-1.116,2.32-2.232,4.64-3.347,6.963 M49.924,411.552l4.527-9.833 M54.808,403.727
		c-1.477,3.847-3.208,7.596-5.18,11.215 M54.3,408.805c-1.144,3.485-2.705,6.833-4.64,9.95 M54.32,416.886
		c-0.583,2.67-2.094,4.25-3.167,6.764c0.785-4.06,1.717-8.594,3.636-12.255 M55.32,418.82l-2.56,7.787 M54.3,400.725
		c-0.988,0.97-1.92,2-2.792,3.077 M54.41,419.52c-0.15-0.27-0.54,0.04-0.662,0.323l-1.938,4.488 M55.16,423.43l-2.306,6.434
		 M54.285,430.396l2.255-6.082c0.09-0.24,0.22-0.514,0.47-0.556C56.582,425.264,54.715,428.89,54.285,430.396z M63.787,396.554
		c0.776-0.94,2.032-1.463,3.246-1.35C65.908,395.546,64.666,395.774,63.787,396.554z M69.26,395.587
		c-1.256,0.17-2.44,0.835-3.238,1.822 M70.617,395.204c-1.364,0.466-2.584,1.347-3.456,2.494 M65.638,396.532
		c-0.368-0.09-0.77-0.022-1.09,0.18l0.92-0.196 M60.594,396.887c-0.928,0.23-1.77,0.794-2.337,1.563 M72.564,394.63l-3.27,2.78
		 M74.558,394.88l-3.676,3.086 M55.94,398.778c-1.265,0.192-2.446,0.894-3.22,1.915 M75.07,395.374
		c-0.77,0.552-1.437,1.244-1.962,2.03 M61.147,525.293c-0.053,0.192-0.167,0.36-0.28,0.526c-2.11,3.115-4.223,6.23-6.335,9.347
		c3.696-3.184,7.062-6.752,10.025-10.627c-3.483,4.196-6.49,8.787-8.944,13.657c4.66-3.82,8.573-8.55,11.455-13.843
		c-5.378,4.63-9.756,10.418-12.75,16.853c4.983-5.398,9.48-11.243,13.42-17.442c-6.387,10.136-12.84,20.405-16.54,31.8
		c5.635-9.175,11.268-18.35,16.902-27.526c-5.774,8.178-10.842,16.855-15.128,25.903c5.847-7.22,11.21-14.836,16.036-22.775
		l-11.33,19.096c-1.266,2.134-2.573,4.418-2.502,6.898c3.48-4.847,6.544-9.99,9.15-15.358c-3.33,5.077-5.942,10.627-7.73,16.43
		c2.36-2.142,4.345-4.7,5.832-7.522c-0.843,2.65-2.03,5.19-3.525,7.536"/>
	<path fill="none" stroke="#8383EA" stroke-miterlimit="10" d="M60.147,547.756c8.863-9.84,17.413-19.964,25.633-30.348
		c-2.737,1.052-2.25,4.924-3.7,7.472C76.634,534.446,68.005,540.047,60.147,547.756L60.147,547.756z M57.052,561.185l36.897-47.33
		c-11.58,15.324-21.915,29.854-33.494,45.177C73.9,543.787,86.83,528.09,99.218,511.974c-14.052,14.69-26.62,30.798-37.445,48.003
		c12.698-13.41,24.176-27.917,35.634-42.4c-11.216,13.375-21.44,27.583-30.56,42.467c8.75-10.695,17.36-21.507,25.824-32.432
		c-7.31,9.885-14.167,20.104-20.546,30.615l17.236-23.06l-14.048,24.542c5.194-5.554,9.8-11.657,13.718-18.174
		c-2.9,4.88-5.802,9.758-8.703,14.637 M79.42,519.326c-3.096,3.178-5.88,6.66-8.302,10.377c2.355-2.18,4.395-4.702,6.035-7.46
		c-3.12,2.19-6.03,4.68-8.68,7.423c2.044-2.023,3.894-4.24,5.518-6.614c-2.732,2.366-5.24,4.99-7.48,7.827
		c2.37-3.215,4.077-6.914,4.987-10.8l-4.996,3.598"/>
	<path fill="none" stroke="#0000FF" stroke-miterlimit="10" d="M59.902,398.1c-0.12,0.157-0.373-0.11-0.272-0.28
		c0.102-0.168,0.333-0.19,0.53-0.196l20.166-0.44c3.086,10.26,4.423,20.894,7.51,31.154c-0.188-1.05-2.21-0.43-3.25-0.66
		c-1.043-0.23-2.13-0.03-3.167,0.216c-3.31,0.784-6.51,2.032-9.478,3.696 M87.568,432.105c-3.098,10.133-7.41,19.894-12.812,29.008"
		/>
	<path fill="none" stroke="#0000FF" stroke-miterlimit="10" d="M66.395,410.544c-0.067,0.213-0.435-0.012-0.354-0.22
		c0.082-0.208,0.343-0.268,0.564-0.297c1.696-0.226,3.392-0.452,5.088-0.68 M76.305,408.84c0.07,0.164-0.31,0.106-0.255-0.066
		c0.054-0.17,0.28-0.2,0.46-0.198l3.474,0.052 M73.78,431.43c1.36-2.283,3.142-4.313,5.23-5.955l0.533,2.158
		c-0.275-1.008,2.226-2.01,3.268-2.087s2.02,0.493,2.854,1.124c0.833,0.63,1.63,1.36,2.62,1.696 M59.734,399.247
		c-0.26-0.412-0.82,0.18-0.92,0.656c-1.302,6.314-2.596,12.933-0.79,19.122"/>
	<path fill="none" stroke="#0000FF" stroke-miterlimit="10" d="M79.708,396.743c0.3-0.972-0.45-2.02-1.394-2.405
		s-2.005-0.28-3.015-0.152c-6.56,0.82-13.05,2.213-19.368,4.158c-0.81,0.25-1.645,0.522-2.28,1.085
		c-0.733,0.648-1.11,1.602-1.43,2.528c-3.26,9.454-1.283,20.27,2.365,29.582c1.842-2.745,5.412-6.643,4.386-10.166
		c-2.116,2.127-3.587,4.992-5.49,7.36c1.436-1.787,4.003-4.62,5.702-7"/>
	<path fill="none" stroke="#0000FF" stroke-miterlimit="10" d="M50.56,416.933c0.026-0.255-0.35-0.387-0.564-0.248
		s-0.294,0.41-0.356,0.66c-0.364,1.468-0.692,3.006-0.352,4.48c0.34,1.476,1.538,2.862,3.05,2.92 M48.84,421.79
		c-1.027-0.842-2.55-0.878-3.776-0.365s-2.198,1.492-3.017,2.538c-1.335,1.706-2.35,3.64-3.226,5.622
		c-1.21,2.737-2.19,5.745-1.637,8.687c0.552,2.942,3.1,5.692,6.09,5.514c0.692-0.04,1.558-0.725,1.1-1.246
		c-0.945,1.007-2.73,0.71-3.693-0.28c-0.96-0.99-1.28-2.432-1.435-3.804c-0.127-1.12-0.165-2.293,0.27-3.333s1.453-1.91,2.58-1.842
		c1.224,0.074,2.438,0.165,3.417,0.905c0.98,0.74,7.862,1.21,5.815-8.024"/>
	<path fill="none" stroke="#0000FF" stroke-miterlimit="10" d="M51.365,425.705c-0.07,1.865-0.912,3.772-2.485,4.777
		c-1.573,1.006-3.894,0.867-5.1-0.558 M46.59,434.43c-0.678-0.246-1.365-0.495-2.082-0.583s-1.48-0.003-2.092,0.38
		c-0.56,0.348-0.953,0.914-1.27,1.494c-0.53,0.974-0.895,2.037-1.073,3.13 M49.808,423.062c-0.352-0.412-0.878-0.632-1.4-0.776
		c-1.62-0.446-3.4-0.278-4.905,0.463c-1.506,0.74-2.725,2.048-3.36,3.602"/>
	<path fill="none" stroke="#0000FF" stroke-miterlimit="10" d="M50.153,417.012c-0.247-0.194-0.617-0.16-0.886,0.003
		s-0.458,0.427-0.63,0.69c-0.627,0.97-1.133,2.147-0.81,3.255c0.117,0.396,0.332,0.754,0.55,1.104
		c0.445,0.712,0.912,1.41,1.402,2.092c0.254,0.356,0.567,0.738,1.002,0.78 M59.173,418.595c-0.29-0.03-0.546,0.176-0.764,0.37
		c-1.613,1.433-3.277,2.938-4.097,4.933 M65.814,406.972c4.548-0.17,9.1-0.226,13.65-0.17 M65.67,405.854
		c0.073,0.098-0.19,0.1-0.166-0.018c0.026-0.12,0.18-0.148,0.302-0.15c4.837-0.133,9.686,0.14,14.478,0.813l-15.52,0.256l6.794-0.5
		c2.982-0.218,6.017-0.434,8.934,0.222c-6.205-1.127-12.524-1.624-18.83-1.48 M75.993,464.003c0.87,1.23,1.695,4.958-0.53,5.556
		c-1.767,0.473-5.66-5.967-6.688-7.237c-0.85-1.052-2.024-2.22-3.334-1.88c-0.87,0.224-1.424,1.045-1.94,1.78
		c-2.026,2.895-4.653,5.367-7.665,7.213l-6.69-22.826l10.59,61.183"/>
	<path fill="none" stroke="#0000FF" stroke-miterlimit="10" d="M65.54,465.095c-1.222-0.556-2.5,1.397-1.614,2.408
		s2.83,0.35,3.11-0.965c0.278-1.314-0.924-2.648-2.263-2.743c-0.508,1.028-0.677,2.22-0.476,3.35c0.865,0.816,2.05-0.598,2.387-1.74
		c0.41-1.377,0.687-3.167-0.493-3.99c-1.214-0.846-2.914,0.177-3.685,1.442c-0.79,1.298-1.093,2.974-0.462,4.357
		c0.63,1.383,2.34,2.285,3.757,1.73c1.417-0.555,1.967-2.72,0.81-3.71l-1.036-0.25c0.5,15.338,0.645,30.688,0.43,46.033
		 M38.96,511.063l7.7-9.044c0.335-0.394,1.16-0.65,1.18-0.133c5.564,4.62,11.673,7.4,17.985,10.93
		c-4.337-0.053-8.668-0.66-12.852-1.803c4.006,3.227,10.295,3.492,13.06,7.83c-5.304-0.614-9.952-5.058-15.244-4.336l12.55,8.954
		c-9.11-2.316-15.548-9.18-24.38-12.4L38.96,511.063z M74.068,512.967l-0.132,0.204c-1.258,1.875-5.768,10.935,0.808,8.492
		c6.655-2.473,13.31-4.946,19.963-7.42c-3.635,1.194-8.273-12.42-14.246-10.365c-2.715,0.934-4.872,6.68-6.392,9.09L74.068,512.967z
		"/>
	<path fill="none" stroke="#0000FF" stroke-miterlimit="10" d="M60.61,522.324c1.393,0.78,2.978,1.552,4.526,1.156
		c-0.037,0.132-0.24,0.14-0.337,0.043c-0.097-0.098-0.113-0.247-0.123-0.384c-0.14-1.846-0.282-3.692-0.424-5.537
		c-0.426,1.766-0.852,3.61-0.44,5.378c-0.936-1.895-2.916-2.997-4.73-4.083c-0.707-0.422-5.906-4.628-5.822-1.662
		c0.05,1.727,5.96,4.31,7.35,5.09V522.324z M79.15,509.37c0.08,0.02,0.084-0.135,0.004-0.155s-0.153,0.045-0.21,0.104
		c-2.853,2.982-5.598,6.07-8.227,9.253"/>
	<path fill="none" stroke="#0000FF" stroke-miterlimit="10" d="M78.68,511.107c0.084-0.02,0.052-0.164-0.032-0.184
		c-0.083-0.02-0.164,0.036-0.23,0.09c-3.163,2.472-6.02,5.333-8.488,8.5 M84.407,514.487c-4.07,2.347-7.983,4.965-11.706,7.83
		c3.762-1.23,7.32-3.084,10.48-5.462c-0.97-0.105-1.91,0.33-2.78,0.775c-2.937,1.5-5.758,3.23-8.428,5.166 M26.375,503.84
		c-6.716-2.97-2.563-1.645-8.034-6.544c4.707-6.265,7.673-13.635,10.586-20.91l8.67-21.645c5.89-3.904,10.948-9.06,14.736-15.028
		 M83.283,449.005c1.51,6.003,9,8.345,12.18,13.656c2.347,3.92,1.997,8.81,1.837,13.374c-0.467,13.256,1.288,26.48,3.04,39.627"/>
	<path fill="none" stroke="#0000FF" stroke-miterlimit="10" d="M46.807,500.19c-7.078-2.84-14.34-5.22-21.725-7.122
		c-2.788,17.422-5.192,34.905-7.208,52.433c3.823,1.613,9.07-1.71,12.023,1.205c1.195,1.18,1.464,2.98,1.67,4.647l1.148,9.268
		c3.664,0.662,7.25,1.762,10.655,3.267c-2.018-18.497-2.694-37.14-2.02-55.736"/>
	<path fill="none" stroke="#0000FF" stroke-miterlimit="10" d="M44.9,501.287c-6.056-2.886-12.554-4.84-19.196-5.772
		c-3.45,16.702-5.645,33.663-6.563,50.692l11.115,1.43l-9.03-1.485c2.75,1.373,5.497,2.746,8.245,4.12
		c0.403,0.2,0.824,0.418,1.07,0.796c0.312,0.484,0.26,1.108,0.21,1.683c-0.327,3.775-0.06,7.6,0.792,11.292l-2.59-15.603
		c1.21,4.42,1.078,9.202-0.377,13.55c5.79,1.342,11.75,1.956,17.694,1.824c-0.308-18.035-1.698-36.052-4.16-53.92 M37.107,493.5
		c2.347-0.485,4.53-1.727,6.148-3.496c-1.784,0.072-3.582-0.213-5.257-0.833c2.34-0.848,4.62-1.866,6.814-3.042
		c-1.828-0.58-3.346-2.062-3.97-3.876 M77.95,503.68c3.175-3.064,6.626-5.842,10.3-8.29c-3.932-0.355-7.726,1.955-11.664,1.68
		c2.937-0.82,5.582-2.646,7.388-5.103l-6.404-0.106c-0.008-0.518,0.267-1.033,0.702-1.316 M53.466,441.468
		c-0.84,2.9-0.198,6.037,0.917,8.843c1.736,4.37,4.62,8.276,8.285,11.22 M77.82,435.48c1.72-1.75,4.202-2.72,6.65-2.6 M100,491.516
		l2.866-2.597c-0.65,1.545-1.493,3.012-2.5,4.354 M104.515,491.202c-1.26,0.616-2.238,1.78-2.628,3.127
		c7.843-0.492,15.686-0.982,23.53-1.473c3.01-0.188,6.256-0.47,8.532-2.448c2.985-2.597,4.197-7.904,8.15-8.062
		c-1.32,2.907-2.957,5.67-4.87,8.227l22.152-3.048c-4.477,9.342-14.918,14.135-24.858,17.054
		c-14.822,4.354-30.273,6.195-45.207,10.146 M129.232,489.855c-0.95,5.158-1.897,10.315-2.846,15.473 M125.627,491.212
		c-1.62,5.91-2.93,11.902-3.925,17.947"/>
	<path fill="none" stroke="#0000FF" stroke-miterlimit="10" d="M94.686,513.53c0.143-3.31-1.065-6.657-3.287-9.112
		s-5.434-3.99-8.74-4.176c-1.576,0.763-2.908,2.02-3.76,3.55c4.067-2.863,8.19-5.777,11.328-9.637c0,2.175-9.36,6.354-10.693,8.626
		c2.28,0.796,4.98-0.023,7.38,0.657c4.353,1.233,6.888,5.855,7.77,10.092L94.686,513.53z M74.494,460.056l-0.712-0.615
		c-1.333,0.877-2.916,1.37-4.51,1.403 M81.34,452.37c-1.43,4.113-2.646,8.302-3.64,12.542c-0.9,3.838-1.617,7.716-2.334,11.592
		l-5.206,28.15 M129.385,500.686c0.19,0-0.166,0.025-0.09-0.148c1.05-2.376,4.027-3.235,6.623-3.155
		c2.597,0.08,5.196,0.805,7.76,0.396c-0.438-2.152-0.636-4.353-0.588-6.548l-0.792,4.474c2.49-3.592,8.234-3.158,11.28-6.293
		c-3.962,3.168-8.116,6.095-12.433,8.76c5.08-0.705,10.075-2.02,14.843-3.91 M143.827,505.288c-6.25,9.363-16.1,15.97-26.74,19.643
		s-22.066,4.588-33.316,4.204"/>
	<path fill="none" stroke="#0000FF" stroke-miterlimit="10" d="M133.938,510.578c-1.113,2.063-3.09,3.506-5.076,4.75
		c-6.642,4.16-14.165,6.904-21.926,7.995 M80.85,373.15c2.56-0.386,5.273,0.408,7.22,2.114c0.445,0.39,0.88,0.9,0.842,1.49
		c-0.035,0.535-0.452,0.962-0.877,1.287c-2.712,2.073-6.646,2.058-9.224,4.296c-0.35,0.304-0.694,0.763-0.52,1.193
		c0.116,0.28,0.418,0.435,0.7,0.55c0.833,0.346,1.71,0.585,2.602,0.71 M80.678,386.37c-1.038-0.31-2.262,0.32-2.617,1.343
		c1.168,0.475,2.555,0.37,3.636-0.278c-0.722-0.553-1.756-0.666-2.58-0.284c0.032,0.113,0.17,0.18,0.278,0.14"/>
	<path fill="none" stroke="#0000FF" stroke-miterlimit="10" d="M84.35,374.656c1.354-0.115,2.75,0.425,3.676,1.423
		c0.37,0.398,0.68,0.92,0.602,1.46c-0.11,0.767-0.918,1.204-1.634,1.502c-2.28,0.95-4.63,1.733-7.026,2.34 M83.52,556.79
		c2.556-9.202,6.25-18.088,10.97-26.39C91.306,539.79,85.81,547.143,83.52,556.79z M66.27,529.885l-2.988,29.077 M57.69,521.885
		c0.32,8.516-1.352,18.18-5.878,25.423c-0.897-1.733-2.254-3.853-2.725-5.87c-0.804,2.302-0.07,3.643,0.578,5.203
		C51.893,544.206,57.835,525.747,57.69,521.885L57.69,521.885z M30.567,551.5c-6.293,0.07-12.585,0.14-18.878,0.208l15.23,1.066
		c1.76,0.123,3.693,0.323,4.917,1.594c-6.347-0.79-12.693-1.58-19.04-2.368c2.014-15.927,5.405-31.68,10.122-47.025
		c4.147-1.085,8.203-2.523,12.394-3.443c3.68-0.808,8.252,0.115,11.602-0.906c-2.152,2.795-4.258,5.604-6.13,8.602"/>
</g>
</svg>
