<?xml version="1.0" encoding="utf-8"?>
<!-- Generator: Adobe Illustrator 17.0.0, SVG Export Plug-In . SVG Version: 6.00 Build 0)  -->
<!DOCTYPE svg PUBLIC "-//W3C//DTD SVG 1.1//EN" "http://www.w3.org/Graphics/SVG/1.1/DTD/svg11.dtd">
<svg version="1.1" id="Layer_1" xmlns="http://www.w3.org/2000/svg" xmlns:xlink="http://www.w3.org/1999/xlink" x="0px" y="0px"
	 width="412px" height="660px" viewBox="0 0 412 660" enable-background="new 0 0 412 660" xml:space="preserve">
<path fill="none" stroke="#0000FF" stroke-miterlimit="10" d="M129.555,514.138c0.411-0.115,0.927-0.412,0.791-0.817
	c-0.037-0.109-0.119-0.197-0.205-0.273c-0.529-0.471-1.271-0.648-1.978-0.612c-0.707,0.036-1.389,0.266-2.048,0.526
	c-2.235,0.881-4.369,2.175-5.835,4.078c-0.119,0.154-0.238,0.346-0.174,0.53c0.044,0.126,0.165,0.208,0.282,0.272
	c0.608,0.334,1.336,0.446,2.016,0.31"/>
<path fill="none" stroke="#0000FF" stroke-miterlimit="10" d="M127.798,516.495c0.084-0.098-0.041-0.235-0.151-0.302
	c-1.334-0.801-2.747-1.47-4.212-1.995"/>
<path fill="none" stroke="#0000FF" stroke-miterlimit="10" d="M128.324,512.742c-3.293,0.872-6.274,2.877-8.322,5.599
	c0.46,0.385,1.15,0.199,1.716,0c4.335-1.525,8.786-2.717,13.303-3.563"/>
<path fill="none" stroke="#0000FF" stroke-miterlimit="10" d="M97.599,531.927c-6.023,3.259-12.074,6.536-17.512,10.699
	c-8.087,6.192-14.14,14.142-19.481,22.815c1.888-2.91,4.335-5.407,6.764-7.883c4.691-4.781,9.402-9.581,14.723-13.649
	c3.247-2.482,6.701-4.678,10.15-6.87c1.97-1.252,3.94-2.504,5.91-3.755c0.971-0.617,2.006-1.254,3.156-1.276"/>
<path fill="none" stroke="#0000FF" stroke-miterlimit="10" d="M74.304,570.338c3.426-6.081,6.942-12.111,10.595-18.057
	c2.042-3.324,4.13-6.626,6.434-9.776c1.172-1.603,2.397-3.168,3.699-4.667c0.173-0.199,1.524-1.38,0.68-1.46
	c-0.431-0.041-1.558,1.79-1.835,2.14c-4.946,6.253-9.42,12.879-13.373,19.802C78.268,562.234,76.199,566.245,74.304,570.338z"/>
<path fill="none" stroke="#0000FF" stroke-miterlimit="10" d="M95.46,509.081c1.823,2.933,4.028,5.474,6.391,7.975
	c0.73,0.773,1.385,1.534,2.24,2.171c0.518,0.386,2.858,2.482,3.275,2.536c-2.506-0.323-5.261-1.477-6.952-3.397
	c2.39-0.418,3.735,0.855,5.497,2.203c2.535,1.939,5.278,3.602,8.179,4.934c0.181,0.083,0.378,0.18,0.456,0.364
	c0.078,0.184-0.073,0.454-0.265,0.399"/>
<path fill="none" stroke="#0000FF" stroke-miterlimit="10" d="M165.877,490.019c-5.254-2.795-10.249-5.759-17.018-4.31
	c5.53,0.399,11.196,0.832,16.239,3.135c0.257,0.117,0.533,0.262,0.636,0.525c0.115,0.294-0.03,0.619-0.176,0.899
	c-3.094,5.947-7.789,10.901-12.68,15.485c-1.3,1.218-2.731,2.473-4.494,2.73c-1.567,0.229-3.124-0.374-4.593-0.964
	c-1.944-0.782-3.888-1.563-5.832-2.345c4.747-5.382,8.667-11.492,11.579-18.051"/>
<path fill="none" stroke="#0000FF" stroke-miterlimit="10" d="M157.279,491.42c-0.024-0.058-0.048-0.116-0.071-0.174
	c-0.785,0.359-1.55,0.762-2.289,1.207c-0.293,0.176-0.618,0.423-0.604,0.765c1.346,0.141,2.746-0.545,3.459-1.696
	c-1.019-0.072-2.059,0.451-2.61,1.311"/>
<path fill="none" stroke="#0000FF" stroke-miterlimit="10" d="M162.116,493.42c-0.048,0.002,0.018-0.081,0.044-0.041
	c0.026,0.04-0.012,0.091-0.049,0.123c-0.674,0.595-1.579,0.99-1.977,1.796c0.749-0.197,1.465-0.518,2.11-0.947
	c0.323-0.215,0.663-0.535,0.604-0.919c-0.534,0.139-1.03,0.419-1.424,0.805"/>
<path fill="none" stroke="#0000FF" stroke-miterlimit="10" d="M158.293,499.317c0.096-0.145-0.14-0.278-0.313-0.295
	c-3.813-0.367-7.626-0.733-11.439-1.1"/>
<path fill="none" stroke="#0000FF" stroke-miterlimit="10" d="M151.279,483.973c-0.016-0.144-0.272,0.009-0.195,0.132
	s0.255,0.113,0.397,0.088c6.605-1.133,13.524-0.376,19.728,2.158c0.947,0.387,1.896,0.827,2.637,1.531
	c-0.968,0.732-2.066,1.292-3.227,1.646c-0.82,0.25-1.756,0.456-2.225,1.174c-0.065,0.099-0.12,0.221-0.083,0.334
	c0.041,0.124,0.174,0.188,0.295,0.237c1.093,0.443,2.228,0.78,3.386,1.004c-1.107,0.215-2.214,0.431-3.321,0.646
	c-0.399,0.078-0.915,0.329-0.802,0.72c0.059,0.202,0.271,0.313,0.465,0.394c0.877,0.366,1.809,0.598,2.755,0.684
	c-0.849-0.051-1.731-0.098-2.521,0.217c-0.79,0.315-1.461,1.102-1.354,1.945c0.104,0.818,0.867,1.388,1.621,1.722
	c2.1,0.93,4.654,0.755,6.608-0.453c0.326-0.201,0.653-0.453,0.774-0.816c0.121-0.363-0.071-0.848-0.45-0.898"/>
<path fill="none" stroke="#0000FF" stroke-miterlimit="10" d="M151.224,487.846c0.097-0.155,0.36-0.158,0.46-0.005
	c-0.162,0.253-0.43,0.416-0.692,0.562c-1.485,0.827-3.127,1.44-4.356,2.615c0.178,0.389,0.648,0.548,1.074,0.588
	c0.426,0.04,0.873,0.005,1.265,0.177c-0.788,0.157-1.547,0.46-2.226,0.89c0.841,0.204,1.718,0.262,2.578,0.172
	c-1.044,0.265-2.054,0.662-2.999,1.178"/>
<path fill="none" stroke="#0000FF" stroke-miterlimit="10" d="M158.097,483.689c0,0,23.497-10.122,49.966-6.107"/>
<path fill="none" stroke="#0000FF" stroke-miterlimit="10" d="M206.773,474.895c0,0-97.945-28.734-158.506,92.312"/>
<path fill="none" stroke="#0000FF" stroke-miterlimit="10" d="M149.097,476.324c-2.726,0.716-5.42,1.552-8.072,2.505
	c-10.506,3.772-20.263,9.331-29.959,14.861c-4.266,2.433-8.546,4.876-12.463,7.839c-4.996,3.779-9.33,8.35-13.615,12.92
	c-6.252,6.669-12.452,13.385-18.652,20.102"/>
<path fill="none" stroke="#0000FF" stroke-miterlimit="10" d="M157.185,483.108c8.053-3.446,16.346-6.724,25.075-7.464
	c9.32-0.79,18.611,1.353,27.719,3.482"/>
<path fill="none" stroke="#0000FF" stroke-miterlimit="10" d="M208.336,473.828c-0.426-1.513-0.577-1.771,0.136-3.172
	c0.716-1.407,2.297-2.361,3.81-2.807c3.112-0.916,4.934-1.166,8.127-0.596c-2.026,2.565-5.406,1.048-6.768,4.02
	c1.447,0.415,2.964-0.193,4.372-0.726c5.661-2.14,11.734-3.184,17.785-3.056c-3.124,3.482-9.729,1.419-12.79,4.957
	c2.889,0.441,5.796-0.4,8.678-0.887s6.093-0.547,8.442,1.192c-5.412,0.394-10.824,0.788-16.236,1.181
	c-0.768,0.056-1.817,0.513-1.54,1.231c6.517-0.166,13.059,0.724,19.294,2.626c-1.342,0.912-3.124,0.667-4.727,0.417
	c-8.092-1.266-16.306-1.753-24.491-1.451c-1.09,0.04-2.569-0.238-2.608-1.328"/>
<path fill="none" stroke="#0000FF" stroke-miterlimit="10" d="M125.128,499.229c-4.287,7.387-8.543,14.792-12.767,22.216
	c-0.085,0.149-0.161,0.362-0.028,0.471c0.129,0.106,0.318,0.001,0.453-0.098c1.094-0.803,2.402-1.255,3.701-1.647
	c6.095-1.838,12.517-2.618,18.402-5.045c0.129-0.053,0.266-0.115,0.336-0.235c0.061-0.106,0.058-0.236,0.05-0.359
	c-0.151-2.398-1.098-4.694-2.393-6.718c-1.295-2.024-2.933-3.804-4.594-5.541c-0.959-1.002-1.934-1.999-3.048-2.824
	c-0.034,1.046-0.45,2.04-0.904,2.983c-0.705,1.464-1.518,2.874-2.392,4.243c-0.636,0.995-2.23,2.52-2.353,3.689
	c2.252-1.291,4.325-3.453,6.36-5.098c-1.308,2.175-3.047,4.054-4.772,5.916c1.673-1.192,3.568-2.071,5.558-2.578
	c0.473-0.12,1.059-0.186,1.369,0.191c-3.433,3.654-7.635,6.582-12.252,8.539"/>
<path fill="none" stroke="#0000FF" stroke-miterlimit="10" d="M121.157,508.87c-1.476,1.098-2.952,2.197-4.428,3.295
	c1.944-1.094,3.317-2.97,5.093-4.319c1.462-1.111,3.205-1.872,4.453-3.219"/>
<path fill="none" stroke="#0000FF" stroke-miterlimit="10" d="M132.274,508.151c1.733,1.903,3.419,3.905,4.473,6.253
	c-0.713-1.589-10.133-15.443-11.607-14.14c0.716,1.05,3.322,3.876,4.218,4.797C130.345,506.076,131.32,507.104,132.274,508.151z"/>
<path fill="none" stroke="#0000FF" stroke-miterlimit="10" d="M140.25,502.497c0.527-2.581,1.25-5.123,2.162-7.594
	c0.963-2.61,2.302-5.324,4.769-6.609c-2.751,0.454-5.071,2.536-6.237,5.069c-1.166,2.533-1.281,5.455-0.782,8.198
	c1.007-4.881,3.186-9.516,6.302-13.405"/>
<path fill="none" stroke="#0000FF" stroke-miterlimit="10" d="M175.79,492.192c11.347-2.255,22.928-3.327,34.496-3.191"/>
<path fill="none" stroke="#0000FF" stroke-miterlimit="10" d="M209.124,491.235c0,0-73.046,2.685-140.049,75.365"/>
<path fill="none" stroke="#0000FF" stroke-miterlimit="10" d="M207.55,490.171c-0.37-0.009-0.667-0.357-0.719-0.724
	c-0.052-0.366,0.09-0.734,0.281-1.05c0.74-1.222,2.153-1.846,3.511-2.289c1.463-0.477,2.967-0.829,4.49-1.051
	c0.181-0.026,0.383-0.047,0.532,0.059c0.193,0.136,0.208,0.434,0.093,0.641c-0.115,0.207-0.322,0.343-0.524,0.466
	c-1.358,0.823-2.841,1.413-4.316,2c3.202-0.806,6.436-1.549,9.729-1.788c3.293-0.239,6.667,0.041,9.748,1.228
	c-2.869,0.54-5.78,0.859-8.698,0.953c-1.336,0.043-2.719,0.048-3.937,0.599c2.758-0.068,5.536-0.037,8.25,0.457
	c2.715,0.494,5.381,1.471,7.572,3.148c-0.98,0.101-1.967-0.05-2.934-0.238c-3.976-0.774-7.827-2.177-11.849-2.656
	c4.667,1.32,9.011,3.77,12.557,7.08c-4.659-1.832-8.905-4.784-13.798-5.842c3.085,1.47,6.238,2.987,8.639,5.418
	c-1.175-0.215-2.26-0.755-3.351-1.24c-4.204-1.869-8.736-2.995-13.325-3.312"/>
<path fill="none" stroke="#0000FF" stroke-miterlimit="10" d="M217.016,472.408c-0.803,1.514-2.482,2.345-4.125,2.831
	c-1.913,0.566-4.088,0.765-5.812-0.239c1.221,0.462,2.52,0.852,3.815,0.685s2.581-1.026,2.869-2.299"/>
<path fill="none" stroke="#0000FF" stroke-miterlimit="10" d="M213.563,489.271c-0.095-0.09-0.239,0.028-0.319,0.132
	c-0.742,0.968-1.954,1.469-3.157,1.669c-1.203,0.2-2.431,0.14-3.648,0.213"/>
<path fill="none" stroke="#0000FF" stroke-miterlimit="10" d="M102.94,521.688c-3.033-2.777-5.51-6.1-7.834-9.492
	c-0.309-0.452-0.622-0.918-0.746-1.452c-0.12-0.519-0.052-1.06,0.017-1.588c0.142-1.087,0.284-2.175,0.427-3.262
	c-0.781,1.508-0.615,3.333-0.172,4.972c1.103,4.085,3.77,7.618,6.974,10.382c1.372,1.183,2.847,2.241,4.374,3.214
	c1.04,0.663,2.523,1.939,3.81,1.846C107.311,524.994,105.023,523.596,102.94,521.688z"/>
<path fill="none" stroke="#0000FF" stroke-miterlimit="10" d="M49.919,566.314c-3.937,4.288-6.601,9.729-7.575,15.467
	c-0.317,1.869-0.446,3.853,0.283,5.603c0.146,0.352,0.353,0.715,0.704,0.861c0.247,0.103,0.526,0.082,0.79,0.037
	c1.232-0.207,2.378-0.893,3.141-1.883c0.159-0.207,0.308-0.442,0.315-0.703c0.009-0.343-0.223-0.637-0.41-0.925
	c-0.728-1.123-0.865-2.521-0.906-3.858c-0.114-3.703,0.363-7.424,1.406-10.979"/>
<path fill="none" stroke="#0000FF" stroke-miterlimit="10" d="M62.241,571.882c-2.895,4.867-4.517,10.485-4.662,16.147
	c-0.012,0.462,0.105,1.07,0.564,1.124c0.183,0.022,0.361-0.063,0.525-0.149c2.799-1.459,5.172-3.723,6.763-6.449
	c-1.591,0.195-3.512,0.255-4.445-1.048c-0.792-1.106-0.435-2.636,0.032-3.914c1.791-4.891,4.781-9.337,8.635-12.841"/>
<path fill="none" stroke="#0000FF" stroke-miterlimit="10" d="M138.141,502.031c-1.105-0.11-1.542-1.506-1.496-2.615
	c0.115-2.768,1.659-5.437,4-6.917c-0.754,1.735-1.937,3.274-2.546,5.066c-0.608,1.792-0.468,4.062,1.038,5.208
	c0.161-4.064,1.82-8.052,4.587-11.033"/>
<path fill="none" stroke="#0000FF" stroke-miterlimit="10" d="M143.417,477.291c-17.105-1.21-35.922,0.369-53.081,5.148
	c-11.073,3.084-21.244,8.703-31.298,14.273c-4.337,2.403-8.7,4.824-12.537,7.964c-3.342,2.735-6.232,5.974-9.072,9.228
	c-6.38,7.309-12.78,15.132-15.06,24.562c2.565-2.756,5.618-5.057,8.974-6.763c1.786-0.908,3.881-1.656,5.756-0.948
	c2.121,0.801,3.177,3.154,3.801,5.334c2.3,8.04,1.935,17.262,7.175,23.78c2.121,2.638,5.001,4.575,8.034,6.079
	c4.83,2.395,10.283,3.791,15.634,3.136c4.55-0.557,8.787-2.546,13.226-3.691c4.438-1.145,9.533-1.318,13.218,1.409
	c2.307,1.707,3.784,4.356,6.1,6.05c4.12,3.013,10.276,2.191,14.136-1.149c3.86-3.34,5.59-8.667,5.488-13.771
	c-3.412,3.774-8.709,6.022-13.699,5.029c-4.99-0.992-9.24-5.628-9.055-10.713c0.083-2.28,0.975-4.447,1.952-6.509
	c4.482-9.466,11.046-17.94,19.092-24.645"/>
<path fill="none" stroke="#0000FF" stroke-miterlimit="10" d="M133.167,478.856c-2.471-0.077-4.945-0.04-7.417-0.003
	c-12.981,0.193-26.072,0.399-38.735,3.262c-22.058,4.988-41.955,18.073-56.441,35.439c-3.855,4.621-7.531,10.185-6.816,16.16"/>
<path fill="none" stroke="#0000FF" stroke-miterlimit="10" d="M251.947,459.868c4.727-2.025,9.898-3.006,15.037-2.852
	c0.606,0.018,1.259,0.039,1.76-0.303c0.464-0.317,0.689-0.874,0.884-1.401c3.069-8.279,5.787-18.072,5.318-26.924
	c-6.009-0.382-16.346,4.363-16.724,6.322C257.89,436.427,255.368,458.403,251.947,459.868z"/>
<path fill="none" stroke="#0000FF" stroke-miterlimit="10" d="M257.228,438.921c-2.69-5.576-2.401-12.067-2.054-18.249"/>
<path fill="none" stroke="#0000FF" stroke-miterlimit="10" d="M252.989,416.505c0.018,1.398,0.364,2.79,1.002,4.033
	c0.141-1.491,0.298-3.031,1.034-4.335c0.155,1.542,0.21,3.093,0.167,4.642c1.155-2.182,2.309-4.364,3.464-6.546"/>
<path fill="none" stroke="#0000FF" stroke-miterlimit="10" d="M275.27,433.026c1.843-1.512,2.594-3.958,3.134-6.28
	c0.493-2.122,0.888-4.267,1.183-6.425c0.245-1.794,0.41-3.688-0.292-5.357"/>
<path fill="none" stroke="#0000FF" stroke-miterlimit="10" d="M275.985,411.286c0.01-0.149,0.019-0.299,0.029-0.448
	c0.347,1.712,0.949,3.371,1.78,4.907c0.065-1.716,0.322-3.425,0.763-5.085c-0.127,1.433,0.025,2.891,0.443,4.267
	c0.311-1.848,0.622-3.696,0.932-5.543c-0.122,1.773-0.179,3.551-0.171,5.328c0.323,0.119,0.554-0.317,0.621-0.655
	c0.358-1.805,0.646-3.624,0.861-5.452"/>
<path fill="none" stroke="#0000FF" stroke-miterlimit="10" d="M261.688,434.821c-0.077,0.126-0.123-0.162,0.006-0.234
	c0.661-0.375,1.376-0.655,2.115-0.831"/>
<path fill="none" stroke="#0000FF" stroke-miterlimit="10" d="M266.652,433.07c0.645-0.106,1.289-0.213,1.934-0.319"/>
<path fill="none" stroke="#0000FF" stroke-miterlimit="10" d="M262.892,443.342c0.011,0.223,0.035,0.458,0.167,0.638
	c0.364,0.492,1.17,0.172,1.558-0.3c0.529-0.642,0.776-1.465,0.979-2.271c0.24-0.952,1.387-5.27-0.998-4.291
	C263.117,437.727,262.827,442.056,262.892,443.342z"/>
<path fill="none" stroke="#0000FF" stroke-miterlimit="10" d="M257.445,457.459c-0.868-1.13-1.736-2.26-2.604-3.39
	c-0.432-0.562-0.886-1.143-1.521-1.459c-1.441-0.715-3.126,0.181-4.479,1.051c-1.25,0.803-2.499,1.606-3.749,2.41
	c0.578-3.71,0.311-7.55-0.777-11.144c-0.079-0.262-0.256-0.582-0.524-0.528c-0.199,0.04-0.29,0.268-0.343,0.464
	c-0.932,3.448-0.387,7.269,1.47,10.32"/>
<path fill="none" stroke="#0000FF" stroke-miterlimit="10" d="M264.512,456.429c-0.525-2.012-1.357-3.945-2.458-5.709
	c-0.327-0.523-0.79-1.092-1.406-1.057c-0.521,0.03-0.901,0.485-1.215,0.902c-1.053,1.4-2.106,2.799-3.16,4.199
	c-0.415-2.083-0.83-4.165-1.246-6.248c-0.27-1.356-0.594-2.81-1.621-3.736c-0.08-0.072-0.179-0.145-0.286-0.127
	c-0.142,0.024-0.206,0.188-0.24,0.327c-0.633,2.622,0.397,5.35,1.641,7.743c0.417,0.801,1.097,1.711,1.986,1.554"/>
<path fill="none" stroke="#0000FF" stroke-miterlimit="10" d="M251.825,459.872c0.775,0.417,1.522,0.886,2.234,1.403
	c0.306,0.222,0.625,0.461,1.001,0.506c0.324,0.038,0.644-0.074,0.952-0.18c4.785-1.644,9.966-2.124,14.972-1.39
	c3.583-7.123,4.695-15.194,5.755-23.097c0.148-1.105,0.297-2.219,0.228-3.333c-0.151-2.435-1.324-4.674-2.471-6.827"/>
<path fill="none" stroke="#0000FF" stroke-miterlimit="10" d="M257.384,445.954c1.118,1.498,2.235,2.996,3.353,4.494
	c-0.71-1.411-1.426-2.82-2.147-4.226"/>
<path fill="none" stroke="#0000FF" stroke-miterlimit="10" d="M256.146,454.098c-0.032,0.212-0.058,0.451,0.075,0.619
	c0.148,0.186,0.421,0.199,0.659,0.196c3.149-0.044,6.297-0.088,9.446-0.132c0.305-0.004,0.623-0.012,0.889-0.161
	c0.346-0.193,0.529-0.581,0.686-0.945c3.229-7.462,5.212-15.461,5.843-23.567c0.028-0.356,0.035-0.762-0.22-1.012
	c-0.306-0.3-0.808-0.207-1.221-0.093c-3.182,0.884-6.42,1.797-9.496,3.008c-1.74,0.685-3.021,1.468-3.66,3.287
	c-0.894,2.548-0.977,5.552-1.382,8.204C257.225,447.034,256.686,450.566,256.146,454.098z"/>
<path fill="none" stroke="#0000FF" stroke-miterlimit="10" d="M267.806,405.073c-0.553-2.349-0.675-4.798-0.358-7.19"/>
<path fill="none" stroke="#0000FF" stroke-miterlimit="10" d="M264.146,384.162c0.011-2.583,0.022-5.165,0.034-7.748"/>
<path fill="none" stroke="#0000FF" stroke-miterlimit="10" d="M261.893,359.747c-0.598-2.943-0.738-5.979-0.414-8.965"/>
<path fill="none" stroke="#0000FF" stroke-miterlimit="10" d="M170.826,439.638c-0.935,3.712-1.778,7.446-2.527,11.2
	c0.788-4.751,1.94-9.442,3.441-14.018c0.106,3.139,0.213,6.278,0.319,9.417c1.728-2.542,3.456-5.084,5.183-7.626
	c-1.114,4.472-2.334,8.917-3.659,13.331"/>
<path fill="none" stroke="#0000FF" stroke-miterlimit="10" d="M186.653,442.006c-1.472-0.665-3.239-0.386-4.66,0.381
	c-1.421,0.767-2.555,1.968-3.603,3.197c-0.619,0.726-1.241,1.52-1.375,2.465c-0.273,1.927,1.701,3.577,3.643,3.711
	c1.942,0.134,3.782-0.788,5.51-1.685"/>
<path fill="none" stroke="#0000FF" stroke-miterlimit="10" d="M173.782,449.046c3.228-1.313,6.602-2.269,10.039-2.845"/>
<path fill="none" stroke="#0000FF" stroke-miterlimit="10" d="M197.733,435.654c-0.354-0.083-0.709-0.166-1.063-0.249
	c-1.642,4.347-3.284,8.694-4.926,13.041"/>
<path fill="none" stroke="#0000FF" stroke-miterlimit="10" d="M190.504,452.876c-0.53-0.375,0.432-1.297,0.784-0.751
	c0.011,0.621,0.022,1.241,0.033,1.862c-0.388-0.011-0.729-0.378-0.712-0.766"/>
<path fill="none" stroke="#0000FF" stroke-miterlimit="10" d="M163.218,445.091c-1.819-0.564-3.79-0.001-5.546,0.736
	c-10.309,4.331-17.469,15.263-17.321,26.444"/>
<path fill="none" stroke="#0000FF" stroke-miterlimit="10" d="M137.474,466.995c-0.36,2.613,0.428,5.363,2.117,7.39
	c1.081-2.973,2.648-5.769,4.618-8.244"/>
<g>
	<path fill="none" stroke="#0000FF" stroke-miterlimit="10" d="M353.092,397.989c0.822,0.805,2.181,0.53,3.258,0.128
		c1.62-0.605,3.178-1.377,4.64-2.299c2.611-1.647,5.073-3.836,8.133-4.24c2.165-0.286,4.349,0.38,6.336,1.286
		c3.77,1.72,7.124,4.346,9.697,7.595c0.743,0.938,1.46,1.96,2.519,2.516c1.287,0.676,2.902,0.526,4.193-0.143
		c1.291-0.669,2.292-1.798,3.073-3.024c0.592-0.929,1.078-1.939,1.297-3.018c0.282-1.393,0.108-2.834-0.104-4.239
		c-0.263-1.751-0.623-3.585-1.771-4.933c-1.438-1.689-3.776-2.246-5.649-3.435c-2.284-1.45-3.837-3.832-4.869-6.333
		c-1.8-4.366-2.789-9.141-3.548-13.802c-0.396-2.429-0.978-4.828-1.739-7.169c-0.479-1.471-1.044-2.948-2.021-4.148
		s-2.433-2.097-3.98-2.059c-1.725,0.043-3.201,1.192-4.507,2.32c-2.085,1.801-4.098,3.695-5.883,5.793
		c-1.213,1.426-2.316,2.942-3.368,4.491c-3.455,5.085-6.403,10.621-7.712,16.628C349.781,385.908,348.702,393.686,353.092,397.989z"
		/>
	<path fill="none" stroke="#0000FF" stroke-miterlimit="10" d="M385.259,399.12c0.306,0.226,0.73-0.014,1.023-0.256
		c2.1-1.741,3.826-3.988,4.697-6.573s0.837-5.516-0.352-7.971c-0.286-0.591-0.772-1.227-1.427-1.177"/>
	<path fill="none" stroke="#0000FF" stroke-miterlimit="10" d="M390.259,386.666c0.259-0.066,0.399,0.292,0.421,0.559
		c0.117,1.414,0.233,2.845,0.01,4.246c-0.338,2.129-1.432,4.051-2.506,5.919"/>
	<path fill="none" stroke="#0000FF" stroke-miterlimit="10" d="M379.177,363.29c0,0,0.991,18.301-10.053,28.287"/>
	<path fill="none" stroke="#0000FF" stroke-miterlimit="10" d="M371.093,354.134c0,0-3.237,0.634-5.985,4.86
		c0,0,5.103-5.39,7.063-3.492s5.823,15.24-4.041,28.236c-9.863,12.995-14.434,12.421-15.425,6.612"/>
	<path fill="none" stroke="#0000FF" stroke-miterlimit="10" d="M372.658,358.147c1.51,4.482,1.473,9.396,0.402,14.002
		c-1.071,4.607-3.139,8.933-5.604,12.969"/>
	<path fill="none" stroke="#0000FF" stroke-miterlimit="10" d="M372.394,370.974c0,0-5.542,0.389-9.016-1.808
		c-3.474-2.198-5.21,0.646-6.825,5.06c-1.615,4.414,0.148,6.976,0.607,7.139c0.459,0.163,4.999,1.731,7.185,6.359"/>
	<path fill="none" stroke="#0000FF" stroke-miterlimit="10" d="M361.875,370.521c0.356,3.442-1.406,7.016-4.353,8.831
		c-0.3,0.185-0.621,0.361-0.823,0.649c-0.315,0.448-0.254,1.103,0.092,1.528c2.329-1.419,3.957-3.487,5.026-6.33"/>
	<path fill="none" stroke="#0000FF" stroke-miterlimit="10" d="M395.869,387.691c0.475,0.312,0.747,0.851,0.958,1.379
		c0.931,2.33,1.092,4.961,0.452,7.387c-0.51,1.933-1.533,3.748-3.021,5.083s-3.45,2.166-5.449,2.169
		c4.1-2.481,7.032-6.81,7.814-11.538"/>
	<path fill="none" stroke="#0000FF" stroke-miterlimit="10" d="M367.146,373.712c0.089-0.012,0.178-0.024,0.267-0.036
		c-1.062-0.432-2.075-0.987-3.011-1.65"/>
	<path fill="none" stroke="#0000FF" stroke-miterlimit="10" d="M366.191,375.262c-0.667-0.43-1.334-0.86-2.001-1.29"/>
	<path fill="none" stroke="#0000FF" stroke-miterlimit="10" d="M365.534,377.58c-0.635-0.474-1.269-0.948-1.904-1.422"/>
	<path fill="none" stroke="#0000FF" stroke-miterlimit="10" d="M364.627,380.261c-0.699-0.709-1.399-1.418-2.098-2.127"/>
	<path fill="none" stroke="#0000FF" stroke-miterlimit="10" d="M363.417,382.826c-0.901-0.898-1.802-1.796-2.702-2.695"/>
	<path fill="none" stroke="#0000FF" stroke-miterlimit="10" d="M387.147,403.411c-1.814,0.222-3.247,1.623-4.368,3.067
		c-1.718,2.214-3.058,4.72-3.946,7.377c-0.558,1.67-0.947,3.417-1.817,4.947c-0.151,0.266-0.341,0.543-0.634,0.632
		c-0.243,0.073-0.504-0.002-0.742-0.089c-1.948-0.716-3.526-2.371-4.148-4.351s-0.276-4.24,0.912-5.942
		c0.954-1.367,2.367-2.332,3.748-3.266c2.676-1.809,5.394-3.64,8.459-4.662c-3.579,1.933-6.87,4.399-9.729,7.291
		c-0.96,0.971-1.895,2.028-2.344,3.317c-0.449,1.29-0.309,2.869,0.671,3.82"/>
	<path fill="none" stroke="#0000FF" stroke-miterlimit="10" d="M382.021,400.044c1.822,1.519,3.331,3.411,4.408,5.525"/>
	<path fill="none" stroke="#0000FF" stroke-miterlimit="10" d="M381.644,401.258c1.596,1.261,2.825,2.98,3.5,4.898"/>
	<path fill="none" stroke="#0000FF" stroke-miterlimit="10" d="M384.372,400.847c1.133,0.947,2.135,2.052,2.966,3.273"/>
	<path fill="none" stroke="#0000FF" stroke-miterlimit="10" d="M391.785,393.944c1.207,0.604,2.035,1.899,2.077,3.248
		c0.006,0.194-0.007,0.4-0.115,0.561c-0.286,0.422-0.945,0.234-1.373-0.043c-2.083-1.349-3.346-3.873-3.177-6.349
		c1.64,1.433,3.026,3.157,4.073,5.067c1.272,2.321,2.695,4.699,3.948,7.03c-0.718-0.171-1.403-0.48-2.005-0.907
		c0.762,1.091,1.376,2.285,1.82,3.54c-0.572-0.357-1.144-0.715-1.716-1.072c0.384,1.191,0.769,2.382,1.153,3.574
		c-0.733-0.525-1.467-1.049-2.2-1.574c0.818,1.199,1.306,2.62,1.397,4.069c-0.689-0.675-1.377-1.35-2.066-2.025
		c0.839,1.495,1.327,3.184,1.414,4.896c-0.85-0.734-1.52-1.675-1.936-2.718c1.04,1.706,1.499,3.759,1.284,5.745
		c-0.681-1.04-1.363-2.08-2.044-3.12c1.447,1.822,1.964,4.346,1.352,6.591c-0.899-1.257-1.799-2.514-2.698-3.771
		c0.683,1.443,0.746,3.167,0.169,4.656c-0.753-0.991-1.316-2.126-1.65-3.325c0.945,2.267,0.975,4.9,0.08,7.188
		c-0.71-1.015-1.176-2.199-1.349-3.426c0.178,2.194-0.162,4.427-0.986,6.468c-0.498-1.568-0.995-3.135-1.493-4.703
		c0.531,2.288,0.084,4.785-1.206,6.747c-0.619-0.904-0.905-2.031-0.791-3.121c-0.388,2.058-1.332,4.009-2.706,5.589
		c-0.4-1.081-0.479-2.279-0.225-3.403c-0.556,1.62-1.401,3.141-2.482,4.469c-0.356-0.93-0.264-2.02,0.244-2.876
		c-0.82,1.203-1.91,2.221-3.167,2.956c0.005-1.196,0.361-2.387,1.012-3.39c-1.119,1.177-2.66,1.944-4.273,2.127
		c0.219-1.218,1.095-2.297,2.242-2.761c-1.149,1.359-3.134,1.943-4.835,1.423c0.52-0.803,1.336-1.409,2.255-1.673
		c-1.178,0.575-2.549,0.748-3.833,0.482c0.142-1.062,1.069-1.968,2.134-2.086c-0.785,0.991-2.229,1.398-3.416,0.963"/>
	<path fill="none" stroke="#0000FF" stroke-miterlimit="10" d="M357.918,432.069c-1.42-0.639-2.345-2.011-3.195-3.317
		c-0.759-1.166-1.517-2.332-2.276-3.498c-0.107-0.164-0.216-0.335-0.24-0.529c-0.031-0.242,0.076-0.479,0.2-0.689
		c0.749-1.268,2.148-1.977,3.473-2.619c1.749-0.848,3.5-1.697,5.296-2.439c0.946-0.391,2.042-0.748,2.959-0.293
		c2.45,1.215,4.379,6.44,3.149,8.952C365.848,430.567,361.143,433.519,357.918,432.069z"/>
	<path fill="none" stroke="#0000FF" stroke-miterlimit="10" d="M364.925,420.296c-0.136-0.277-0.482-0.398-0.789-0.365
		c-0.307,0.033-0.585,0.188-0.854,0.34c-2.605,1.473-5.242,2.97-7.392,5.053c-0.197,0.191-0.398,0.4-0.467,0.665
		c-0.055,0.212-0.021,0.435,0.021,0.65c0.255,1.306,0.788,2.558,1.553,3.648c0.137,0.196,0.295,0.396,0.519,0.478
		c0.225,0.082,0.529-0.014,0.586-0.246"/>
	<path fill="none" stroke="#0000FF" stroke-miterlimit="10" d="M360.716,419.98c0.045-0.056,0.142,0.023,0.124,0.093
		c-0.018,0.07-0.092,0.107-0.158,0.135c-1.15,0.498-2.3,0.997-3.451,1.495c-0.14,0.001-0.162-0.201-0.135-0.339
		c0.199-0.999,0.568-2.186,1.558-2.429c0.686-0.168,1.375,0.214,1.979,0.581"/>
	<path fill="none" stroke="#0000FF" stroke-miterlimit="10" d="M364.27,428.193c-0.377-1.548-0.754-3.095-1.132-4.643"/>
	<path fill="none" stroke="#0000FF" stroke-miterlimit="10" d="M363.073,427.971c-0.228-1.299-0.456-2.599-0.684-3.898"/>
	<path fill="none" stroke="#0000FF" stroke-miterlimit="10" d="M361.985,429.039c-0.421-1.43-0.624-2.924-0.601-4.414"/>
	<path fill="none" stroke="#0000FF" stroke-miterlimit="10" d="M360.48,429.472c-0.119-1.283-0.238-2.567-0.357-3.85"/>
	<path fill="none" stroke="#0000FF" stroke-miterlimit="10" d="M365.311,427.434c-0.048,0.038,0.041,0.113,0.09,0.076
		c0.049-0.037,0.047-0.109,0.04-0.17c-0.179-1.534-0.553-3.046-1.108-4.487"/>
	<path fill="none" stroke="#0000FF" stroke-miterlimit="10" d="M355.591,425.946c-1.125-0.764-2.28-1.482-3.463-2.152"/>
	<path fill="none" stroke="#0000FF" stroke-miterlimit="10" d="M358.449,348.571c-1.471,0.517-3.215,0.15-4.353-0.914
		c1.326-1.498,2.652-2.997,3.977-4.495c-2.386,1.48-5.471,1.77-8.092,0.762c1.526-2.997,4.004-5.5,6.986-7.056
		c-3.267,0.003-6.534-0.158-9.785-0.482c2.118-3.523,4.697-6.768,7.651-9.626c-2.313-1.308-4.627-2.617-6.94-3.925"/>
	<path fill="none" stroke="#0000FF" stroke-miterlimit="10" d="M343.255,380.046c-0.572,2.491-1.144,4.982-1.717,7.473
		c-3.854-0.937-3.462-7.454-7.099-9.037c-0.128,2.584-0.844,5.138-2.078,7.411c-2.265-1.512-3.816-4.048-4.131-6.752
		c-0.492,1.961-0.985,3.921-1.477,5.882c-1.068-0.43-2-1.19-2.638-2.149c-1.709,3.361-3.417,6.723-5.126,10.084
		c-3.868-3.52-5.901-8.954-5.294-14.149"/>
	<path fill="none" stroke="#0000FF" stroke-miterlimit="10" d="M348.557,360.22c-0.662,1.544-1.586,2.975-2.72,4.213
		c-0.524,0.572-1.325,1.144-2.01,0.779c-0.481-0.256-0.643-0.854-0.758-1.387c-0.552-2.564-1.103-5.127-1.655-7.691
		c-2.149,0.765-4.297,1.53-6.446,2.295c-0.429,0.153-0.94,0.297-1.312,0.034c-0.32-0.225-0.399-0.658-0.452-1.046
		c-0.315-2.297-0.629-4.594-0.944-6.891c-3.48,0.333-6.96,0.666-10.44,0.999"/>
	<path fill="none" stroke="#0000FF" stroke-miterlimit="10" d="M385.38,401.21c-1.371-2.241-3.665-3.752-6.002-4.952
		c-2.8-1.438-5.808-2.549-8.94-2.86c-3.132-0.311-6.404,0.222-9.086,1.868"/>
</g>
<path fill="none" stroke="#0000FF" stroke-miterlimit="10" d="M353.161,63.954c0.556,1.837,0.549,3.79,0.525,5.709
	c-0.103,8.337-0.441,16.67-1.013,24.988c6.346-0.181,12.687-0.57,19.008-1.165c3.783-11.374,3.04-23.689,2.255-35.65
	c-0.042-0.635-0.128-1.355-0.643-1.728c-0.347-0.251-0.804-0.275-1.232-0.278c-6.336-0.042-12.359,2.534-18.168,5.064
	c0.346,0.068,0.691,0.135,1.037,0.203"/>
<path fill="none" stroke="#0000FF" stroke-miterlimit="10" d="M358,65.851c-0.267-0.001-0.407-0.362-0.299-0.606
	s0.362-0.386,0.6-0.507c0.356-0.181,0.716-0.353,1.08-0.517c0.299-0.135,0.613-0.266,0.941-0.261
	c0.328,0.005,0.677,0.181,0.781,0.492c0.105,0.311-0.152,0.715-0.478,0.672"/>
<path fill="none" stroke="#0000FF" stroke-miterlimit="10" d="M364.83,64.147c-0.164-0.023-0.232-0.246-0.162-0.396
	c0.07-0.15,0.224-0.24,0.371-0.317c0.885-0.466,1.828-0.821,2.801-1.054c0.3-0.072,0.768,0.021,0.696,0.321"/>
<path fill="none" stroke="#0000FF" stroke-miterlimit="10" d="M362.494,68.728c-0.083-0.126-0.113,0.171,0.024,0.233
	c0.66,0.298,1.398,0.468,2.112,0.348c0.714-0.12,1.396-0.563,1.682-1.228c-0.485,2.276-1.077,4.529-1.771,6.749
	c-0.065,0.209-0.155,0.444-0.36,0.522c-0.412,0.157-0.689-0.427-0.745-0.864c-0.115-0.904-0.803-4.623-0.918-5.527"/>
<path fill="none" stroke="#0000FF" stroke-miterlimit="10" d="M363.696,90.324c-0.652-0.149-1.367,0.007-1.898,0.414
	c-0.376,0.289-0.672,0.781-0.509,1.227c0.144,0.394,0.594,0.597,1.013,0.621c0.808,0.047,1.67-0.55,1.706-1.359
	s-1.031-1.489-1.661-0.981"/>
<path fill="none" stroke="#0000FF" stroke-miterlimit="10" d="M354.928,88.425c5.351,0.015,10.703-0.274,16.022-0.868
	c3.073-9.553,1.969-19.882,0.833-29.852c-0.047-0.413-15.519,3.447-17.128,4.65c0,0-0.09,10.295,0.003,14.335
	C354.748,80.603,354.838,84.514,354.928,88.425z"/>
<path fill="none" stroke="#0000FF" stroke-miterlimit="10" d="M374.747,67.229c4.468-1.764,8.935-3.528,13.403-5.292"/>
<path fill="none" stroke="#0000FF" stroke-miterlimit="10" d="M388.227,60.939c-0.329-0.639-0.667-1.323-0.606-2.039
	c0.061-0.717,0.703-1.432,1.408-1.291c0.651,0.13,0.991,0.918,0.872,1.572c-0.119,0.653-0.562,1.194-0.99,1.703
	c2.639-1.177,4.387-4.031,7.194-4.716c-0.007,0.678-0.444,1.271-0.899,1.773c-1.273,1.406-2.857,2.529-4.605,3.265
	c1.601-0.353,3.201-0.706,4.802-1.059c0.277-0.061,0.573-0.121,0.84-0.022c0.266,0.099,0.467,0.426,0.329,0.674
	c-1.903,0.423-3.862,0.595-5.81,0.512c1.627,0.424,3.302,0.663,4.982,0.712c0.954,0.028,2.124,0.123,2.517,0.994
	c-2.485,0.437-5.085,0.203-7.452-0.671"/>
<path fill="none" stroke="#0000FF" stroke-miterlimit="10" d="M352.903,71.059c-0.611-0.465-1.331-0.762-2.046-1.043
	c-4.263-1.676-8.67-2.987-13.155-3.914c0.076,0.052,0.151,0.105,0.227,0.157"/>
<path fill="none" stroke="#0000FF" stroke-miterlimit="10" d="M340.676,59.502c0.009-0.141,0.012-0.291-0.061-0.413
	c-0.19-0.319-0.681-0.187-0.992,0.015c-1.451,0.941-2.384,2.634-2.405,4.364c-0.131-1.164-1.568-1.563-2.596-2.126
	c-0.664-0.364-1.229-0.889-1.891-1.257c-0.662-0.368-1.496-0.564-2.169-0.217c0.201,1.122,1.354,1.808,2.45,2.12
	c1.096,0.312,2.287,0.42,3.23,1.06c-2.228-0.008-4.455-0.015-6.683-0.023c-0.751-0.003-1.588,0.029-2.117,0.561
	c2.748,0.497,5.626,0.986,8.288,0.142c-2.435,0.739-4.647,2.198-6.284,4.146c2.338-0.736,4.438-2.064,6.507-3.377
	c-1.509,1.953-2.615,4.215-3.231,6.605c0.216-0.84,2.033-2.19,2.602-2.948c0.759-1.011,1.366-2.128,2.191-3.087
	C339.004,63.337,340.514,61.972,340.676,59.502z"/>
<path fill="none" stroke="#0000FF" stroke-miterlimit="10" d="M361.619,95.122c0.219,4.161,0.189,8.334-0.088,12.491
	c-0.457-1.348-2.069-1.879-3.482-2.05c-3.745-0.452-7.629,0.339-10.899,2.219c2.426,0.983,5.159,1.193,7.707,0.593
	c1.913-0.451,3.794-1.35,5.747-1.129"/>
<path fill="none" stroke="#0000FF" stroke-miterlimit="10" d="M364.701,94.952c-0.092,4.362-0.185,8.724-0.277,13.086
	c-0.194-0.246,0.03-0.596,0.255-0.816c1.791-1.753,4.203-2.859,6.701-3.073c2.497-0.213,5.062,0.467,7.125,1.891
	c-4.414,0.89-8.829,1.779-13.243,2.669"/>
<path fill="none" stroke="#0000FF" stroke-miterlimit="10" d="M356.076,71.309c0.407-0.752,0.871-1.475,1.385-2.158
	C357.009,69.927,356.526,70.533,356.076,71.309z"/>
<path fill="none" stroke="#0000FF" stroke-miterlimit="10" d="M357.822,69.828c-0.562,0.819-1.035,1.699-1.407,2.619"/>
<path fill="none" stroke="#0000FF" stroke-miterlimit="10" d="M358.605,70.443c-0.435,0.443-0.803,0.953-1.088,1.505"/>
<path fill="none" stroke="#0000FF" stroke-miterlimit="10" d="M369.942,67.447c-0.369,0.59-0.706,1.2-1.008,1.827"/>
<path fill="none" stroke="#0000FF" stroke-miterlimit="10" d="M370.352,68.353c-0.01-0.041-0.067-0.054-0.105-0.035
	c-0.038,0.019-0.06,0.058-0.08,0.095c-0.18,0.327-0.36,0.655-0.541,0.982"/>
<path fill="none" stroke="#0000FF" stroke-miterlimit="10" d="M370.624,69.061c-0.179,0.254-0.347,0.516-0.505,0.785"/>
<g>
	<path fill="none" stroke="#0000FF" stroke-miterlimit="10" d="M344.244,247.415c-2.503,1.479-3.694,4.615-3.468,7.514
		s1.654,5.577,3.385,7.913c2.673,3.608,6.344,6.723,10.746,7.603c4.402,0.881,9.525-1.002,11.408-5.078
		c0.672-1.454,0.905-3.069,1.056-4.664c0.184-1.946,0.251-3.95-0.341-5.813c-0.611-1.921-1.879-3.556-3.187-5.089
		c-1.864-2.186-3.908-4.296-6.447-5.64c-2.539-1.344-5.664-1.835-8.304-0.703c-1.612,0.691-2.928,1.922-4.121,3.207
		c-1.77,1.907-3.413,4.147-3.644,6.738c-0.252,2.825,1.222,5.517,2.946,7.769c1.808,2.361,3.946,4.469,6.333,6.242
		c1.456,1.082,3.038,2.054,4.802,2.477c1.764,0.423,3.743,0.232,5.2-0.847"/>
	<path fill="none" stroke="#0000FF" stroke-miterlimit="10" d="M343.137,252.334c-0.247-0.043-0.361,0.297-0.362,0.547
		c-0.007,1.762,0.635,3.519,1.776,4.862c0.598,0.704,1.449,1.332,2.364,1.205c0.917-0.127,1.57-0.976,1.891-1.844
		c0.819-2.214-0.039-4.932-1.98-6.275c-0.376-0.26-0.819-0.479-1.272-0.421c-0.297,0.038-0.567,0.191-0.81,0.367
		c-0.966,0.703-1.605,1.837-1.705,3.028c-0.1,1.191,0.342,2.416,1.178,3.269c0.792,0.808,2.117,1.257,3.065,0.639
		c0.775-0.504,1.031-1.538,0.961-2.46c-0.111-1.472-0.92-2.876-2.137-3.712c-0.239-0.164-0.503-0.31-0.791-0.332
		c-0.265-0.02-0.529,0.068-0.764,0.192c-1.146,0.604-1.671,2.165-1.121,3.339"/>
	<path fill="none" stroke="#0000FF" stroke-miterlimit="10" d="M352.143,254.411c-0.22,0.594-0.315,1.234-0.279,1.866
		c0.023,0.402,0.119,0.836,0.433,1.087c0.37,0.296,0.953,0.218,1.302-0.102c0.349-0.321,0.484-0.827,0.446-1.3
		c-0.031-0.384-0.173-0.771-0.457-1.031c-0.284-0.26-0.721-0.368-1.069-0.203c-0.636,0.302-0.625,1.197-0.515,1.892"/>
	<path fill="none" stroke="#0000FF" stroke-miterlimit="10" d="M341.055,247.541c-2.591,3.26-3.107,7.861-1.97,11.867
		c1.137,4.006,3.757,7.461,6.843,10.257c1.137,1.03,2.363,1.996,3.78,2.585c1.357,0.564,2.835,0.761,4.298,0.905
		c3.63,0.357,7.546,0.353,10.602-1.638c4.186-2.726,5.461-8.416,4.772-13.364c-0.984-7.061-5.361-13.571-11.529-17.147
		c-1.009-0.585-2.077-1.101-3.223-1.323c-1.402-0.272-2.861-0.092-4.236,0.295c-3.964,1.115-7.37,3.982-9.287,7.627
		c-1.917,3.645-2.358,8.009-1.366,12.006c1.934,7.792,9.441,13.705,17.453,14.229c2.982,0.195,6.192-0.368,8.372-2.411
		c1.657-1.552,2.526-3.774,3.024-5.99c1.955-8.69-1.467-18.361-8.451-23.888"/>
	<path fill="none" stroke="#0000FF" stroke-miterlimit="10" d="M368.049,268.335c-0.621,1.09-0.855,2.396-0.651,3.634
		c0.071,0.432,0.271,0.932,0.702,1.009c0.177,0.032,0.359-0.018,0.527-0.085c1.076-0.427,1.784-1.519,2.018-2.653
		s0.059-2.312-0.198-3.441c-0.051-0.225-0.143-0.488-0.367-0.543c-0.207-0.05-0.402,0.112-0.549,0.267
		c-0.765,0.807-1.371,1.766-1.771,2.804c-0.364,0.943-0.405,2.282,0.521,2.688c0.926-0.819,1.533-1.991,1.667-3.221
		c0.114-1.045-0.418-2.388-1.468-2.351"/>
	<path fill="none" stroke="#0000FF" stroke-miterlimit="10" d="M370.36,271.354c3.297,4.976,7.343,9.455,11.96,13.239
		c0.657,0.539,1.355,1.078,2.183,1.269c1.082,0.25,2.272-0.171,3.017-0.995s1.048-2.004,0.872-3.101
		c-0.266-1.659-1.5-2.98-2.746-4.107c-3.255-2.944-7.004-5.341-11.042-7.059c-1.367-0.582-2.787-1.091-4.267-1.226
		c5.529,2.583,10.739,5.849,15.473,9.701c0.84,0.683,1.73,1.51,1.79,2.591c0.055,0.993-0.613,1.863-1.245,2.631
		c-0.531,0.644-1.159,1.341-1.993,1.39c-0.552,0.033-1.075-0.234-1.553-0.512c-2.574-1.495-4.822-3.55-6.542-5.979"/>
	<path fill="none" stroke="#0000FF" stroke-miterlimit="10" d="M381.686,274.819c0.767,1.149,0.623,2.678,0.234,4.004
		c-0.425,1.449-1.101,2.809-1.773,4.161"/>
	<path fill="none" stroke="#0000FF" stroke-miterlimit="10" d="M382.501,275.181c1.131,2.104,0.809,4.898-0.773,6.689"/>
	<path fill="none" stroke="#0000FF" stroke-miterlimit="10" d="M383.525,275.909c0.874,2.138,0.934,4.596,0.166,6.774"/>
	<path fill="none" stroke="#0000FF" stroke-miterlimit="10" d="M384.521,276.613c0.266,0.951,0.534,1.912,0.586,2.899
		c0.052,0.987-0.13,2.015-0.695,2.825"/>
	<path fill="none" stroke="#0000FF" stroke-miterlimit="10" d="M385.448,277.963c0.953,1.905,1.076,4.207,0.333,6.204"/>
	<path fill="none" stroke="#0000FF" stroke-miterlimit="10" d="M380.163,279.83c-0.051,0.022-0.034,0.108,0.016,0.131
		c0.05,0.023,0.109,0.002,0.159-0.023c0.382-0.198,0.547-0.655,0.618-1.079c0.321-1.901-0.554-3.808-1.671-5.379"/>
	<path fill="none" stroke="#0000FF" stroke-miterlimit="10" d="M378.67,277.826c0.267-1.825,0.113-3.711-0.446-5.468"/>
	<path fill="none" stroke="#0000FF" stroke-miterlimit="10" d="M376.759,276.16c0.421-0.189,0.633-0.661,0.742-1.109
		c0.312-1.279,0.058-2.686-0.681-3.775"/>
	<path fill="none" stroke="#0000FF" stroke-miterlimit="10" d="M376.111,275.078c0.05-0.706,0.091-1.418,0.006-2.121
		s-0.302-1.404-0.725-1.971"/>
	<path fill="none" stroke="#0000FF" stroke-miterlimit="10" d="M374.995,273.8c0.039-1.227-0.211-2.462-0.723-3.577"/>
	<path fill="none" stroke="#0000FF" stroke-miterlimit="10" d="M373.363,272.392c-0.177-0.451-0.128-0.954-0.159-1.437
		c-0.033-0.514-0.158-1.022-0.369-1.492"/>
</g>
<g>
	<path fill="none" stroke="#0000FF" stroke-miterlimit="10" d="M332.936,181.882c-2.338,2.888-4.097,6.457-3.923,10.169
		c0.278,5.928,5.696,10.775,11.558,11.697s11.852-1.43,16.584-5.01c4.781-3.616,8.81-9.542,7.166-15.306
		c-0.868-3.042-3.25-5.521-6.088-6.919c-2.838-1.398-6.092-1.791-9.248-1.574c-4.616,0.317-9.137,1.919-12.923,4.578
		c-3.532,2.481-6.623,6.758-5.267,10.856c0.807,2.439,3.031,4.166,5.393,5.174c6.578,2.807,14.707,0.74,19.718-4.363
		c5.099-5.193,6.095-15.794-2.689-17.764C345.964,171.794,337.328,176.456,332.936,181.882z"/>
	<path fill="none" stroke="#0000FF" stroke-miterlimit="10" d="M317.792,173.202c-1.595,12.243-2.633,24.559-3.108,36.897
		c21.005,0.568,42.011,1.136,63.016,1.705c0.564-14.895,1.854-29.762,3.865-44.531c-20.282,0.79-40.565,1.58-60.847,2.37"/>
	<path fill="none" stroke="#0000FF" stroke-miterlimit="10" d="M366.171,172.857c-1.494-0.969-3.72-0.543-4.751,0.909
		c-0.16,0.225-0.297,0.488-0.271,0.762c0.055,0.593,0.777,0.851,1.37,0.898c1.133,0.09,2.287-0.088,3.339-0.517
		c0.312-0.127,0.662-0.346,0.659-0.683c-0.004-0.453-0.598-0.612-1.05-0.634c-1.244-0.061-2.488-0.122-3.731-0.183"/>
	<path fill="none" stroke="#0000FF" stroke-miterlimit="10" d="M343.093,174.477c-5.928,3.683-10.128,10.03-11.2,16.926
		c-0.258,1.657-0.325,3.433,0.436,4.928c1.501,2.944,5.464,3.55,8.742,3.137c2.864-0.36,5.643-1.206,8.376-2.136
		c4.796-1.633,10.1-4.185,11.368-9.09c0.579-2.24-0.142-5.08-2.306-5.898c2.601,5.384,1.714,12.267-2.166,16.815
		s-10.537,6.51-16.264,4.79c-2.48-0.745-4.731-2.096-6.89-3.524c-2.136-1.413-4.428-3.301-4.466-5.862"/>
	<path fill="none" stroke="#0000FF" stroke-miterlimit="10" d="M320.505,169.505c0.174-1.62,0.452-3.228,0.832-4.813
		c2.442,0.428,4.944,0.505,7.408,0.228c0.188,1.777,0.004,3.592-0.536,5.295c-0.636-1.336-0.836-2.874-0.564-4.329
		c-1.225,0.135-2.451,0.27-3.676,0.405"/>
	<path fill="none" stroke="#0000FF" stroke-miterlimit="10" d="M321.806,168.86c-0.069,0.207-0.138,0.414-0.207,0.62
		c0.297-1.182,0.594-2.365,0.891-3.547c0.024-0.095,0.069-0.209,0.167-0.217c0.097-0.008,0.094,0.198,0.009,0.15
		C322.438,167.773,322.413,167.038,321.806,168.86z"/>
	<path fill="none" stroke="#0000FF" stroke-miterlimit="10" d="M317.04,170.902c21.031-2.521,42.316-2.914,63.426-1.172
		c-1.51,14.086-3.021,28.172-4.531,42.257"/>
	<path fill="none" stroke="#0000FF" stroke-miterlimit="10" d="M348.364,176.293c-2.243-1.314-5.063,0.219-7.029,1.921
		c-4.588,3.97-8.074,9.039-11.358,14.141c1.813-5.143,5.27-9.692,9.738-12.818c2.062-1.442,4.52-2.622,7.011-2.263
		c2.599,0.375,4.66,2.324,6.442,4.252c1.048,1.134,2.081,2.319,2.723,3.723c1.949,4.259-0.318,9.524-4.051,12.353
		c-4.214,3.193-10.184,3.89-15.02,1.755c-1.805-0.797-3.492-2.003-4.5-3.699c-2.172-3.657-0.621-8.448,1.878-11.89
		c2.569-3.539,6.171-6.418,10.368-7.649c4.197-1.23,8.988-0.678,12.525,1.895c3.537,2.572,5.568,7.246,4.578,11.506
		c-0.577,2.484-2.08,4.669-3.859,6.497c-2.676,2.75-6.046,4.819-9.709,5.963c-3.05,0.952-6.361,1.26-9.45,0.443
		c-3.089-0.817-5.926-2.845-7.329-5.716"/>
	<path fill="none" stroke="#0000FF" stroke-miterlimit="10" d="M361.35,141.304c-2.114,1.209-4.227,2.419-6.341,3.628
		c-0.406,0.232-0.866,0.552-0.861,1.021c2.183-0.108,4.366-0.217,6.549-0.325c0.77-0.038,1.714,0.019,2.059,0.709
		c0.239,0.478,0.05,1.083-0.318,1.471c-0.368,0.388-0.878,0.604-1.379,0.791c-2.098,0.782-4.315,1.242-6.551,1.36
		c-0.558,0.029-1.259-0.054-1.446-0.58"/>
	<path fill="none" stroke="#0000FF" stroke-miterlimit="10" d="M365.611,142.315c-0.562,1.843-1.125,3.686-1.687,5.529
		c1.16-3.15,2.656-6.176,4.455-9.01c-0.881,3.777-1.414,7.634-1.589,11.509"/>
	<path fill="none" stroke="#0000FF" stroke-miterlimit="10" d="M362.285,145.115c-0.126,0.083-0.251,0.166-0.377,0.249
		c2.381-0.451,4.747-0.986,7.091-1.602"/>
	<path fill="none" stroke="#0000FF" stroke-miterlimit="10" d="M371.235,140.279c-0.147-0.041-0.294-0.083-0.441-0.124
		c0.336,1.693,1.04,3.313,2.05,4.713"/>
	<path fill="none" stroke="#0000FF" stroke-miterlimit="10" d="M375.165,140.15c-0.931,1.924-1.862,3.848-2.793,5.772
		c-0.607,1.255-1.218,2.518-1.605,3.858"/>
	<path fill="none" stroke="#0000FF" stroke-miterlimit="10" d="M371.812,154.762c0.063-0.351-0.201-0.699-0.531-0.833
		s-0.705-0.098-1.051-0.016c-1.739,0.413-3.049,1.866-3.924,3.425c-0.54,0.961-0.923,2.268-0.181,3.083
		c0.231,0.253,0.543,0.419,0.865,0.537c1.163,0.428,2.526,0.269,3.56-0.415"/>
	<path fill="none" stroke="#0000FF" stroke-miterlimit="10" d="M374.111,153.909c0.087-0.166,0.287-0.265,0.472-0.235
		c-0.082,2.309-0.463,4.607-1.131,6.818"/>
	<path fill="none" stroke="#0000FF" stroke-miterlimit="10" d="M371.331,157.193c0.325-0.334,0.814-0.436,1.272-0.523
		c2.432-0.46,4.865-0.92,7.297-1.38"/>
	<path fill="none" stroke="#0000FF" stroke-miterlimit="10" d="M377.913,152.281c-0.456,3.301-1.195,6.564-2.204,9.74"/>
	<path fill="none" stroke="#0000FF" stroke-miterlimit="10" d="M383.888,159.972c-0.593,0.391-1.261,0.667-1.957,0.809
		c-0.841,0.171-1.889,0.045-2.283-0.717c-0.212-0.41-0.173-0.903-0.093-1.358c0.25-1.403,0.856-2.741,1.746-3.854
		c0.736-0.92,1.965-1.736,3.029-1.23c-0.117,0.218-0.176,0.466-0.171,0.713c-0.659-0.011-0.741-0.16-1.098,0.394
		c-0.487,0.755-0.889,1.565-1.196,2.409c-0.262,0.721-0.456,1.505-0.274,2.25S383.123,160.015,383.888,159.972z"/>
	<path fill="none" stroke="#0000FF" stroke-miterlimit="10" d="M378.023,158.915c0.1,0.082-0.16,0.175-0.186,0.048
		c-0.026-0.127,0.107-0.225,0.221-0.285c2.32-1.225,4.873-2.006,7.481-2.288"/>
	<path fill="none" stroke="#0000FF" stroke-miterlimit="10" d="M396.029,150.991c-1.256-0.203-2.605,0.347-3.36,1.371
		c-0.085,0.115-0.165,0.242-0.172,0.385c-0.019,0.361,0.395,0.564,0.729,0.704c0.864,0.363,1.634,0.945,2.22,1.677
		c0.382,0.477,0.697,1.078,0.575,1.677c-0.145,0.712-0.837,1.155-1.47,1.511c-1.344,0.755-2.347,1.056-3.802,0.655
		c-1.311-0.361-2.758-1.508-0.774-2.372"/>
	<path fill="none" stroke="#0000FF" stroke-miterlimit="10" d="M390.72,153.254c0.003-0.451-0.36-0.847-0.787-0.993
		c-0.427-0.146-0.899-0.083-1.33,0.051c-1.728,0.54-2.929,2.149-3.57,3.842c-0.42,1.109-0.63,2.427,0.003,3.43
		c0.781,1.238,2.509,1.474,3.951,1.22"/>
	<path fill="none" stroke="#0000FF" stroke-miterlimit="10" d="M382.97,157.956c0.058,0.162-0.294,0.139-0.283-0.033
		c0.01-0.172,0.202-0.263,0.365-0.319c2.568-0.875,5.136-1.749,7.704-2.624"/>
	<path fill="none" stroke="#0000FF" stroke-miterlimit="10" d="M402.609,151.995c-0.009-0.288-0.019-0.575-0.028-0.863
		c-0.654-0.204-1.365,0.018-1.981,0.319c-1.34,0.657-2.485,1.706-3.256,2.984c-0.346,0.574-0.624,1.256-0.446,1.903
		c0.16,0.583,0.672,1.018,1.235,1.241s1.178,0.266,1.782,0.305c1.379,0.089,3.006,0.059,3.817-1.059"/>
	<path fill="none" stroke="#0000FF" stroke-miterlimit="10" d="M395.433,156.623c1.822-0.706,3.726-1.199,5.662-1.468"/>
	<path fill="none" stroke="#0000FF" stroke-miterlimit="10" d="M366.472,180.031c0.182-0.393,0.715-0.436,1.148-0.416
		c2.459,0.111,4.913,0.352,7.346,0.722c0.296-1.075,0.653-2.134,1.069-3.169c-2.063,0.143-4.134,0.166-6.199,0.067
		c-0.589-0.028-2.353-0.421-2.71-0.042C366.602,177.748,366.8,179.322,366.472,180.031z"/>
	<path fill="none" stroke="#0000FF" stroke-miterlimit="10" d="M333.673,168.898c3.087-1.463,5.921-3.455,8.344-5.863
		c-2.184,2.528-4.629,4.83-7.284,6.857c0.624-2.064,3.475-2.977,3.764-5.114c0.063-0.464,0.024-1.015,0.391-1.305
		c0.209-0.165,0.492-0.189,0.758-0.207c7.265-0.473,14.553-0.594,21.83-0.364c0.193,1.888,1.157,3.686,2.624,4.891"/>
	<path fill="none" stroke="#0000FF" stroke-miterlimit="10" d="M338.581,161.985c7.01-0.613,14.04-1.002,21.075-1.167
		c-0.101,2.511,0.896,5.048,2.679,6.819"/>
</g>
<g>
	<path fill="none" stroke="#0000FF" stroke-miterlimit="10" d="M382.39,522.831c-0.195,0.16-0.39,0.32-0.585,0.48
		c-0.047-1.2,0.216-2.41,0.755-3.483c0.248-0.494,0.586-0.985,1.099-1.191c0.513-0.206,1.221,0.012,1.357,0.547
		c-1.47,0.302-2.68,1.603-2.873,3.092"/>
	<path fill="none" stroke="#0000FF" stroke-miterlimit="10" d="M376.528,517.908c0.934-1.748,2.035-3.482,3.667-4.608
		c1.631-1.126,3.91-1.512,5.6-0.477c-1.526-0.934-5.748,2.371-6.715,3.32c-1.858,1.824-3.093,4.192-3.496,6.765
		C375.34,521.11,375.674,519.506,376.528,517.908z"/>
	<path fill="none" stroke="#0000FF" stroke-miterlimit="10" d="M367.599,526.556c-0.594-2.038,0.044-4.221,0.829-6.193
		c2.335-5.865,6.036-11.181,10.725-15.407c1.672-1.508,3.917-2.961,6.03-2.183c-7.004,4.325-12.966,10.327-17.243,17.36
		c-0.348,0.573-0.681,1.332-0.278,1.868"/>
	<path fill="none" stroke="#0000FF" stroke-miterlimit="10" d="M360.394,528.373c-0.494-1.634-0.411-3.384-0.205-5.079
		c1.257-10.349,7.156-20.046,15.768-25.921c2.307-1.574,4.862-2.906,7.632-3.266c-0.909-0.854-2.702-0.865-3.86-0.405
		c-5.966,2.371-11.963,5.703-15.162,11.27"/>
</g>
</svg>
