<?xml version="1.0" encoding="utf-8"?>
<!-- Generator: Adobe Illustrator 21.1.0, SVG Export Plug-In . SVG Version: 6.00 Build 0)  -->
<svg version="1.1" id="Capa_1" xmlns="http://www.w3.org/2000/svg" xmlns:xlink="http://www.w3.org/1999/xlink" x="0px" y="0px"
	 viewBox="0 0 110 30" style="enable-background:new 0 0 110 30;" xml:space="preserve">
<style type="text/css">
	.st0{fill:#5070A9;}
	.st1{fill:#3D4A5F;}
	.st2{fill:#303B4C;}
	.st3{fill:#272D3A;}
</style>
<g>
	<polygon class="st0" points="25.1,16.7 25.1,20.5 15.9,25.7 6.8,20.5 6.8,16.7 3.5,14.8 3.5,22.3 15.9,29.5 28.4,22.3 28.4,14.8 	
		"/>
	<polygon class="st1" points="21.8,18.6 15.9,15.2 10.1,18.6 15.9,21.9 	"/>
	<polygon class="st2" points="15.9,9.6 1.9,4.5 1.9,10 15.9,18.2 30,10 30,1.5 	"/>
	<polygon class="st0" points="14.3,4.8 15.9,3.8 17.6,4.8 20.8,2.9 15.9,0.1 11,2.9 	"/>
	<polygon class="st3" points="110,8 110,22.2 93.8,22.2 93.8,20.2 108,20.2 108,18.1 93.8,18.1 93.8,8 95.8,8 95.8,16.1 108,16.1 
		108,8 	"/>
	<path class="st3" d="M39.1,8v14.2h2v-4.1h14.2V8H39.1z M53.3,16.1H41.1V10h12.2V16.1z"/>
	<polygon class="st3" points="73.5,8 73.5,10 59.4,10 59.4,18.1 57.3,18.1 57.3,8 	"/>
	<path class="st3" d="M75.6,8v10.1h16.2v-2H77.6v-2h14.2V8H75.6z M89.7,12.1H77.6v-2h12.2V12.1z"/>
	<polygon class="st3" points="17.7,8.5 15.8,7.4 13.9,8.5 0,0.5 0,5.3 15.6,14.4 31.3,5.3 31.3,0.5 	"/>
</g>
</svg>
