<?xml version="1.0" encoding="utf-8"?>
<!-- Generator: Adobe Illustrator 17.0.0, SVG Export Plug-In . SVG Version: 6.00 Build 0)  -->
<!DOCTYPE svg PUBLIC "-//W3C//DTD SVG 1.1//EN" "http://www.w3.org/Graphics/SVG/1.1/DTD/svg11.dtd">
<svg version="1.1" id="Layer_1" xmlns="http://www.w3.org/2000/svg" xmlns:xlink="http://www.w3.org/1999/xlink" x="0px" y="0px"
	 width="1595.277px" height="436.832px" viewBox="0 0 1595.277 436.832" enable-background="new 0 0 1595.277 436.832"
	 xml:space="preserve">
<g>
	<polygon fill="#F3F5F8" points="1586.813,113.576 1586.813,323.252 1347.183,323.252 1347.183,293.298 1556.859,293.298
		1556.859,263.345 1347.183,263.345 1347.183,113.576 1377.137,113.576 1377.137,233.391 1556.859,233.391 1556.859,113.576 	"/>
	<path fill="#F3F5F8" d="M538.434,113.576v209.676h29.954v-59.907h209.676V113.576L538.434,113.576z M748.11,233.391H568.388V143.53
		H748.11V233.391z"/>
	<polygon fill="#F3F5F8" points="1047.647,113.576 1047.647,143.53 837.971,143.53 837.971,263.345 808.017,263.345
		808.017,113.576 	"/>
	<path fill="#F3F5F8" d="M1077.6,113.576v149.768h239.629v-29.954h-209.676v-29.954h209.676v-89.861H1077.6z M1287.276,173.484
		h-179.722V143.53h179.722V173.484z"/>
	<polygon fill="#F3F5F8" points="239.314,0.991 166.41,43.079 215.005,71.132 239.251,57.107 263.609,71.125 312.194,43.066 	"/>
	<polygon fill="#F3F5F8" points="239.324,435.841 421.535,330.631 421.532,218.414 372.92,246.468 372.937,302.574 239.304,379.731
		105.654,302.561 105.65,246.458 57.076,218.411 57.076,330.621 	"/>
	<polygon fill="#F3F5F8" points="445.824,92.15 445.824,92.183 445.854,148.263 275.754,246.478 324.309,274.534 239.307,323.625
		154.275,274.534 202.867,246.478 32.76,148.263 32.797,92.216 8.464,78.171 8.464,8.046 214.978,127.262 239.307,113.25
		263.57,127.262 470.117,8.013 470.117,78.138 	"/>
</g>
</svg>
